SplineFontDB: 3.0
FontName: Sansita-Italic
FullName: Sansita-Italic
FamilyName: Sansita
Weight: Regular
Copyright: Copyright (c) 2011-2013, Omnibus-Type (www.omnibus-type.com omnibus.type@gmail.com) with Reserved Font Name 'Sansita'
Version: 001.004
ItalicAngle: -11
UnderlinePosition: -49
UnderlineWidth: 49
Ascent: 800
Descent: 200
sfntRevision: 0x00010106
LayerCount: 2
Layer: 0 1 "Back"  1
Layer: 1 1 "Fore"  0
XUID: [1021 809 -2065993493 12435139]
FSType: 8
OS2Version: 3
OS2_WeightWidthSlopeOnly: 0
OS2_UseTypoMetrics: 1
CreationTime: 1387883418
ModificationTime: 1388332338
PfmFamily: 81
TTFWeight: 400
TTFWidth: 5
LineGap: 0
VLineGap: 0
Panose: 0 0 5 0 0 0 0 0 0 0
OS2TypoAscent: 700
OS2TypoAOffset: 0
OS2TypoDescent: -180
OS2TypoDOffset: 0
OS2TypoLinegap: 320
OS2WinAscent: 1020
OS2WinAOffset: 0
OS2WinDescent: 180
OS2WinDOffset: 0
HheadAscent: 1020
HheadAOffset: 0
HheadDescent: -180
HheadDOffset: 0
OS2SubXSize: 650
OS2SubYSize: 600
OS2SubXOff: -15
OS2SubYOff: 75
OS2SupXSize: 650
OS2SupYSize: 600
OS2SupXOff: 68
OS2SupYOff: 350
OS2StrikeYSize: 50
OS2StrikeYPos: 306
OS2Vendor: 'UKWN'
OS2CodePages: 20000093.00000000
OS2UnicodeRanges: 00000007.00000000.00000000.00000000
Lookup: 1 0 0 "'aalt' Access All Alternates lookup 0"  {"'aalt' Access All Alternates lookup 0 subtable"  } ['aalt' ('DFLT' <'dflt' > 'grek' <'dflt' > 'latn' <'AZE ' 'CAT ' 'CRT ' 'ESP ' 'KAZ ' 'MOL ' 'NLD ' 'PLK ' 'ROM ' 'TAT ' 'TRK ' 'dflt' > ) ]
Lookup: 3 0 0 "'aalt' Access All Alternates lookup 1"  {"'aalt' Access All Alternates lookup 1 subtable"  } ['aalt' ('DFLT' <'dflt' > 'grek' <'dflt' > 'latn' <'AZE ' 'CAT ' 'CRT ' 'ESP ' 'KAZ ' 'MOL ' 'NLD ' 'PLK ' 'ROM ' 'TAT ' 'TRK ' 'dflt' > ) ]

StartChar: .notdef
Encoding: 65536 -1 0
Width: 513
Flags: MW
HStem: 0 50<49 389 49 459> 650 50<164 504 164 164>
VStem: -41 636
LayerCount: 2
UndoRedoHistory
Layer: 0
Undoes
EndUndoes
Redoes
EndRedoes
EndUndoRedoHistory
UndoRedoHistory
Layer: 1
Undoes
EndUndoes
Redoes
EndRedoes
EndUndoRedoHistory
Fore
SplineSet
389 50 m 1,0,-1
 267 305 l 1,1,-1
 49 50 l 1,2,-1
 389 50 l 1,0,-1
426 95 m 1,3,-1
 526 605 l 1,4,-1
 307 350 l 1,5,-1
 426 95 l 1,3,-1
26 95 m 1,6,-1
 247 350 l 1,7,-1
 126 605 l 1,8,-1
 26 95 l 1,6,-1
504 650 m 1,9,-1
 164 650 l 1,10,-1
 286 395 l 1,11,-1
 504 650 l 1,9,-1
95 700 m 1,12,-1
 595 700 l 1,13,-1
 459 0 l 1,14,-1
 -41 0 l 1,15,-1
 95 700 l 1,12,-1
EndSplineSet
Validated: 1
EndChar

StartChar: A
Encoding: 65 65 1
Width: 535
Flags: MW
HStem: 168 71<185 338 185 344 157 338> 578 82<319 319> 640 20G<271 417 417 417>
VStem: -27 529
LayerCount: 2
UndoRedoHistory
Layer: 0
Undoes
EndUndoes
Redoes
EndRedoes
EndUndoRedoHistory
UndoRedoHistory
Layer: 1
Undoes
EndUndoes
Redoes
EndRedoes
EndUndoRedoHistory
Fore
SplineSet
319 578 m 1,0,1
 287 498 287 498 244 388.5 c 128,-1,2
 201 279 201 279 185 239 c 1,3,-1
 338 239 l 1,4,-1
 319 578 l 1,0,1
463 123 m 2,5,6
 469 51 469 51 502 30 c 1,7,8
 496 7 496 7 476.5 -6.5 c 128,-1,9
 457 -20 457 -20 431 -20 c 0,10,11
 410 -20 410 -20 395 -10.5 c 128,-1,12
 380 -1 380 -1 372 16 c 128,-1,13
 364 33 364 33 359.5 50.5 c 128,-1,14
 355 68 355 68 352 93 c 0,15,16
 346 139 346 139 344 168 c 1,17,-1
 157 168 l 1,18,19
 140 127 140 127 88 0 c 1,20,-1
 -27 0 l 1,21,-1
 271 660 l 1,22,-1
 417 660 l 1,23,-1
 463 123 l 2,5,6
EndSplineSet
Validated: 8388609
Substitution2: "Single Substitution lookup 21 subtable" ordfeminine
Substitution2: "'aalt' Access All Alternates lookup 0 subtable" ordfeminine
Position2: "'cpsp' Capital Spacing lookup 3 subtable" dx=5 dy=0 dh=10 dv=0
EndChar

StartChar: Aacute
Encoding: 193 193 2
Width: 535
Flags: MW
HStem: 168 71<185 338 185 344 157 338> 578 82<319 319> 640 20G<271 417 417 417>
VStem: -27 548
LayerCount: 2
UndoRedoHistory
Layer: 0
Undoes
EndUndoes
Redoes
EndRedoes
EndUndoRedoHistory
UndoRedoHistory
Layer: 1
Undoes
EndUndoes
Redoes
EndRedoes
EndUndoRedoHistory
Fore
SplineSet
319 578 m 1,0,1
 287 498 287 498 244 388.5 c 128,-1,2
 201 279 201 279 185 239 c 1,3,-1
 338 239 l 1,4,-1
 319 578 l 1,0,1
463 123 m 2,5,6
 469 51 469 51 502 30 c 1,7,8
 496 7 496 7 476.5 -6.5 c 128,-1,9
 457 -20 457 -20 431 -20 c 0,10,11
 410 -20 410 -20 395 -10.5 c 128,-1,12
 380 -1 380 -1 372 16 c 128,-1,13
 364 33 364 33 359.5 50.5 c 128,-1,14
 355 68 355 68 352 93 c 0,15,16
 346 139 346 139 344 168 c 1,17,-1
 157 168 l 1,18,19
 140 127 140 127 88 0 c 1,20,-1
 -27 0 l 1,21,-1
 271 660 l 1,22,-1
 417 660 l 1,23,-1
 463 123 l 2,5,6
265 756 m 1,24,-1
 499 845 l 1,25,26
 521 831 521 831 521 800 c 0,27,28
 521 780 521 780 512.5 765.5 c 128,-1,29
 504 751 504 751 491.5 743 c 128,-1,30
 479 735 479 735 460 729.5 c 128,-1,31
 441 724 441 724 425.5 722 c 128,-1,32
 410 720 410 720 388 719 c 2,33,-1
 273 713 l 1,34,-1
 265 756 l 1,24,-1
EndSplineSet
Validated: 8388609
Position2: "'cpsp' Capital Spacing lookup 3 subtable" dx=5 dy=0 dh=10 dv=0
EndChar

StartChar: Abreve
Encoding: 258 258 3
Width: 535
Flags: MW
HStem: 168 71<185 338 185 344 157 338> 578 82<319 319> 640 20G<271 417 417 417> 699 49<340 379 340 394>
VStem: 220 86<787 807 787 809>
LayerCount: 2
UndoRedoHistory
Layer: 0
Undoes
EndUndoes
Redoes
EndRedoes
EndUndoRedoHistory
UndoRedoHistory
Layer: 1
Undoes
EndUndoes
Redoes
EndRedoes
EndUndoRedoHistory
Fore
SplineSet
319 578 m 1,0,1
 287 498 287 498 244 388.5 c 128,-1,2
 201 279 201 279 185 239 c 1,3,-1
 338 239 l 1,4,-1
 319 578 l 1,0,1
463 123 m 2,5,6
 469 51 469 51 502 30 c 1,7,8
 496 7 496 7 476.5 -6.5 c 128,-1,9
 457 -20 457 -20 431 -20 c 0,10,11
 410 -20 410 -20 395 -10.5 c 128,-1,12
 380 -1 380 -1 372 16 c 128,-1,13
 364 33 364 33 359.5 50.5 c 128,-1,14
 355 68 355 68 352 93 c 0,15,16
 346 139 346 139 344 168 c 1,17,-1
 157 168 l 1,18,19
 140 127 140 127 88 0 c 1,20,-1
 -27 0 l 1,21,-1
 271 660 l 1,22,-1
 417 660 l 1,23,-1
 463 123 l 2,5,6
310 832 m 1,24,25
 306 813 306 813 306 803 c 0,26,27
 306 778 306 778 319 763 c 128,-1,28
 332 748 332 748 356 748 c 0,29,30
 388 748 388 748 412.5 774.5 c 128,-1,31
 437 801 437 801 443 832 c 1,32,-1
 523 832 l 1,33,34
 512 770 512 770 464.5 734.5 c 128,-1,35
 417 699 417 699 346 699 c 0,36,37
 284 699 284 699 252 726.5 c 128,-1,38
 220 754 220 754 220 804 c 0,39,40
 220 817 220 817 223 832 c 1,41,-1
 310 832 l 1,24,25
EndSplineSet
Validated: 8388609
Position2: "'cpsp' Capital Spacing lookup 3 subtable" dx=5 dy=0 dh=10 dv=0
EndChar

StartChar: Acircumflex
Encoding: 194 194 4
Width: 535
Flags: MW
HStem: 168 71<185 338 185 344 157 338> 578 82<319 319> 640 20G<271 417 417 417>
VStem: -27 529
LayerCount: 2
UndoRedoHistory
Layer: 0
Undoes
EndUndoes
Redoes
EndRedoes
EndUndoRedoHistory
UndoRedoHistory
Layer: 1
Undoes
EndUndoes
Redoes
EndRedoes
EndUndoRedoHistory
Fore
SplineSet
319 578 m 1,0,1
 287 498 287 498 244 388.5 c 128,-1,2
 201 279 201 279 185 239 c 1,3,-1
 338 239 l 1,4,-1
 319 578 l 1,0,1
463 123 m 2,5,6
 469 51 469 51 502 30 c 1,7,8
 496 7 496 7 476.5 -6.5 c 128,-1,9
 457 -20 457 -20 431 -20 c 0,10,11
 410 -20 410 -20 395 -10.5 c 128,-1,12
 380 -1 380 -1 372 16 c 128,-1,13
 364 33 364 33 359.5 50.5 c 128,-1,14
 355 68 355 68 352 93 c 0,15,16
 346 139 346 139 344 168 c 1,17,-1
 157 168 l 1,18,19
 140 127 140 127 88 0 c 1,20,-1
 -27 0 l 1,21,-1
 271 660 l 1,22,-1
 417 660 l 1,23,-1
 463 123 l 2,5,6
447 674 m 1,24,-1
 342 746 l 1,25,-1
 212 674 l 1,26,-1
 185 723 l 1,27,-1
 348 839 l 1,28,-1
 355 839 l 1,29,-1
 487 722 l 1,30,-1
 447 674 l 1,24,-1
EndSplineSet
Validated: 8388609
Position2: "'cpsp' Capital Spacing lookup 3 subtable" dx=5 dy=0 dh=10 dv=0
EndChar

StartChar: Adieresis
Encoding: 196 196 5
Width: 535
Flags: MW
HStem: 168 71<185 338 185 344 157 338> 578 82<319 319> 640 20G<271 417 417 417> 727 126<226 265 435 474>
VStem: 171 150<770 811> 380 150<770 811>
LayerCount: 2
UndoRedoHistory
Layer: 0
Undoes
EndUndoes
Redoes
EndRedoes
EndUndoRedoHistory
UndoRedoHistory
Layer: 1
Undoes
EndUndoes
Redoes
EndRedoes
EndUndoRedoHistory
Fore
SplineSet
319 578 m 1,0,1
 287 498 287 498 244 388.5 c 128,-1,2
 201 279 201 279 185 239 c 1,3,-1
 338 239 l 1,4,-1
 319 578 l 1,0,1
463 123 m 2,5,6
 469 51 469 51 502 30 c 1,7,8
 496 7 496 7 476.5 -6.5 c 128,-1,9
 457 -20 457 -20 431 -20 c 0,10,11
 410 -20 410 -20 395 -10.5 c 128,-1,12
 380 -1 380 -1 372 16 c 128,-1,13
 364 33 364 33 359.5 50.5 c 128,-1,14
 355 68 355 68 352 93 c 0,15,16
 346 139 346 139 344 168 c 1,17,-1
 157 168 l 1,18,19
 140 127 140 127 88 0 c 1,20,-1
 -27 0 l 1,21,-1
 271 660 l 1,22,-1
 417 660 l 1,23,-1
 463 123 l 2,5,6
456 853 m 0,24,25
 489 853 489 853 509.5 837 c 128,-1,26
 530 821 530 821 530 791 c 0,27,28
 530 760 530 760 508 743.5 c 128,-1,29
 486 727 486 727 453 727 c 0,30,31
 420 727 420 727 400 743 c 128,-1,32
 380 759 380 759 380 789 c 0,33,34
 380 820 380 820 401.5 836.5 c 128,-1,35
 423 853 423 853 456 853 c 0,24,25
247 853 m 0,36,37
 280 853 280 853 300.5 837 c 128,-1,38
 321 821 321 821 321 791 c 0,39,40
 321 760 321 760 299 743.5 c 128,-1,41
 277 727 277 727 244 727 c 0,42,43
 211 727 211 727 191 743 c 128,-1,44
 171 759 171 759 171 789 c 0,45,46
 171 820 171 820 192.5 836.5 c 128,-1,47
 214 853 214 853 247 853 c 0,36,37
EndSplineSet
Validated: 8388609
Position2: "'cpsp' Capital Spacing lookup 3 subtable" dx=5 dy=0 dh=10 dv=0
EndChar

StartChar: Agrave
Encoding: 192 192 6
Width: 535
Flags: MW
HStem: 168 71<185 338 185 344 157 338> 578 82<319 319> 640 20G<271 417 417 417>
VStem: -27 529
LayerCount: 2
UndoRedoHistory
Layer: 0
Undoes
EndUndoes
Redoes
EndRedoes
EndUndoRedoHistory
UndoRedoHistory
Layer: 1
Undoes
EndUndoes
Redoes
EndRedoes
EndUndoRedoHistory
Fore
SplineSet
319 578 m 1,0,1
 287 498 287 498 244 388.5 c 128,-1,2
 201 279 201 279 185 239 c 1,3,-1
 338 239 l 1,4,-1
 319 578 l 1,0,1
463 123 m 2,5,6
 469 51 469 51 502 30 c 1,7,8
 496 7 496 7 476.5 -6.5 c 128,-1,9
 457 -20 457 -20 431 -20 c 0,10,11
 410 -20 410 -20 395 -10.5 c 128,-1,12
 380 -1 380 -1 372 16 c 128,-1,13
 364 33 364 33 359.5 50.5 c 128,-1,14
 355 68 355 68 352 93 c 0,15,16
 346 139 346 139 344 168 c 1,17,-1
 157 168 l 1,18,19
 140 127 140 127 88 0 c 1,20,-1
 -27 0 l 1,21,-1
 271 660 l 1,22,-1
 417 660 l 1,23,-1
 463 123 l 2,5,6
424 713 m 1,24,-1
 309 719 l 2,25,26
 288 720 288 720 272 722 c 128,-1,27
 256 724 256 724 236.5 729.5 c 128,-1,28
 217 735 217 735 205 743 c 128,-1,29
 193 751 193 751 184.5 765.5 c 128,-1,30
 176 780 176 780 176 800 c 0,31,32
 176 831 176 831 198 845 c 1,33,-1
 432 756 l 1,34,-1
 424 713 l 1,24,-1
EndSplineSet
Validated: 8388609
Position2: "'cpsp' Capital Spacing lookup 3 subtable" dx=5 dy=0 dh=10 dv=0
EndChar

StartChar: Amacron
Encoding: 256 256 7
Width: 535
Flags: MW
HStem: 168 71<185 338 185 344 157 338> 578 82<319 319> 640 20G<271 417 417 417> 734 82<269 421 210 486>
VStem: -27 529
LayerCount: 2
UndoRedoHistory
Layer: 0
Undoes
EndUndoes
Redoes
EndRedoes
EndUndoRedoHistory
UndoRedoHistory
Layer: 1
Undoes
EndUndoes
Redoes
EndRedoes
EndUndoRedoHistory
Fore
SplineSet
319 578 m 1,0,1
 287 498 287 498 244 388.5 c 128,-1,2
 201 279 201 279 185 239 c 1,3,-1
 338 239 l 1,4,-1
 319 578 l 1,0,1
463 123 m 2,5,6
 469 51 469 51 502 30 c 1,7,8
 496 7 496 7 476.5 -6.5 c 128,-1,9
 457 -20 457 -20 431 -20 c 0,10,11
 410 -20 410 -20 395 -10.5 c 128,-1,12
 380 -1 380 -1 372 16 c 128,-1,13
 364 33 364 33 359.5 50.5 c 128,-1,14
 355 68 355 68 352 93 c 0,15,16
 346 139 346 139 344 168 c 1,17,-1
 157 168 l 1,18,19
 140 127 140 127 88 0 c 1,20,-1
 -27 0 l 1,21,-1
 271 660 l 1,22,-1
 417 660 l 1,23,-1
 463 123 l 2,5,6
486 816 m 1,24,25
 489 806 489 806 489 792 c 0,26,27
 489 766 489 766 471.5 750 c 128,-1,28
 454 734 454 734 421 734 c 2,29,-1
 210 734 l 1,30,31
 208 742 208 742 208 758 c 0,32,33
 208 785 208 785 225 800.5 c 128,-1,34
 242 816 242 816 269 816 c 2,35,-1
 486 816 l 1,24,25
EndSplineSet
Validated: 8388609
Position2: "'cpsp' Capital Spacing lookup 3 subtable" dx=5 dy=0 dh=10 dv=0
EndChar

StartChar: Aogonek
Encoding: 260 260 8
Width: 535
Flags: MW
HStem: -258 62<441 471> -35 20G 10 7<497 500> 168 71<185 338 185 344 157 338> 578 82<319 319> 640 20G<271 417 417 417>
VStem: 331 73<-157 -122>
LayerCount: 2
UndoRedoHistory
Layer: 0
Undoes
EndUndoes
Redoes
EndRedoes
EndUndoRedoHistory
UndoRedoHistory
Layer: 1
Undoes
EndUndoes
Redoes
EndRedoes
EndUndoRedoHistory
Fore
SplineSet
338 239 m 1,0,-1
 319 578 l 1,1,2
 287 498 287 498 244 388.5 c 128,-1,3
 201 279 201 279 185 239 c 1,4,-1
 338 239 l 1,0,-1
500 10 m 1,5,-1
 485 1 l 1,6,7
 477 -7 477 -7 472 -10 c 0,8,9
 440 -35 440 -35 422 -69 c 128,-1,10
 404 -103 404 -103 404 -137 c 0,11,12
 404 -168 404 -168 417.5 -182 c 128,-1,13
 431 -196 431 -196 463 -196 c 0,14,15
 499 -196 499 -196 515 -171 c 1,16,17
 531 -183 531 -183 531 -200 c 0,18,19
 531 -224 531 -224 507 -241 c 128,-1,20
 483 -258 483 -258 446 -258 c 0,21,22
 394 -258 394 -258 362.5 -229.5 c 128,-1,23
 331 -201 331 -201 331 -150 c 0,24,25
 331 -109 331 -109 351 -74.5 c 128,-1,26
 371 -40 371 -40 403 -15 c 1,27,28
 379 -4 379 -4 368 23.5 c 128,-1,29
 357 51 357 51 352 93 c 0,30,31
 346 139 346 139 344 168 c 1,32,-1
 157 168 l 1,33,34
 140 127 140 127 88 0 c 1,35,-1
 -27 0 l 1,36,-1
 271 660 l 1,37,-1
 417 660 l 1,38,-1
 463 123 l 2,39,40
 469 51 469 51 502 30 c 1,41,42
 501 24 501 24 497 17 c 1,43,-1
 500 17 l 1,44,-1
 500 10 l 1,5,-1
EndSplineSet
Validated: 8388609
Position2: "'cpsp' Capital Spacing lookup 3 subtable" dx=5 dy=0 dh=10 dv=0
EndChar

StartChar: Aring
Encoding: 197 197 9
Width: 535
Flags: MW
HStem: 168 71<185 338 185 344 157 338> 578 82<319 319> 640 20G<271 417 417 417> 690 32<333 358 333 369> 820 35<347 372>
VStem: 253 58<747 775 747 789> 398 60<767 795>
LayerCount: 2
UndoRedoHistory
Layer: 0
Undoes
EndUndoes
Redoes
EndRedoes
EndUndoRedoHistory
UndoRedoHistory
Layer: 1
Undoes
EndUndoes
Redoes
EndRedoes
EndUndoRedoHistory
Fore
SplineSet
319 578 m 1,0,1
 287 498 287 498 244 388.5 c 128,-1,2
 201 279 201 279 185 239 c 1,3,-1
 338 239 l 1,4,-1
 319 578 l 1,0,1
463 123 m 2,5,6
 469 51 469 51 502 30 c 1,7,8
 496 7 496 7 476.5 -6.5 c 128,-1,9
 457 -20 457 -20 431 -20 c 0,10,11
 410 -20 410 -20 395 -10.5 c 128,-1,12
 380 -1 380 -1 372 16 c 128,-1,13
 364 33 364 33 359.5 50.5 c 128,-1,14
 355 68 355 68 352 93 c 0,15,16
 346 139 346 139 344 168 c 1,17,-1
 157 168 l 1,18,19
 140 127 140 127 88 0 c 1,20,-1
 -27 0 l 1,21,-1
 271 660 l 1,22,-1
 417 660 l 1,23,-1
 463 123 l 2,5,6
398 784 m 0,24,25
 398 801 398 801 388 810.5 c 128,-1,26
 378 820 378 820 359 820 c 128,-1,27
 340 820 340 820 325.5 801.5 c 128,-1,28
 311 783 311 783 311 757 c 0,29,30
 311 722 311 722 346 722 c 0,31,32
 366 722 366 722 382 740.5 c 128,-1,33
 398 759 398 759 398 784 c 0,24,25
458 787 m 0,34,35
 458 744 458 744 422 717 c 128,-1,36
 386 690 386 690 340 690 c 0,37,38
 299 690 299 690 276 707.5 c 128,-1,39
 253 725 253 725 253 758 c 0,40,41
 253 801 253 801 288 828 c 128,-1,42
 323 855 323 855 369 855 c 0,43,44
 410 855 410 855 434 837 c 128,-1,45
 458 819 458 819 458 787 c 0,34,35
EndSplineSet
Validated: 8388609
Position2: "'cpsp' Capital Spacing lookup 3 subtable" dx=5 dy=0 dh=10 dv=0
EndChar

StartChar: Aringacute
Encoding: 506 506 10
Width: 535
Flags: MW
HStem: 168 71<185 338 185 344 157 338> 640 20G<336 361> 758 35<350 375>
VStem: 256 58<688 713 685 727> 401 60<708 733>
LayerCount: 2
UndoRedoHistory
Layer: 0
Undoes
EndUndoes
Redoes
EndRedoes
EndUndoRedoHistory
UndoRedoHistory
Layer: 1
Undoes
EndUndoes
Redoes
EndRedoes
EndUndoRedoHistory
Fore
SplineSet
338 239 m 1,0,-1
 319 578 l 1,1,2
 287 498 287 498 244 388.5 c 128,-1,3
 201 279 201 279 185 239 c 1,4,-1
 338 239 l 1,0,-1
362 758 m 128,-1,6
 343 758 343 758 328.5 739.5 c 128,-1,7
 314 721 314 721 314 695 c 0,8,9
 314 660 314 660 349 660 c 0,10,11
 369 660 369 660 385 678.5 c 128,-1,12
 401 697 401 697 401 722 c 0,13,14
 401 739 401 739 391 748.5 c 128,-1,5
 381 758 381 758 362 758 c 128,-1,6
463 123 m 2,15,16
 469 51 469 51 502 30 c 1,17,18
 496 7 496 7 476.5 -6.5 c 128,-1,19
 457 -20 457 -20 431 -20 c 0,20,21
 410 -20 410 -20 395 -10.5 c 128,-1,22
 380 -1 380 -1 372 16 c 128,-1,23
 364 33 364 33 359.5 50.5 c 128,-1,24
 355 68 355 68 352 93 c 0,25,26
 346 139 346 139 344 168 c 1,27,-1
 157 168 l 1,28,29
 140 127 140 127 88 0 c 1,30,-1
 -27 0 l 1,31,-1
 269 656 l 1,32,33
 256 673 256 673 256 696 c 0,34,35
 256 739 256 739 291 766 c 128,-1,36
 326 793 326 793 372 793 c 0,37,38
 413 793 413 793 437 775 c 128,-1,39
 461 757 461 757 461 725 c 0,40,41
 461 678 461 678 418 650 c 1,42,-1
 463 123 l 2,15,16
529 928 m 1,43,44
 551 914 551 914 551 883 c 0,45,46
 551 863 551 863 542.5 848.5 c 128,-1,47
 534 834 534 834 521.5 825.5 c 128,-1,48
 509 817 509 817 490 812 c 128,-1,49
 471 807 471 807 455 805 c 128,-1,50
 439 803 439 803 418 802 c 2,51,-1
 303 796 l 1,52,-1
 295 839 l 1,53,-1
 529 928 l 1,43,44
EndSplineSet
Validated: 1
Position2: "'cpsp' Capital Spacing lookup 3 subtable" dx=5 dy=0 dh=10 dv=0
EndChar

StartChar: Atilde
Encoding: 195 195 11
Width: 535
Flags: MW
HStem: 168 71<185 338 185 344 157 338> 578 82<319 319> 640 20G<271 417 417 417> 725 85<427 460 427 461> 741 85<259 292>
VStem: -27 542
LayerCount: 2
UndoRedoHistory
Layer: 0
Undoes
EndUndoes
Redoes
EndRedoes
EndUndoRedoHistory
UndoRedoHistory
Layer: 1
Undoes
EndUndoes
Redoes
EndRedoes
EndUndoRedoHistory
Fore
SplineSet
319 578 m 1,0,1
 287 498 287 498 244 388.5 c 128,-1,2
 201 279 201 279 185 239 c 1,3,-1
 338 239 l 1,4,-1
 319 578 l 1,0,1
463 123 m 2,5,6
 469 51 469 51 502 30 c 1,7,8
 496 7 496 7 476.5 -6.5 c 128,-1,9
 457 -20 457 -20 431 -20 c 0,10,11
 410 -20 410 -20 395 -10.5 c 128,-1,12
 380 -1 380 -1 372 16 c 128,-1,13
 364 33 364 33 359.5 50.5 c 128,-1,14
 355 68 355 68 352 93 c 0,15,16
 346 139 346 139 344 168 c 1,17,-1
 157 168 l 1,18,19
 140 127 140 127 88 0 c 1,20,-1
 -27 0 l 1,21,-1
 271 660 l 1,22,-1
 417 660 l 1,23,-1
 463 123 l 2,5,6
499 826 m 1,24,25
 515 807 515 807 515 785 c 0,26,27
 515 756 515 756 494 740.5 c 128,-1,28
 473 725 473 725 438 725 c 0,29,30
 417 725 417 725 354.5 733 c 128,-1,31
 292 741 292 741 272 741 c 0,32,33
 235 741 235 741 216 726 c 1,34,35
 199 750 199 750 199 772 c 0,36,37
 199 798 199 798 220 812 c 128,-1,38
 241 826 241 826 279 826 c 0,39,40
 302 826 302 826 365 818 c 128,-1,41
 428 810 428 810 449 810 c 0,42,43
 487 810 487 810 499 826 c 1,24,25
EndSplineSet
Validated: 8388609
Position2: "'cpsp' Capital Spacing lookup 3 subtable" dx=5 dy=0 dh=10 dv=0
EndChar

StartChar: AE
Encoding: 198 198 12
Width: 668
Flags: MW
HStem: -20 87<467 480> 177 77<134 299 173 288> 295 82<486 531> 565 95<549 601> 592 68<434 434>
VStem: 285 112<124 132>
LayerCount: 2
UndoRedoHistory
Layer: 0
Undoes
EndUndoes
Redoes
EndRedoes
EndUndoRedoHistory
UndoRedoHistory
Layer: 1
Undoes
EndUndoes
Redoes
EndRedoes
EndUndoRedoHistory
Fore
SplineSet
299 254 m 1,0,1
 304 305 304 305 317 418.5 c 128,-1,2
 330 532 330 532 334 569 c 1,3,-1
 173 254 l 1,4,-1
 299 254 l 1,0,1
134 177 m 1,5,6
 90 88 l 1,7,-1
 45 0 l 1,8,-1
 -71 0 l 1,9,-1
 287 660 l 1,10,-1
 677 660 l 1,11,12
 677 613 677 613 647.5 589 c 128,-1,13
 618 565 618 565 569 565 c 0,14,15
 539 565 539 565 500.5 573 c 128,-1,16
 462 581 462 581 434 592 c 1,17,-1
 415 377 l 1,18,-1
 600 377 l 1,19,20
 600 295 600 295 503 295 c 0,21,22
 451 295 451 295 409 314 c 1,23,24
 397 185 397 185 397 160 c 0,25,26
 397 109 397 109 423 88 c 128,-1,27
 449 67 449 67 499 67 c 0,28,29
 543 67 543 67 583 81 c 1,30,31
 589 69 589 69 589 52 c 0,32,33
 589 31 589 31 575.5 16.5 c 128,-1,34
 562 2 562 2 541 -5.5 c 128,-1,35
 520 -13 520 -13 498 -16.5 c 128,-1,36
 476 -20 476 -20 452 -20 c 0,37,38
 374 -20 374 -20 329.5 17.5 c 128,-1,39
 285 55 285 55 285 126 c 0,40,41
 285 152 285 152 288 177 c 1,42,-1
 134 177 l 1,5,6
EndSplineSet
Validated: 8388609
Position2: "'cpsp' Capital Spacing lookup 3 subtable" dx=5 dy=0 dh=10 dv=0
EndChar

StartChar: AEacute
Encoding: 508 508 13
Width: 668
Flags: MW
HStem: -20 87<467 480> 177 77<134 299 173 288> 295 82<486 531> 565 95<549 601> 592 68<434 434>
VStem: 285 112<124 132>
LayerCount: 2
UndoRedoHistory
Layer: 0
Undoes
EndUndoes
Redoes
EndRedoes
EndUndoRedoHistory
UndoRedoHistory
Layer: 1
Undoes
EndUndoes
Redoes
EndRedoes
EndUndoRedoHistory
Fore
SplineSet
299 254 m 1,0,1
 304 305 304 305 317 418.5 c 128,-1,2
 330 532 330 532 334 569 c 1,3,-1
 173 254 l 1,4,-1
 299 254 l 1,0,1
134 177 m 1,5,6
 90 88 l 1,7,-1
 45 0 l 1,8,-1
 -71 0 l 1,9,-1
 287 660 l 1,10,-1
 677 660 l 1,11,12
 677 613 677 613 647.5 589 c 128,-1,13
 618 565 618 565 569 565 c 0,14,15
 539 565 539 565 500.5 573 c 128,-1,16
 462 581 462 581 434 592 c 1,17,-1
 415 377 l 1,18,-1
 600 377 l 1,19,20
 600 295 600 295 503 295 c 0,21,22
 451 295 451 295 409 314 c 1,23,24
 397 185 397 185 397 160 c 0,25,26
 397 109 397 109 423 88 c 128,-1,27
 449 67 449 67 499 67 c 0,28,29
 543 67 543 67 583 81 c 1,30,31
 589 69 589 69 589 52 c 0,32,33
 589 31 589 31 575.5 16.5 c 128,-1,34
 562 2 562 2 541 -5.5 c 128,-1,35
 520 -13 520 -13 498 -16.5 c 128,-1,36
 476 -20 476 -20 452 -20 c 0,37,38
 374 -20 374 -20 329.5 17.5 c 128,-1,39
 285 55 285 55 285 126 c 0,40,41
 285 152 285 152 288 177 c 1,42,-1
 134 177 l 1,5,6
321 756 m 1,43,-1
 555 845 l 1,44,45
 577 831 577 831 577 800 c 0,46,47
 577 780 577 780 568.5 765.5 c 128,-1,48
 560 751 560 751 548 743 c 128,-1,49
 536 735 536 735 516.5 729.5 c 128,-1,50
 497 724 497 724 481 722 c 128,-1,51
 465 720 465 720 444 719 c 2,52,-1
 329 713 l 1,53,-1
 321 756 l 1,43,-1
EndSplineSet
Validated: 8388609
Position2: "'cpsp' Capital Spacing lookup 3 subtable" dx=5 dy=0 dh=10 dv=0
EndChar

StartChar: B
Encoding: 66 66 14
Width: 545
Flags: MW
HStem: -20 20G<23 23> -9 69<208 271 208 278> 317 68<201 304> 603 66<300 340>
VStem: 386 126<164 261 149 262> 395 125<495 548>
LayerCount: 2
UndoRedoHistory
Layer: 0
Undoes
EndUndoes
Redoes
EndRedoes
EndUndoRedoHistory
UndoRedoHistory
Layer: 1
Undoes
EndUndoes
Redoes
EndRedoes
EndUndoRedoHistory
Fore
SplineSet
152 67 m 1,0,1
 184 60 184 60 220 60 c 0,2,3
 296 60 296 60 341 100.5 c 128,-1,4
 386 141 386 141 386 210 c 0,5,6
 386 229 386 229 382.5 244.5 c 128,-1,7
 379 260 379 260 371.5 271 c 128,-1,8
 364 282 364 282 356 289.5 c 128,-1,9
 348 297 348 297 333.5 302.5 c 128,-1,10
 319 308 319 308 306.5 310.5 c 128,-1,11
 294 313 294 313 274 314.5 c 128,-1,12
 254 316 254 316 239.5 316.5 c 128,-1,13
 225 317 225 317 201 317 c 1,14,-1
 152 67 l 1,0,1
215 388 m 1,15,16
 240 385 240 385 261 385 c 0,17,18
 324 385 324 385 359.5 421 c 128,-1,19
 395 457 395 457 395 519 c 0,20,21
 395 563 395 563 375 583 c 128,-1,22
 355 603 355 603 311 603 c 0,23,24
 286 603 286 603 256 596 c 1,25,-1
 215 388 l 1,15,16
149 660 m 1,26,27
 243 669 243 669 318 669 c 0,28,29
 347 669 347 669 370.5 667 c 128,-1,30
 394 665 394 665 418 660 c 128,-1,31
 442 655 442 655 459.5 645 c 128,-1,32
 477 635 477 635 491 620.5 c 128,-1,33
 505 606 505 606 512.5 584 c 128,-1,34
 520 562 520 562 520 534 c 0,35,36
 520 424 520 424 410 369 c 1,37,38
 512 338 512 338 512 227 c 0,39,40
 512 182 512 182 495.5 143 c 128,-1,41
 479 104 479 104 449 76.5 c 128,-1,42
 419 49 419 49 378.5 29.5 c 128,-1,43
 338 10 338 10 291 0.5 c 128,-1,44
 244 -9 244 -9 192 -9 c 0,45,46
 126 -9 126 -9 23 0 c 1,47,-1
 149 660 l 1,26,27
EndSplineSet
Validated: 8388609
Position2: "'cpsp' Capital Spacing lookup 3 subtable" dx=5 dy=0 dh=10 dv=0
EndChar

StartChar: C
Encoding: 67 67 15
Width: 511
Flags: MW
HStem: -20 97<219 284> 609 71<276 366>
VStem: 27 126<188 297 188 326> 411 123<529 560>
LayerCount: 2
UndoRedoHistory
Layer: 0
Undoes
EndUndoes
Redoes
EndRedoes
EndUndoRedoHistory
UndoRedoHistory
Layer: 1
Undoes
EndUndoes
Redoes
EndRedoes
EndUndoRedoHistory
Fore
SplineSet
369 680 m 0,0,1
 444 680 444 680 489 645 c 128,-1,2
 534 610 534 610 534 548 c 0,3,4
 534 501 534 501 509 475 c 128,-1,5
 484 449 484 449 446 449 c 0,6,7
 411 449 411 449 397 465 c 1,8,9
 411 505 411 505 411 539 c 0,10,11
 411 571 411 571 393.5 590 c 128,-1,12
 376 609 376 609 343 609 c 0,13,14
 305 609 305 609 272.5 582.5 c 128,-1,15
 240 556 240 556 218.5 514.5 c 128,-1,16
 197 473 197 473 182 421.5 c 128,-1,17
 167 370 167 370 160 321.5 c 128,-1,18
 153 273 153 273 153 231 c 0,19,20
 153 77 153 77 262 77 c 0,21,22
 314 77 314 77 350.5 107.5 c 128,-1,23
 387 138 387 138 417 192 c 1,24,25
 434 183 434 183 441.5 170.5 c 128,-1,26
 449 158 449 158 449 137 c 0,27,28
 449 92 449 92 417 55.5 c 128,-1,29
 385 19 385 19 334.5 -0.5 c 128,-1,30
 284 -20 284 -20 228 -20 c 0,31,32
 130 -20 130 -20 78.5 42 c 128,-1,33
 27 104 27 104 27 224 c 0,34,35
 27 276 27 276 36.5 328.5 c 128,-1,36
 46 381 46 381 64.5 432.5 c 128,-1,37
 83 484 83 484 112 528.5 c 128,-1,38
 141 573 141 573 178 607 c 128,-1,39
 215 641 215 641 264 660.5 c 128,-1,40
 313 680 313 680 369 680 c 0,0,1
EndSplineSet
Validated: 1
Position2: "'cpsp' Capital Spacing lookup 3 subtable" dx=5 dy=0 dh=10 dv=0
EndChar

StartChar: Cacute
Encoding: 262 262 16
Width: 511
Flags: MW
HStem: -20 97<219 284> 609 71<276 366>
VStem: 27 126<188 297 188 326> 411 123<529 560>
LayerCount: 2
UndoRedoHistory
Layer: 0
Undoes
EndUndoes
Redoes
EndRedoes
EndUndoRedoHistory
UndoRedoHistory
Layer: 1
Undoes
EndUndoes
Redoes
EndRedoes
EndUndoRedoHistory
Fore
SplineSet
369 680 m 0,0,1
 444 680 444 680 489 645 c 128,-1,2
 534 610 534 610 534 548 c 0,3,4
 534 501 534 501 509 475 c 128,-1,5
 484 449 484 449 446 449 c 0,6,7
 411 449 411 449 397 465 c 1,8,9
 411 505 411 505 411 539 c 0,10,11
 411 571 411 571 393.5 590 c 128,-1,12
 376 609 376 609 343 609 c 0,13,14
 305 609 305 609 272.5 582.5 c 128,-1,15
 240 556 240 556 218.5 514.5 c 128,-1,16
 197 473 197 473 182 421.5 c 128,-1,17
 167 370 167 370 160 321.5 c 128,-1,18
 153 273 153 273 153 231 c 0,19,20
 153 77 153 77 262 77 c 0,21,22
 314 77 314 77 350.5 107.5 c 128,-1,23
 387 138 387 138 417 192 c 1,24,25
 434 183 434 183 441.5 170.5 c 128,-1,26
 449 158 449 158 449 137 c 0,27,28
 449 92 449 92 417 55.5 c 128,-1,29
 385 19 385 19 334.5 -0.5 c 128,-1,30
 284 -20 284 -20 228 -20 c 0,31,32
 130 -20 130 -20 78.5 42 c 128,-1,33
 27 104 27 104 27 224 c 0,34,35
 27 276 27 276 36.5 328.5 c 128,-1,36
 46 381 46 381 64.5 432.5 c 128,-1,37
 83 484 83 484 112 528.5 c 128,-1,38
 141 573 141 573 178 607 c 128,-1,39
 215 641 215 641 264 660.5 c 128,-1,40
 313 680 313 680 369 680 c 0,0,1
291 756 m 1,41,-1
 525 845 l 1,42,43
 547 831 547 831 547 800 c 0,44,45
 547 780 547 780 538.5 765.5 c 128,-1,46
 530 751 530 751 517.5 743 c 128,-1,47
 505 735 505 735 486 729.5 c 128,-1,48
 467 724 467 724 451.5 722 c 128,-1,49
 436 720 436 720 414 719 c 2,50,-1
 299 713 l 1,51,-1
 291 756 l 1,41,-1
EndSplineSet
Validated: 1
Substitution2: "'locl' Localized Forms in Latin lookup 13 subtable" Cacute.loclPLK
Substitution2: "'aalt' Access All Alternates lookup 0 subtable" Cacute.loclPLK
Position2: "'cpsp' Capital Spacing lookup 3 subtable" dx=5 dy=0 dh=10 dv=0
EndChar

StartChar: Ccaron
Encoding: 268 268 17
Width: 511
Flags: MW
HStem: -20 97<219 284> 609 71<276 366>
VStem: 27 126<188 297 188 326> 411 123<529 560>
LayerCount: 2
UndoRedoHistory
Layer: 0
Undoes
EndUndoes
Redoes
EndRedoes
EndUndoRedoHistory
UndoRedoHistory
Layer: 1
Undoes
EndUndoes
Redoes
EndRedoes
EndUndoRedoHistory
Fore
SplineSet
369 680 m 0,0,1
 444 680 444 680 489 645 c 128,-1,2
 534 610 534 610 534 548 c 0,3,4
 534 501 534 501 509 475 c 128,-1,5
 484 449 484 449 446 449 c 0,6,7
 411 449 411 449 397 465 c 1,8,9
 411 505 411 505 411 539 c 0,10,11
 411 571 411 571 393.5 590 c 128,-1,12
 376 609 376 609 343 609 c 0,13,14
 305 609 305 609 272.5 582.5 c 128,-1,15
 240 556 240 556 218.5 514.5 c 128,-1,16
 197 473 197 473 182 421.5 c 128,-1,17
 167 370 167 370 160 321.5 c 128,-1,18
 153 273 153 273 153 231 c 0,19,20
 153 77 153 77 262 77 c 0,21,22
 314 77 314 77 350.5 107.5 c 128,-1,23
 387 138 387 138 417 192 c 1,24,25
 434 183 434 183 441.5 170.5 c 128,-1,26
 449 158 449 158 449 137 c 0,27,28
 449 92 449 92 417 55.5 c 128,-1,29
 385 19 385 19 334.5 -0.5 c 128,-1,30
 284 -20 284 -20 228 -20 c 0,31,32
 130 -20 130 -20 78.5 42 c 128,-1,33
 27 104 27 104 27 224 c 0,34,35
 27 276 27 276 36.5 328.5 c 128,-1,36
 46 381 46 381 64.5 432.5 c 128,-1,37
 83 484 83 484 112 528.5 c 128,-1,38
 141 573 141 573 178 607 c 128,-1,39
 215 641 215 641 264 660.5 c 128,-1,40
 313 680 313 680 369 680 c 0,0,1
278 837 m 1,41,-1
 382 785 l 1,42,-1
 512 837 l 1,43,-1
 539 798 l 1,44,-1
 376 692 l 1,45,-1
 370 692 l 1,46,-1
 238 799 l 1,47,-1
 278 837 l 1,41,-1
EndSplineSet
Validated: 1
Position2: "'cpsp' Capital Spacing lookup 3 subtable" dx=5 dy=0 dh=10 dv=0
EndChar

StartChar: Ccedilla
Encoding: 199 199 18
Width: 511
Flags: MW
HStem: -253 53<217 248 217 282> -111 47<221 318> -20 97<218 299> 609 71<276 366>
VStem: 27 126<188 297> 306 83<-171 -136> 411 123<529 560>
LayerCount: 2
UndoRedoHistory
Layer: 0
Undoes
EndUndoes
Redoes
EndRedoes
EndUndoRedoHistory
UndoRedoHistory
Layer: 1
Undoes
EndUndoes
Redoes
EndRedoes
EndUndoRedoHistory
Fore
SplineSet
218 -20 m 1,0,1
 125 -16 125 -16 76 46 c 128,-1,2
 27 108 27 108 27 224 c 0,3,4
 27 276 27 276 36.5 328.5 c 128,-1,5
 46 381 46 381 64.5 432.5 c 128,-1,6
 83 484 83 484 112 528.5 c 128,-1,7
 141 573 141 573 178 607 c 128,-1,8
 215 641 215 641 264 660.5 c 128,-1,9
 313 680 313 680 369 680 c 0,10,11
 444 680 444 680 489 645 c 128,-1,12
 534 610 534 610 534 548 c 0,13,14
 534 501 534 501 509 475 c 128,-1,15
 484 449 484 449 446 449 c 0,16,17
 411 449 411 449 397 465 c 1,18,19
 411 505 411 505 411 539 c 0,20,21
 411 571 411 571 393.5 590 c 128,-1,22
 376 609 376 609 343 609 c 0,23,24
 305 609 305 609 272.5 582.5 c 128,-1,25
 240 556 240 556 218.5 514.5 c 128,-1,26
 197 473 197 473 182 421.5 c 128,-1,27
 167 370 167 370 160 321.5 c 128,-1,28
 153 273 153 273 153 231 c 0,29,30
 153 77 153 77 262 77 c 0,31,32
 314 77 314 77 350.5 107.5 c 128,-1,33
 387 138 387 138 417 192 c 1,34,35
 434 183 434 183 441.5 170.5 c 128,-1,36
 449 158 449 158 449 137 c 0,37,38
 449 77 449 77 395.5 34.5 c 128,-1,39
 342 -8 342 -8 265 -18 c 1,40,-1
 251 -66 l 1,41,42
 271 -64 271 -64 291 -64 c 0,43,44
 335 -64 335 -64 362 -83 c 128,-1,45
 389 -102 389 -102 389 -140 c 0,46,47
 389 -189 389 -189 346 -221 c 128,-1,48
 303 -253 303 -253 239 -253 c 0,49,50
 200 -253 200 -253 176.5 -240.5 c 128,-1,51
 153 -228 153 -228 153 -205 c 0,52,53
 153 -183 153 -183 169 -172 c 1,54,55
 187 -200 187 -200 232 -200 c 0,56,57
 262 -200 262 -200 284 -189 c 128,-1,58
 306 -178 306 -178 306 -152 c 0,59,60
 306 -111 306 -111 227 -111 c 0,61,62
 216 -111 216 -111 190 -113 c 1,63,-1
 218 -20 l 1,0,1
EndSplineSet
Validated: 1
Position2: "'cpsp' Capital Spacing lookup 3 subtable" dx=5 dy=0 dh=10 dv=0
EndChar

StartChar: Ccircumflex
Encoding: 264 264 19
Width: 511
Flags: MW
HStem: -20 97<219 284> 609 71<276 366>
VStem: 27 126<188 297 188 326> 411 123<529 560>
LayerCount: 2
UndoRedoHistory
Layer: 0
Undoes
EndUndoes
Redoes
EndRedoes
EndUndoRedoHistory
UndoRedoHistory
Layer: 1
Undoes
EndUndoes
Redoes
EndRedoes
EndUndoRedoHistory
Fore
SplineSet
369 680 m 0,0,1
 444 680 444 680 489 645 c 128,-1,2
 534 610 534 610 534 548 c 0,3,4
 534 501 534 501 509 475 c 128,-1,5
 484 449 484 449 446 449 c 0,6,7
 411 449 411 449 397 465 c 1,8,9
 411 505 411 505 411 539 c 0,10,11
 411 571 411 571 393.5 590 c 128,-1,12
 376 609 376 609 343 609 c 0,13,14
 305 609 305 609 272.5 582.5 c 128,-1,15
 240 556 240 556 218.5 514.5 c 128,-1,16
 197 473 197 473 182 421.5 c 128,-1,17
 167 370 167 370 160 321.5 c 128,-1,18
 153 273 153 273 153 231 c 0,19,20
 153 77 153 77 262 77 c 0,21,22
 314 77 314 77 350.5 107.5 c 128,-1,23
 387 138 387 138 417 192 c 1,24,25
 434 183 434 183 441.5 170.5 c 128,-1,26
 449 158 449 158 449 137 c 0,27,28
 449 92 449 92 417 55.5 c 128,-1,29
 385 19 385 19 334.5 -0.5 c 128,-1,30
 284 -20 284 -20 228 -20 c 0,31,32
 130 -20 130 -20 78.5 42 c 128,-1,33
 27 104 27 104 27 224 c 0,34,35
 27 276 27 276 36.5 328.5 c 128,-1,36
 46 381 46 381 64.5 432.5 c 128,-1,37
 83 484 83 484 112 528.5 c 128,-1,38
 141 573 141 573 178 607 c 128,-1,39
 215 641 215 641 264 660.5 c 128,-1,40
 313 680 313 680 369 680 c 0,0,1
473 674 m 1,41,-1
 368 746 l 1,42,-1
 238 674 l 1,43,-1
 211 723 l 1,44,-1
 374 839 l 1,45,-1
 381 839 l 1,46,-1
 513 722 l 1,47,-1
 473 674 l 1,41,-1
EndSplineSet
Validated: 1
Position2: "'cpsp' Capital Spacing lookup 3 subtable" dx=5 dy=0 dh=10 dv=0
EndChar

StartChar: Cdotaccent
Encoding: 266 266 20
Width: 511
Flags: MW
HStem: -20 97<219 284> 609 71<276 366> 727 126<353 392>
VStem: 27 126<188 297 188 326> 298 150<770 811> 411 123<529 560>
LayerCount: 2
UndoRedoHistory
Layer: 0
Undoes
EndUndoes
Redoes
EndRedoes
EndUndoRedoHistory
UndoRedoHistory
Layer: 1
Undoes
EndUndoes
Redoes
EndRedoes
EndUndoRedoHistory
Fore
SplineSet
369 680 m 0,0,1
 444 680 444 680 489 645 c 128,-1,2
 534 610 534 610 534 548 c 0,3,4
 534 501 534 501 509 475 c 128,-1,5
 484 449 484 449 446 449 c 0,6,7
 411 449 411 449 397 465 c 1,8,9
 411 505 411 505 411 539 c 0,10,11
 411 571 411 571 393.5 590 c 128,-1,12
 376 609 376 609 343 609 c 0,13,14
 305 609 305 609 272.5 582.5 c 128,-1,15
 240 556 240 556 218.5 514.5 c 128,-1,16
 197 473 197 473 182 421.5 c 128,-1,17
 167 370 167 370 160 321.5 c 128,-1,18
 153 273 153 273 153 231 c 0,19,20
 153 77 153 77 262 77 c 0,21,22
 314 77 314 77 350.5 107.5 c 128,-1,23
 387 138 387 138 417 192 c 1,24,25
 434 183 434 183 441.5 170.5 c 128,-1,26
 449 158 449 158 449 137 c 0,27,28
 449 92 449 92 417 55.5 c 128,-1,29
 385 19 385 19 334.5 -0.5 c 128,-1,30
 284 -20 284 -20 228 -20 c 0,31,32
 130 -20 130 -20 78.5 42 c 128,-1,33
 27 104 27 104 27 224 c 0,34,35
 27 276 27 276 36.5 328.5 c 128,-1,36
 46 381 46 381 64.5 432.5 c 128,-1,37
 83 484 83 484 112 528.5 c 128,-1,38
 141 573 141 573 178 607 c 128,-1,39
 215 641 215 641 264 660.5 c 128,-1,40
 313 680 313 680 369 680 c 0,0,1
374 853 m 0,41,42
 407 853 407 853 427.5 837 c 128,-1,43
 448 821 448 821 448 791 c 0,44,45
 448 760 448 760 426 743.5 c 128,-1,46
 404 727 404 727 371 727 c 0,47,48
 338 727 338 727 318 743 c 128,-1,49
 298 759 298 759 298 789 c 0,50,51
 298 820 298 820 319.5 836.5 c 128,-1,52
 341 853 341 853 374 853 c 0,41,42
EndSplineSet
Validated: 8388609
Position2: "'cpsp' Capital Spacing lookup 3 subtable" dx=5 dy=0 dh=10 dv=0
EndChar

StartChar: D
Encoding: 68 68 21
Width: 597
Flags: MW
HStem: -20 20G<21 21> -9 69<222 286 222 330> 599 70<315 369>
VStem: 444 126<432 507>
LayerCount: 2
UndoRedoHistory
Layer: 0
Undoes
EndUndoes
Redoes
EndRedoes
EndUndoRedoHistory
UndoRedoHistory
Layer: 1
Undoes
EndUndoes
Redoes
EndRedoes
EndUndoRedoHistory
Fore
SplineSet
151 67 m 1,0,1
 191 60 191 60 232 60 c 0,2,3
 271 60 271 60 302 75.5 c 128,-1,4
 333 91 333 91 354 120 c 128,-1,5
 375 149 375 149 389.5 183 c 128,-1,6
 404 217 404 217 415 261 c 0,7,8
 426 305 426 305 435 362.5 c 128,-1,9
 444 420 444 420 444 463 c 0,10,11
 444 532 444 532 416.5 565.5 c 128,-1,12
 389 599 389 599 325 599 c 0,13,14
 297 599 297 599 254 592 c 1,15,-1
 151 67 l 1,0,1
149 660 m 1,16,17
 261 669 261 669 338 669 c 0,18,19
 403 669 403 669 448 655 c 128,-1,20
 493 641 493 641 520 611.5 c 128,-1,21
 547 582 547 582 558.5 539.5 c 128,-1,22
 570 497 570 497 570 436 c 0,23,24
 570 367 570 367 556.5 303.5 c 128,-1,25
 543 240 543 240 513.5 182.5 c 128,-1,26
 484 125 484 125 442 83 c 128,-1,27
 400 41 400 41 338 16 c 128,-1,28
 276 -9 276 -9 201 -9 c 0,29,30
 129 -9 129 -9 21 0 c 1,31,-1
 149 660 l 1,16,17
EndSplineSet
Validated: 8388609
Position2: "'cpsp' Capital Spacing lookup 3 subtable" dx=5 dy=0 dh=10 dv=0
EndChar

StartChar: DZ
Encoding: 497 497 22
Width: 1046
Flags: MW
HStem: -20 20G<21 21> -15 102<855 909 854 924> -9 69<222 286 222 330> 573 102<754 807 738 810> 599 70<315 369> 640 20G<149 149>
VStem: 444 126<432 507>
LayerCount: 2
UndoRedoHistory
Layer: 0
Undoes
EndUndoes
Redoes
EndRedoes
EndUndoRedoHistory
UndoRedoHistory
Layer: 1
Undoes
EndUndoes
Redoes
EndRedoes
EndUndoRedoHistory
Fore
SplineSet
151 67 m 1,0,1
 191 60 191 60 232 60 c 0,2,3
 271 60 271 60 302 75.5 c 128,-1,4
 333 91 333 91 354 120 c 128,-1,5
 375 149 375 149 389.5 183 c 128,-1,6
 404 217 404 217 415 261 c 0,7,8
 426 305 426 305 435 362.5 c 128,-1,9
 444 420 444 420 444 463 c 0,10,11
 444 532 444 532 416.5 565.5 c 128,-1,12
 389 599 389 599 325 599 c 0,13,14
 297 599 297 599 254 592 c 1,15,-1
 151 67 l 1,0,1
149 660 m 1,16,17
 261 669 261 669 338 669 c 0,18,19
 403 669 403 669 448 655 c 128,-1,20
 493 641 493 641 520 611.5 c 128,-1,21
 547 582 547 582 558.5 539.5 c 128,-1,22
 570 497 570 497 570 436 c 0,23,24
 570 367 570 367 556.5 303.5 c 128,-1,25
 543 240 543 240 513.5 182.5 c 128,-1,26
 484 125 484 125 442 83 c 128,-1,27
 400 41 400 41 338 16 c 128,-1,28
 276 -9 276 -9 201 -9 c 0,29,30
 129 -9 129 -9 21 0 c 1,31,-1
 149 660 l 1,16,17
943 555 m 1,32,33
 849 573 849 573 779 573 c 0,34,35
 709 573 709 573 671 551 c 1,36,37
 658 574 658 574 658 602 c 0,38,39
 658 675 658 675 768 675 c 0,40,41
 808 675 808 675 883 661.5 c 128,-1,42
 958 648 958 648 992 648 c 0,43,44
 1032 648 1032 648 1063 660 c 1,45,46
 1074 651 1074 651 1081 635.5 c 128,-1,47
 1088 620 1088 620 1088 604 c 0,48,49
 1088 579 1088 579 1074 564 c 1,50,-1
 712 105 l 1,51,52
 804 87 804 87 884 87 c 0,53,54
 956 87 956 87 992 109 c 1,55,56
 1005 86 1005 86 1005 59 c 0,57,58
 1005 -15 1005 -15 894 -15 c 0,59,60
 854 -15 854 -15 774 -1.5 c 128,-1,61
 694 12 694 12 660 12 c 0,62,63
 620 12 620 12 590 0 c 1,64,65
 579 9 579 9 572 25 c 128,-1,66
 565 41 565 41 565 57 c 0,67,68
 565 82 565 82 582 101 c 1,69,-1
 943 555 l 1,32,33
EndSplineSet
Validated: 8388609
Position2: "'cpsp' Capital Spacing lookup 3 subtable" dx=5 dy=0 dh=10 dv=0
EndChar

StartChar: DZcaron
Encoding: 452 452 23
Width: 1046
Flags: MW
HStem: -20 20G<21 21> -15 102<855 909 854 924> -9 69<222 286 222 330> 573 102<754 807 738 810> 599 70<315 369> 640 20G<149 149>
VStem: 444 126<432 507>
LayerCount: 2
UndoRedoHistory
Layer: 0
Undoes
EndUndoes
Redoes
EndRedoes
EndUndoRedoHistory
UndoRedoHistory
Layer: 1
Undoes
EndUndoes
Redoes
EndRedoes
EndUndoRedoHistory
Fore
SplineSet
151 67 m 1,0,1
 191 60 191 60 232 60 c 0,2,3
 271 60 271 60 302 75.5 c 128,-1,4
 333 91 333 91 354 120 c 128,-1,5
 375 149 375 149 389.5 183 c 128,-1,6
 404 217 404 217 415 261 c 0,7,8
 426 305 426 305 435 362.5 c 128,-1,9
 444 420 444 420 444 463 c 0,10,11
 444 532 444 532 416.5 565.5 c 128,-1,12
 389 599 389 599 325 599 c 0,13,14
 297 599 297 599 254 592 c 1,15,-1
 151 67 l 1,0,1
149 660 m 1,16,17
 261 669 261 669 338 669 c 0,18,19
 403 669 403 669 448 655 c 128,-1,20
 493 641 493 641 520 611.5 c 128,-1,21
 547 582 547 582 558.5 539.5 c 128,-1,22
 570 497 570 497 570 436 c 0,23,24
 570 367 570 367 556.5 303.5 c 128,-1,25
 543 240 543 240 513.5 182.5 c 128,-1,26
 484 125 484 125 442 83 c 128,-1,27
 400 41 400 41 338 16 c 128,-1,28
 276 -9 276 -9 201 -9 c 0,29,30
 129 -9 129 -9 21 0 c 1,31,-1
 149 660 l 1,16,17
943 555 m 1,32,33
 849 573 849 573 779 573 c 0,34,35
 709 573 709 573 671 551 c 1,36,37
 658 574 658 574 658 602 c 0,38,39
 658 675 658 675 768 675 c 0,40,41
 808 675 808 675 883 661.5 c 128,-1,42
 958 648 958 648 992 648 c 0,43,44
 1032 648 1032 648 1063 660 c 1,45,46
 1074 651 1074 651 1081 635.5 c 128,-1,47
 1088 620 1088 620 1088 604 c 0,48,49
 1088 579 1088 579 1074 564 c 1,50,-1
 712 105 l 1,51,52
 804 87 804 87 884 87 c 0,53,54
 956 87 956 87 992 109 c 1,55,56
 1005 86 1005 86 1005 59 c 0,57,58
 1005 -15 1005 -15 894 -15 c 0,59,60
 854 -15 854 -15 774 -1.5 c 128,-1,61
 694 12 694 12 660 12 c 0,62,63
 620 12 620 12 590 0 c 1,64,65
 579 9 579 9 572 25 c 128,-1,66
 565 41 565 41 565 57 c 0,67,68
 565 82 565 82 582 101 c 1,69,-1
 943 555 l 1,32,33
788 837 m 1,70,-1
 892 785 l 1,71,-1
 1022 837 l 1,72,-1
 1049 798 l 1,73,-1
 886 692 l 1,74,-1
 880 692 l 1,75,-1
 748 799 l 1,76,-1
 788 837 l 1,70,-1
EndSplineSet
Validated: 8388609
Position2: "'cpsp' Capital Spacing lookup 3 subtable" dx=5 dy=0 dh=10 dv=0
EndChar

StartChar: Eth
Encoding: 208 208 24
Width: 597
Flags: MW
HStem: -20 20G<21 21> -9 69<222 286 222 330> 295 72<59 78 5 92 210 301> 599 70<315 369>
VStem: 444 126<432 507>
LayerCount: 2
UndoRedoHistory
Layer: 0
Undoes
EndUndoes
Redoes
EndRedoes
EndUndoRedoHistory
UndoRedoHistory
Layer: 1
Undoes
EndUndoes
Redoes
EndRedoes
EndUndoRedoHistory
Fore
SplineSet
151 67 m 1,0,1
 191 60 191 60 232 60 c 0,2,3
 271 60 271 60 302 75.5 c 128,-1,4
 333 91 333 91 354 120 c 128,-1,5
 375 149 375 149 389.5 183 c 128,-1,6
 404 217 404 217 415 261 c 0,7,8
 426 305 426 305 435 362.5 c 128,-1,9
 444 420 444 420 444 463 c 0,10,11
 444 532 444 532 416.5 565.5 c 128,-1,12
 389 599 389 599 325 599 c 0,13,14
 297 599 297 599 254 592 c 1,15,-1
 210 367 l 1,16,-1
 361 367 l 1,17,18
 364 357 364 357 364 343 c 0,19,20
 364 295 364 295 301 295 c 2,21,-1
 196 295 l 1,22,-1
 151 67 l 1,0,1
149 660 m 1,23,24
 261 669 261 669 338 669 c 0,25,26
 403 669 403 669 448 655 c 128,-1,27
 493 641 493 641 520 611.5 c 128,-1,28
 547 582 547 582 558.5 539.5 c 128,-1,29
 570 497 570 497 570 436 c 0,30,31
 570 367 570 367 556.5 303.5 c 128,-1,32
 543 240 543 240 513.5 182.5 c 128,-1,33
 484 125 484 125 442 83 c 128,-1,34
 400 41 400 41 338 16 c 128,-1,35
 276 -9 276 -9 201 -9 c 0,36,37
 129 -9 129 -9 21 0 c 1,38,-1
 78 295 l 1,39,-1
 5 295 l 1,40,41
 3 303 3 303 3 319 c 0,42,43
 4 342 4 342 18 354.5 c 128,-1,44
 32 367 32 367 59 367 c 2,45,-1
 92 367 l 1,46,-1
 149 660 l 1,23,24
EndSplineSet
Validated: 8388609
Position2: "'cpsp' Capital Spacing lookup 3 subtable" dx=5 dy=0 dh=10 dv=0
EndChar

StartChar: Dcaron
Encoding: 270 270 25
Width: 597
Flags: MW
HStem: -20 20G<21 21> -9 69<222 286 222 330> 599 70<315 369>
VStem: 444 126<432 507>
LayerCount: 2
UndoRedoHistory
Layer: 0
Undoes
EndUndoes
Redoes
EndRedoes
EndUndoRedoHistory
UndoRedoHistory
Layer: 1
Undoes
EndUndoes
Redoes
EndRedoes
EndUndoRedoHistory
Fore
SplineSet
151 67 m 1,0,1
 191 60 191 60 232 60 c 0,2,3
 271 60 271 60 302 75.5 c 128,-1,4
 333 91 333 91 354 120 c 128,-1,5
 375 149 375 149 389.5 183 c 128,-1,6
 404 217 404 217 415 261 c 0,7,8
 426 305 426 305 435 362.5 c 128,-1,9
 444 420 444 420 444 463 c 0,10,11
 444 532 444 532 416.5 565.5 c 128,-1,12
 389 599 389 599 325 599 c 0,13,14
 297 599 297 599 254 592 c 1,15,-1
 151 67 l 1,0,1
149 660 m 1,16,17
 261 669 261 669 338 669 c 0,18,19
 403 669 403 669 448 655 c 128,-1,20
 493 641 493 641 520 611.5 c 128,-1,21
 547 582 547 582 558.5 539.5 c 128,-1,22
 570 497 570 497 570 436 c 0,23,24
 570 367 570 367 556.5 303.5 c 128,-1,25
 543 240 543 240 513.5 182.5 c 128,-1,26
 484 125 484 125 442 83 c 128,-1,27
 400 41 400 41 338 16 c 128,-1,28
 276 -9 276 -9 201 -9 c 0,29,30
 129 -9 129 -9 21 0 c 1,31,-1
 149 660 l 1,16,17
268 837 m 1,32,-1
 372 785 l 1,33,-1
 502 837 l 1,34,-1
 529 798 l 1,35,-1
 366 692 l 1,36,-1
 360 692 l 1,37,-1
 228 799 l 1,38,-1
 268 837 l 1,32,-1
EndSplineSet
Validated: 8388609
Position2: "'cpsp' Capital Spacing lookup 3 subtable" dx=5 dy=0 dh=10 dv=0
EndChar

StartChar: Dcroat
Encoding: 272 272 26
Width: 597
Flags: MW
HStem: -20 20G<21 21> -9 69<222 286 222 330> 295 72<59 78 5 92 210 301> 599 70<315 369>
VStem: 444 126<432 507>
LayerCount: 2
UndoRedoHistory
Layer: 0
Undoes
EndUndoes
Redoes
EndRedoes
EndUndoRedoHistory
UndoRedoHistory
Layer: 1
Undoes
EndUndoes
Redoes
EndRedoes
EndUndoRedoHistory
Fore
SplineSet
151 67 m 1,0,1
 191 60 191 60 232 60 c 0,2,3
 271 60 271 60 302 75.5 c 128,-1,4
 333 91 333 91 354 120 c 128,-1,5
 375 149 375 149 389.5 183 c 128,-1,6
 404 217 404 217 415 261 c 0,7,8
 426 305 426 305 435 362.5 c 128,-1,9
 444 420 444 420 444 463 c 0,10,11
 444 532 444 532 416.5 565.5 c 128,-1,12
 389 599 389 599 325 599 c 0,13,14
 297 599 297 599 254 592 c 1,15,-1
 210 367 l 1,16,-1
 361 367 l 1,17,18
 364 357 364 357 364 343 c 0,19,20
 364 295 364 295 301 295 c 2,21,-1
 196 295 l 1,22,-1
 151 67 l 1,0,1
149 660 m 1,23,24
 261 669 261 669 338 669 c 0,25,26
 403 669 403 669 448 655 c 128,-1,27
 493 641 493 641 520 611.5 c 128,-1,28
 547 582 547 582 558.5 539.5 c 128,-1,29
 570 497 570 497 570 436 c 0,30,31
 570 367 570 367 556.5 303.5 c 128,-1,32
 543 240 543 240 513.5 182.5 c 128,-1,33
 484 125 484 125 442 83 c 128,-1,34
 400 41 400 41 338 16 c 128,-1,35
 276 -9 276 -9 201 -9 c 0,36,37
 129 -9 129 -9 21 0 c 1,38,-1
 78 295 l 1,39,-1
 5 295 l 1,40,41
 3 303 3 303 3 319 c 0,42,43
 4 342 4 342 18 354.5 c 128,-1,44
 32 367 32 367 59 367 c 2,45,-1
 92 367 l 1,46,-1
 149 660 l 1,23,24
EndSplineSet
Validated: 8388609
Position2: "'cpsp' Capital Spacing lookup 3 subtable" dx=5 dy=0 dh=10 dv=0
EndChar

StartChar: Ddotbelow
Encoding: 7692 7692 27
Width: 597
Flags: MW
HStem: -180 126<181 220> -20 20G<21 21> -9 69<222 286 222 330> 599 70<315 369>
VStem: 126 149<-138 -97> 444 126<432 507>
LayerCount: 2
UndoRedoHistory
Layer: 0
Undoes
EndUndoes
Redoes
EndRedoes
EndUndoRedoHistory
UndoRedoHistory
Layer: 1
Undoes
EndUndoes
Redoes
EndRedoes
EndUndoRedoHistory
Fore
SplineSet
202 -54 m 0,0,1
 235 -54 235 -54 255 -70 c 128,-1,2
 275 -86 275 -86 275 -116 c 0,3,4
 275 -147 275 -147 253.5 -163.5 c 128,-1,5
 232 -180 232 -180 199 -180 c 0,6,7
 166 -180 166 -180 146 -164 c 128,-1,8
 126 -148 126 -148 126 -118 c 0,9,10
 126 -87 126 -87 147.5 -70.5 c 128,-1,11
 169 -54 169 -54 202 -54 c 0,0,1
151 67 m 1,12,13
 191 60 191 60 232 60 c 0,14,15
 271 60 271 60 302 75.5 c 128,-1,16
 333 91 333 91 354 120 c 128,-1,17
 375 149 375 149 389.5 183 c 128,-1,18
 404 217 404 217 415 261 c 0,19,20
 426 305 426 305 435 362.5 c 128,-1,21
 444 420 444 420 444 463 c 0,22,23
 444 532 444 532 416.5 565.5 c 128,-1,24
 389 599 389 599 325 599 c 0,25,26
 297 599 297 599 254 592 c 1,27,-1
 151 67 l 1,12,13
149 660 m 1,28,29
 261 669 261 669 338 669 c 0,30,31
 403 669 403 669 448 655 c 128,-1,32
 493 641 493 641 520 611.5 c 128,-1,33
 547 582 547 582 558.5 539.5 c 128,-1,34
 570 497 570 497 570 436 c 0,35,36
 570 367 570 367 556.5 303.5 c 128,-1,37
 543 240 543 240 513.5 182.5 c 128,-1,38
 484 125 484 125 442 83 c 128,-1,39
 400 41 400 41 338 16 c 128,-1,40
 276 -9 276 -9 201 -9 c 0,41,42
 129 -9 129 -9 21 0 c 1,43,-1
 149 660 l 1,28,29
EndSplineSet
Validated: 8388609
Position2: "'cpsp' Capital Spacing lookup 3 subtable" dx=5 dy=0 dh=10 dv=0
EndChar

StartChar: Dz
Encoding: 498 498 28
Width: 993
Flags: MW
HStem: -20 20G<21 21> -16 96<843 875 843 886> -9 69<222 286 222 330> 433 96<729 760> 496 20G 599 70<315 369>
VStem: 444 126<432 507>
LayerCount: 2
UndoRedoHistory
Layer: 0
Undoes
EndUndoes
Redoes
EndRedoes
EndUndoRedoHistory
UndoRedoHistory
Layer: 1
Undoes
EndUndoes
Redoes
EndRedoes
EndUndoRedoHistory
Fore
SplineSet
889 418 m 1,0,1
 859 424 859 424 814.5 428.5 c 128,-1,2
 770 433 770 433 744 433 c 0,3,4
 693 433 693 433 667 406 c 1,5,6
 649 430 649 430 649 461 c 0,7,8
 649 497 649 497 676 513 c 128,-1,9
 703 529 703 529 747 529 c 0,10,11
 777 529 777 529 842.5 517.5 c 128,-1,12
 908 506 908 506 939 506 c 0,13,14
 973 506 973 506 993 516 c 1,15,16
 1011 498 1011 498 1011 472 c 0,17,18
 1011 434 1011 434 981 401 c 2,19,-1
 708 96 l 1,20,21
 738 90 738 90 785.5 85 c 128,-1,22
 833 80 833 80 861 80 c 0,23,24
 917 80 917 80 943 107 c 1,25,26
 961 83 961 83 961 53 c 0,27,28
 961 -16 961 -16 859 -16 c 0,29,30
 826 -16 826 -16 760.5 -4 c 128,-1,31
 695 8 695 8 666 8 c 0,32,33
 631 8 631 8 611 -3 c 1,34,35
 601 3 601 3 594 19.5 c 128,-1,36
 587 36 587 36 587 54 c 0,37,38
 587 96 587 96 624 137 c 1,39,-1
 889 418 l 1,0,1
151 67 m 1,40,41
 191 60 191 60 232 60 c 0,42,43
 271 60 271 60 302 75.5 c 128,-1,44
 333 91 333 91 354 120 c 128,-1,45
 375 149 375 149 389.5 183 c 128,-1,46
 404 217 404 217 415 261 c 0,47,48
 426 305 426 305 435 362.5 c 128,-1,49
 444 420 444 420 444 463 c 0,50,51
 444 532 444 532 416.5 565.5 c 128,-1,52
 389 599 389 599 325 599 c 0,53,54
 297 599 297 599 254 592 c 1,55,-1
 151 67 l 1,40,41
149 660 m 1,56,57
 261 669 261 669 338 669 c 0,58,59
 403 669 403 669 448 655 c 128,-1,60
 493 641 493 641 520 611.5 c 128,-1,61
 547 582 547 582 558.5 539.5 c 128,-1,62
 570 497 570 497 570 436 c 0,63,64
 570 367 570 367 556.5 303.5 c 128,-1,65
 543 240 543 240 513.5 182.5 c 128,-1,66
 484 125 484 125 442 83 c 128,-1,67
 400 41 400 41 338 16 c 128,-1,68
 276 -9 276 -9 201 -9 c 0,69,70
 129 -9 129 -9 21 0 c 1,71,-1
 149 660 l 1,56,57
EndSplineSet
Validated: 8388609
Position2: "'cpsp' Capital Spacing lookup 3 subtable" dx=5 dy=0 dh=10 dv=0
EndChar

StartChar: Dzcaron
Encoding: 453 453 29
Width: 993
Flags: MW
HStem: -20 20G<21 21> -16 96<843 875 843 886> -9 69<222 286 222 330> 433 96<729 760> 496 20G 599 70<315 369> 649 20
VStem: 444 126<432 507>
LayerCount: 2
UndoRedoHistory
Layer: 0
Undoes
EndUndoes
Redoes
EndRedoes
EndUndoRedoHistory
UndoRedoHistory
Layer: 1
Undoes
EndUndoes
Redoes
EndRedoes
EndUndoRedoHistory
Fore
SplineSet
889 418 m 1,0,1
 859 424 859 424 814.5 428.5 c 128,-1,2
 770 433 770 433 744 433 c 0,3,4
 693 433 693 433 667 406 c 1,5,6
 649 430 649 430 649 461 c 0,7,8
 649 497 649 497 676 513 c 128,-1,9
 703 529 703 529 747 529 c 0,10,11
 777 529 777 529 842.5 517.5 c 128,-1,12
 908 506 908 506 939 506 c 0,13,14
 973 506 973 506 993 516 c 1,15,16
 1011 498 1011 498 1011 472 c 0,17,18
 1011 434 1011 434 981 401 c 2,19,-1
 708 96 l 1,20,21
 738 90 738 90 785.5 85 c 128,-1,22
 833 80 833 80 861 80 c 0,23,24
 917 80 917 80 943 107 c 1,25,26
 961 83 961 83 961 53 c 0,27,28
 961 -16 961 -16 859 -16 c 0,29,30
 826 -16 826 -16 760.5 -4 c 128,-1,31
 695 8 695 8 666 8 c 0,32,33
 631 8 631 8 611 -3 c 1,34,35
 601 3 601 3 594 19.5 c 128,-1,36
 587 36 587 36 587 54 c 0,37,38
 587 96 587 96 624 137 c 1,39,-1
 889 418 l 1,0,1
151 67 m 1,40,41
 191 60 191 60 232 60 c 0,42,43
 271 60 271 60 302 75.5 c 128,-1,44
 333 91 333 91 354 120 c 128,-1,45
 375 149 375 149 389.5 183 c 128,-1,46
 404 217 404 217 415 261 c 0,47,48
 426 305 426 305 435 362.5 c 128,-1,49
 444 420 444 420 444 463 c 0,50,51
 444 532 444 532 416.5 565.5 c 128,-1,52
 389 599 389 599 325 599 c 0,53,54
 297 599 297 599 254 592 c 1,55,-1
 151 67 l 1,40,41
149 660 m 1,56,57
 261 669 261 669 338 669 c 0,58,59
 403 669 403 669 448 655 c 128,-1,60
 493 641 493 641 520 611.5 c 128,-1,61
 547 582 547 582 558.5 539.5 c 128,-1,62
 570 497 570 497 570 436 c 0,63,64
 570 367 570 367 556.5 303.5 c 128,-1,65
 543 240 543 240 513.5 182.5 c 128,-1,66
 484 125 484 125 442 83 c 128,-1,67
 400 41 400 41 338 16 c 128,-1,68
 276 -9 276 -9 201 -9 c 0,69,70
 129 -9 129 -9 21 0 c 1,71,-1
 149 660 l 1,56,57
763 687 m 1,72,-1
 867 635 l 1,73,-1
 997 687 l 1,74,-1
 1024 648 l 1,75,-1
 861 542 l 1,76,-1
 855 542 l 1,77,-1
 723 649 l 1,78,-1
 763 687 l 1,72,-1
EndSplineSet
Validated: 8388609
Position2: "'cpsp' Capital Spacing lookup 3 subtable" dx=5 dy=0 dh=10 dv=0
EndChar

StartChar: E
Encoding: 69 69 30
Width: 440
Flags: MW
HStem: 0 89<159 270> 295 82<279 324> 565 95<352 403> 592 68<250 250>
VStem: 22 458
LayerCount: 2
UndoRedoHistory
Layer: 0
Undoes
EndUndoes
Redoes
EndRedoes
EndUndoRedoHistory
UndoRedoHistory
Layer: 1
Undoes
EndUndoes
Redoes
EndRedoes
EndUndoRedoHistory
Fore
SplineSet
480 660 m 1,0,1
 480 613 480 613 450.5 589 c 128,-1,2
 421 565 421 565 372 565 c 0,3,4
 316 565 316 565 250 592 c 1,5,-1
 213 377 l 1,6,-1
 393 377 l 1,7,8
 393 335 393 335 367 315 c 128,-1,9
 341 295 341 295 297 295 c 0,10,11
 247 295 247 295 200 318 c 1,12,-1
 159 89 l 1,13,-1
 280 89 l 2,14,15
 333 89 333 89 359 101 c 1,16,17
 373 80 373 80 373 56 c 0,18,19
 373 38 373 38 364 26.5 c 128,-1,20
 355 15 355 15 339 9.5 c 128,-1,21
 323 4 323 4 307 2 c 128,-1,22
 291 0 291 0 270 0 c 2,23,-1
 22 0 l 1,24,-1
 149 660 l 1,25,-1
 480 660 l 1,0,1
EndSplineSet
Validated: 8388609
Position2: "'cpsp' Capital Spacing lookup 3 subtable" dx=5 dy=0 dh=10 dv=0
EndChar

StartChar: Eacute
Encoding: 201 201 31
Width: 440
Flags: MW
HStem: 0 89<159 270> 295 82<279 324> 565 95<352 403> 592 68<250 250>
VStem: 22 475
LayerCount: 2
UndoRedoHistory
Layer: 0
Undoes
EndUndoes
Redoes
EndRedoes
EndUndoRedoHistory
UndoRedoHistory
Layer: 1
Undoes
EndUndoes
Redoes
EndRedoes
EndUndoRedoHistory
Fore
SplineSet
480 660 m 1,0,1
 480 613 480 613 450.5 589 c 128,-1,2
 421 565 421 565 372 565 c 0,3,4
 316 565 316 565 250 592 c 1,5,-1
 213 377 l 1,6,-1
 393 377 l 1,7,8
 393 335 393 335 367 315 c 128,-1,9
 341 295 341 295 297 295 c 0,10,11
 247 295 247 295 200 318 c 1,12,-1
 159 89 l 1,13,-1
 280 89 l 2,14,15
 333 89 333 89 359 101 c 1,16,17
 373 80 373 80 373 56 c 0,18,19
 373 38 373 38 364 26.5 c 128,-1,20
 355 15 355 15 339 9.5 c 128,-1,21
 323 4 323 4 307 2 c 128,-1,22
 291 0 291 0 270 0 c 2,23,-1
 22 0 l 1,24,-1
 149 660 l 1,25,-1
 480 660 l 1,0,1
241 756 m 1,26,-1
 475 845 l 1,27,28
 497 831 497 831 497 800 c 0,29,30
 497 780 497 780 488.5 765.5 c 128,-1,31
 480 751 480 751 468 743 c 128,-1,32
 456 735 456 735 436.5 729.5 c 128,-1,33
 417 724 417 724 401 722 c 128,-1,34
 385 720 385 720 364 719 c 2,35,-1
 249 713 l 1,36,-1
 241 756 l 1,26,-1
EndSplineSet
Validated: 8388609
Position2: "'cpsp' Capital Spacing lookup 3 subtable" dx=5 dy=0 dh=10 dv=0
EndChar

StartChar: Ebreve
Encoding: 276 276 32
Width: 440
Flags: MW
HStem: 0 89<159 270> 295 82<279 324> 565 95<352 403> 592 68<250 250> 699 49<316 355 316 370>
VStem: 196 86<787 807 787 809>
LayerCount: 2
UndoRedoHistory
Layer: 0
Undoes
EndUndoes
Redoes
EndRedoes
EndUndoRedoHistory
UndoRedoHistory
Layer: 1
Undoes
EndUndoes
Redoes
EndRedoes
EndUndoRedoHistory
Fore
SplineSet
480 660 m 1,0,1
 480 613 480 613 450.5 589 c 128,-1,2
 421 565 421 565 372 565 c 0,3,4
 316 565 316 565 250 592 c 1,5,-1
 213 377 l 1,6,-1
 393 377 l 1,7,8
 393 335 393 335 367 315 c 128,-1,9
 341 295 341 295 297 295 c 0,10,11
 247 295 247 295 200 318 c 1,12,-1
 159 89 l 1,13,-1
 280 89 l 2,14,15
 333 89 333 89 359 101 c 1,16,17
 373 80 373 80 373 56 c 0,18,19
 373 38 373 38 364 26.5 c 128,-1,20
 355 15 355 15 339 9.5 c 128,-1,21
 323 4 323 4 307 2 c 128,-1,22
 291 0 291 0 270 0 c 2,23,-1
 22 0 l 1,24,-1
 149 660 l 1,25,-1
 480 660 l 1,0,1
286 832 m 1,26,27
 282 813 282 813 282 803 c 0,28,29
 282 778 282 778 295 763 c 128,-1,30
 308 748 308 748 332 748 c 0,31,32
 364 748 364 748 388.5 774.5 c 128,-1,33
 413 801 413 801 419 832 c 1,34,-1
 499 832 l 1,35,36
 488 770 488 770 441 734.5 c 128,-1,37
 394 699 394 699 322 699 c 0,38,39
 260 699 260 699 228 726.5 c 128,-1,40
 196 754 196 754 196 804 c 0,41,42
 196 815 196 815 199 832 c 1,43,-1
 286 832 l 1,26,27
EndSplineSet
Validated: 8388609
Position2: "'cpsp' Capital Spacing lookup 3 subtable" dx=5 dy=0 dh=10 dv=0
EndChar

StartChar: Ecaron
Encoding: 282 282 33
Width: 440
Flags: MW
HStem: 0 89<159 270> 295 82<279 324> 565 95<352 403> 592 68<250 250>
VStem: 22 467
LayerCount: 2
UndoRedoHistory
Layer: 0
Undoes
EndUndoes
Redoes
EndRedoes
EndUndoRedoHistory
UndoRedoHistory
Layer: 1
Undoes
EndUndoes
Redoes
EndRedoes
EndUndoRedoHistory
Fore
SplineSet
480 660 m 1,0,1
 480 613 480 613 450.5 589 c 128,-1,2
 421 565 421 565 372 565 c 0,3,4
 316 565 316 565 250 592 c 1,5,-1
 213 377 l 1,6,-1
 393 377 l 1,7,8
 393 335 393 335 367 315 c 128,-1,9
 341 295 341 295 297 295 c 0,10,11
 247 295 247 295 200 318 c 1,12,-1
 159 89 l 1,13,-1
 280 89 l 2,14,15
 333 89 333 89 359 101 c 1,16,17
 373 80 373 80 373 56 c 0,18,19
 373 38 373 38 364 26.5 c 128,-1,20
 355 15 355 15 339 9.5 c 128,-1,21
 323 4 323 4 307 2 c 128,-1,22
 291 0 291 0 270 0 c 2,23,-1
 22 0 l 1,24,-1
 149 660 l 1,25,-1
 480 660 l 1,0,1
228 837 m 1,26,-1
 332 785 l 1,27,-1
 462 837 l 1,28,-1
 489 798 l 1,29,-1
 326 692 l 1,30,-1
 320 692 l 1,31,-1
 188 799 l 1,32,-1
 228 837 l 1,26,-1
EndSplineSet
Validated: 8388609
Position2: "'cpsp' Capital Spacing lookup 3 subtable" dx=5 dy=0 dh=10 dv=0
EndChar

StartChar: Ecircumflex
Encoding: 202 202 34
Width: 440
Flags: MW
HStem: 0 89<159 270> 295 82<279 324> 565 95<352 403> 592 68<250 250>
VStem: 22 458
LayerCount: 2
UndoRedoHistory
Layer: 0
Undoes
EndUndoes
Redoes
EndRedoes
EndUndoRedoHistory
UndoRedoHistory
Layer: 1
Undoes
EndUndoes
Redoes
EndRedoes
EndUndoRedoHistory
Fore
SplineSet
480 660 m 1,0,1
 480 613 480 613 450.5 589 c 128,-1,2
 421 565 421 565 372 565 c 0,3,4
 316 565 316 565 250 592 c 1,5,-1
 213 377 l 1,6,-1
 393 377 l 1,7,8
 393 335 393 335 367 315 c 128,-1,9
 341 295 341 295 297 295 c 0,10,11
 247 295 247 295 200 318 c 1,12,-1
 159 89 l 1,13,-1
 280 89 l 2,14,15
 333 89 333 89 359 101 c 1,16,17
 373 80 373 80 373 56 c 0,18,19
 373 38 373 38 364 26.5 c 128,-1,20
 355 15 355 15 339 9.5 c 128,-1,21
 323 4 323 4 307 2 c 128,-1,22
 291 0 291 0 270 0 c 2,23,-1
 22 0 l 1,24,-1
 149 660 l 1,25,-1
 480 660 l 1,0,1
423 674 m 1,26,-1
 318 746 l 1,27,-1
 188 674 l 1,28,-1
 161 723 l 1,29,-1
 324 839 l 1,30,-1
 331 839 l 1,31,-1
 463 722 l 1,32,-1
 423 674 l 1,26,-1
EndSplineSet
Validated: 8388609
Position2: "'cpsp' Capital Spacing lookup 3 subtable" dx=5 dy=0 dh=10 dv=0
EndChar

StartChar: Edieresis
Encoding: 203 203 35
Width: 440
Flags: MW
HStem: 0 89<159 270> 295 82<279 324> 565 95<352 403> 592 68<250 250> 727 126<202 241 411 450>
VStem: 147 150<770 811> 356 150<770 811>
LayerCount: 2
UndoRedoHistory
Layer: 0
Undoes
EndUndoes
Redoes
EndRedoes
EndUndoRedoHistory
UndoRedoHistory
Layer: 1
Undoes
EndUndoes
Redoes
EndRedoes
EndUndoRedoHistory
Fore
SplineSet
480 660 m 1,0,1
 480 613 480 613 450.5 589 c 128,-1,2
 421 565 421 565 372 565 c 0,3,4
 316 565 316 565 250 592 c 1,5,-1
 213 377 l 1,6,-1
 393 377 l 1,7,8
 393 335 393 335 367 315 c 128,-1,9
 341 295 341 295 297 295 c 0,10,11
 247 295 247 295 200 318 c 1,12,-1
 159 89 l 1,13,-1
 280 89 l 2,14,15
 333 89 333 89 359 101 c 1,16,17
 373 80 373 80 373 56 c 0,18,19
 373 38 373 38 364 26.5 c 128,-1,20
 355 15 355 15 339 9.5 c 128,-1,21
 323 4 323 4 307 2 c 128,-1,22
 291 0 291 0 270 0 c 2,23,-1
 22 0 l 1,24,-1
 149 660 l 1,25,-1
 480 660 l 1,0,1
432 853 m 0,26,27
 465 853 465 853 485.5 837 c 128,-1,28
 506 821 506 821 506 791 c 0,29,30
 506 760 506 760 484 743.5 c 128,-1,31
 462 727 462 727 429 727 c 0,32,33
 396 727 396 727 376 743 c 128,-1,34
 356 759 356 759 356 789 c 0,35,36
 356 820 356 820 377.5 836.5 c 128,-1,37
 399 853 399 853 432 853 c 0,26,27
223 853 m 0,38,39
 256 853 256 853 276.5 837 c 128,-1,40
 297 821 297 821 297 791 c 0,41,42
 297 760 297 760 275 743.5 c 128,-1,43
 253 727 253 727 220 727 c 0,44,45
 187 727 187 727 167 743 c 128,-1,46
 147 759 147 759 147 789 c 0,47,48
 147 820 147 820 168.5 836.5 c 128,-1,49
 190 853 190 853 223 853 c 0,38,39
EndSplineSet
Validated: 8388609
Position2: "'cpsp' Capital Spacing lookup 3 subtable" dx=5 dy=0 dh=10 dv=0
EndChar

StartChar: Edotaccent
Encoding: 278 278 36
Width: 440
Flags: MW
HStem: 0 89<159 270> 295 82<279 324> 565 95<352 403> 592 68<250 250> 727 126<304 343>
VStem: 249 150<770 811>
LayerCount: 2
UndoRedoHistory
Layer: 0
Undoes
EndUndoes
Redoes
EndRedoes
EndUndoRedoHistory
UndoRedoHistory
Layer: 1
Undoes
EndUndoes
Redoes
EndRedoes
EndUndoRedoHistory
Fore
SplineSet
480 660 m 1,0,1
 480 613 480 613 450.5 589 c 128,-1,2
 421 565 421 565 372 565 c 0,3,4
 316 565 316 565 250 592 c 1,5,-1
 213 377 l 1,6,-1
 393 377 l 1,7,8
 393 335 393 335 367 315 c 128,-1,9
 341 295 341 295 297 295 c 0,10,11
 247 295 247 295 200 318 c 1,12,-1
 159 89 l 1,13,-1
 280 89 l 2,14,15
 333 89 333 89 359 101 c 1,16,17
 373 80 373 80 373 56 c 0,18,19
 373 38 373 38 364 26.5 c 128,-1,20
 355 15 355 15 339 9.5 c 128,-1,21
 323 4 323 4 307 2 c 128,-1,22
 291 0 291 0 270 0 c 2,23,-1
 22 0 l 1,24,-1
 149 660 l 1,25,-1
 480 660 l 1,0,1
325 853 m 0,26,27
 358 853 358 853 378.5 837 c 128,-1,28
 399 821 399 821 399 791 c 0,29,30
 399 760 399 760 377 743.5 c 128,-1,31
 355 727 355 727 322 727 c 0,32,33
 289 727 289 727 269 743 c 128,-1,34
 249 759 249 759 249 789 c 0,35,36
 249 820 249 820 270.5 836.5 c 128,-1,37
 292 853 292 853 325 853 c 0,26,27
EndSplineSet
Validated: 8388609
Position2: "'cpsp' Capital Spacing lookup 3 subtable" dx=5 dy=0 dh=10 dv=0
EndChar

StartChar: Edotbelow
Encoding: 7864 7864 37
Width: 440
Flags: MW
HStem: -180 126<161 200> 0 89<159 270> 295 82<279 324> 565 95<352 403> 592 68<250 250>
VStem: 106 149<-138 -97>
LayerCount: 2
UndoRedoHistory
Layer: 0
Undoes
EndUndoes
Redoes
EndRedoes
EndUndoRedoHistory
UndoRedoHistory
Layer: 1
Undoes
EndUndoes
Redoes
EndRedoes
EndUndoRedoHistory
Fore
SplineSet
182 -54 m 0,0,1
 215 -54 215 -54 235 -70 c 128,-1,2
 255 -86 255 -86 255 -116 c 0,3,4
 255 -147 255 -147 233.5 -163.5 c 128,-1,5
 212 -180 212 -180 179 -180 c 0,6,7
 146 -180 146 -180 126 -164 c 128,-1,8
 106 -148 106 -148 106 -118 c 0,9,10
 106 -87 106 -87 127.5 -70.5 c 128,-1,11
 149 -54 149 -54 182 -54 c 0,0,1
480 660 m 1,12,13
 480 613 480 613 450.5 589 c 128,-1,14
 421 565 421 565 372 565 c 0,15,16
 316 565 316 565 250 592 c 1,17,-1
 213 377 l 1,18,-1
 393 377 l 1,19,20
 393 335 393 335 367 315 c 128,-1,21
 341 295 341 295 297 295 c 0,22,23
 247 295 247 295 200 318 c 1,24,-1
 159 89 l 1,25,-1
 280 89 l 2,26,27
 333 89 333 89 359 101 c 1,28,29
 373 80 373 80 373 56 c 0,30,31
 373 38 373 38 364 26.5 c 128,-1,32
 355 15 355 15 339 9.5 c 128,-1,33
 323 4 323 4 307 2 c 128,-1,34
 291 0 291 0 270 0 c 2,35,-1
 22 0 l 1,36,-1
 149 660 l 1,37,-1
 480 660 l 1,12,13
EndSplineSet
Validated: 8388609
Position2: "'cpsp' Capital Spacing lookup 3 subtable" dx=5 dy=0 dh=10 dv=0
EndChar

StartChar: Egrave
Encoding: 200 200 38
Width: 440
Flags: MW
HStem: 0 89<159 270> 295 82<279 324> 565 95<352 403> 592 68<250 250>
VStem: 22 458
LayerCount: 2
UndoRedoHistory
Layer: 0
Undoes
EndUndoes
Redoes
EndRedoes
EndUndoRedoHistory
UndoRedoHistory
Layer: 1
Undoes
EndUndoes
Redoes
EndRedoes
EndUndoRedoHistory
Fore
SplineSet
480 660 m 1,0,1
 480 613 480 613 450.5 589 c 128,-1,2
 421 565 421 565 372 565 c 0,3,4
 316 565 316 565 250 592 c 1,5,-1
 213 377 l 1,6,-1
 393 377 l 1,7,8
 393 335 393 335 367 315 c 128,-1,9
 341 295 341 295 297 295 c 0,10,11
 247 295 247 295 200 318 c 1,12,-1
 159 89 l 1,13,-1
 280 89 l 2,14,15
 333 89 333 89 359 101 c 1,16,17
 373 80 373 80 373 56 c 0,18,19
 373 38 373 38 364 26.5 c 128,-1,20
 355 15 355 15 339 9.5 c 128,-1,21
 323 4 323 4 307 2 c 128,-1,22
 291 0 291 0 270 0 c 2,23,-1
 22 0 l 1,24,-1
 149 660 l 1,25,-1
 480 660 l 1,0,1
400 713 m 1,26,-1
 285 719 l 2,27,28
 264 720 264 720 248 722 c 128,-1,29
 232 724 232 724 212.5 729.5 c 128,-1,30
 193 735 193 735 181 743 c 128,-1,31
 169 751 169 751 160.5 765.5 c 128,-1,32
 152 780 152 780 152 800 c 0,33,34
 152 831 152 831 174 845 c 1,35,-1
 408 756 l 1,36,-1
 400 713 l 1,26,-1
EndSplineSet
Validated: 8388609
Position2: "'cpsp' Capital Spacing lookup 3 subtable" dx=5 dy=0 dh=10 dv=0
EndChar

StartChar: Emacron
Encoding: 274 274 39
Width: 440
Flags: MW
HStem: 0 89<159 270> 295 82<279 324> 565 95<352 403> 592 68<250 250> 734 82<245 397 186 462>
VStem: 22 458
LayerCount: 2
UndoRedoHistory
Layer: 0
Undoes
EndUndoes
Redoes
EndRedoes
EndUndoRedoHistory
UndoRedoHistory
Layer: 1
Undoes
EndUndoes
Redoes
EndRedoes
EndUndoRedoHistory
Fore
SplineSet
480 660 m 1,0,1
 480 613 480 613 450.5 589 c 128,-1,2
 421 565 421 565 372 565 c 0,3,4
 316 565 316 565 250 592 c 1,5,-1
 213 377 l 1,6,-1
 393 377 l 1,7,8
 393 335 393 335 367 315 c 128,-1,9
 341 295 341 295 297 295 c 0,10,11
 247 295 247 295 200 318 c 1,12,-1
 159 89 l 1,13,-1
 280 89 l 2,14,15
 333 89 333 89 359 101 c 1,16,17
 373 80 373 80 373 56 c 0,18,19
 373 38 373 38 364 26.5 c 128,-1,20
 355 15 355 15 339 9.5 c 128,-1,21
 323 4 323 4 307 2 c 128,-1,22
 291 0 291 0 270 0 c 2,23,-1
 22 0 l 1,24,-1
 149 660 l 1,25,-1
 480 660 l 1,0,1
462 816 m 1,26,27
 465 806 465 806 465 792 c 0,28,29
 465 766 465 766 447.5 750 c 128,-1,30
 430 734 430 734 397 734 c 2,31,-1
 186 734 l 1,32,33
 184 742 184 742 184 758 c 0,34,35
 184 785 184 785 201 800.5 c 128,-1,36
 218 816 218 816 245 816 c 2,37,-1
 462 816 l 1,26,27
EndSplineSet
Validated: 8388609
Position2: "'cpsp' Capital Spacing lookup 3 subtable" dx=5 dy=0 dh=10 dv=0
EndChar

StartChar: Eogonek
Encoding: 280 280 40
Width: 440
Flags: MW
HStem: -258 62<282 311> 0 89<159 264> 295 82<279 324> 565 95<352 403> 592 68<250 250>
VStem: 171 73<-157 -117>
LayerCount: 2
UndoRedoHistory
Layer: 0
Undoes
EndUndoes
Redoes
EndRedoes
EndUndoRedoHistory
UndoRedoHistory
Layer: 1
Undoes
EndUndoes
Redoes
EndRedoes
EndUndoRedoHistory
Fore
SplineSet
480 660 m 1,0,1
 480 613 480 613 450.5 589 c 128,-1,2
 421 565 421 565 372 565 c 0,3,4
 316 565 316 565 250 592 c 1,5,-1
 213 377 l 1,6,-1
 393 377 l 1,7,8
 393 335 393 335 367 315 c 128,-1,9
 341 295 341 295 297 295 c 0,10,11
 247 295 247 295 200 318 c 1,12,-1
 159 89 l 1,13,-1
 280 89 l 2,14,15
 333 89 333 89 359 101 c 1,16,17
 373 80 373 80 373 56 c 0,18,19
 373 22 373 22 338 9 c 1,20,21
 296 -16 296 -16 270 -56 c 128,-1,22
 244 -96 244 -96 244 -137 c 0,23,24
 244 -168 244 -168 257.5 -182 c 128,-1,25
 271 -196 271 -196 303 -196 c 0,26,27
 338 -196 338 -196 355 -171 c 1,28,29
 371 -184 371 -184 371 -200 c 0,30,31
 371 -224 371 -224 347 -241 c 128,-1,32
 323 -258 323 -258 286 -258 c 0,33,34
 233 -258 233 -258 202 -229.5 c 128,-1,35
 171 -201 171 -201 171 -150 c 0,36,37
 171 -103 171 -103 197.5 -64 c 128,-1,38
 224 -25 224 -25 264 0 c 1,39,-1
 22 0 l 1,40,-1
 149 660 l 1,41,-1
 480 660 l 1,0,1
EndSplineSet
Validated: 8388609
Position2: "'cpsp' Capital Spacing lookup 3 subtable" dx=5 dy=0 dh=10 dv=0
EndChar

StartChar: Etilde
Encoding: 7868 7868 41
Width: 440
Flags: MW
HStem: 0 89<159 270> 295 82<279 324> 565 95<352 403> 592 68<250 250> 725 85<403 437 403 437> 741 85<235 268>
VStem: 22 469
LayerCount: 2
UndoRedoHistory
Layer: 0
Undoes
EndUndoes
Redoes
EndRedoes
EndUndoRedoHistory
UndoRedoHistory
Layer: 1
Undoes
EndUndoes
Redoes
EndRedoes
EndUndoRedoHistory
Fore
SplineSet
480 660 m 1,0,1
 480 613 480 613 450.5 589 c 128,-1,2
 421 565 421 565 372 565 c 0,3,4
 316 565 316 565 250 592 c 1,5,-1
 213 377 l 1,6,-1
 393 377 l 1,7,8
 393 335 393 335 367 315 c 128,-1,9
 341 295 341 295 297 295 c 0,10,11
 247 295 247 295 200 318 c 1,12,-1
 159 89 l 1,13,-1
 280 89 l 2,14,15
 333 89 333 89 359 101 c 1,16,17
 373 80 373 80 373 56 c 0,18,19
 373 38 373 38 364 26.5 c 128,-1,20
 355 15 355 15 339 9.5 c 128,-1,21
 323 4 323 4 307 2 c 128,-1,22
 291 0 291 0 270 0 c 2,23,-1
 22 0 l 1,24,-1
 149 660 l 1,25,-1
 480 660 l 1,0,1
475 826 m 1,26,27
 491 807 491 807 491 785 c 0,28,29
 491 756 491 756 470 740.5 c 128,-1,30
 449 725 449 725 414 725 c 0,31,32
 393 725 393 725 330.5 733 c 128,-1,33
 268 741 268 741 248 741 c 0,34,35
 211 741 211 741 192 726 c 1,36,37
 175 751 175 751 175 772 c 0,38,39
 175 798 175 798 196 812 c 128,-1,40
 217 826 217 826 255 826 c 0,41,42
 278 826 278 826 340.5 818 c 128,-1,43
 403 810 403 810 425 810 c 0,44,45
 463 810 463 810 475 826 c 1,26,27
EndSplineSet
Validated: 8388609
Position2: "'cpsp' Capital Spacing lookup 3 subtable" dx=5 dy=0 dh=10 dv=0
EndChar

StartChar: F
Encoding: 70 70 42
Width: 431
Flags: MW
HStem: 295 82<279 324> 565 95<352 403> 592 68<250 250>
VStem: 22 458
LayerCount: 2
UndoRedoHistory
Layer: 0
Undoes
EndUndoes
Redoes
EndRedoes
EndUndoRedoHistory
UndoRedoHistory
Layer: 1
Undoes
EndUndoes
Redoes
EndRedoes
EndUndoRedoHistory
Fore
SplineSet
480 660 m 1,0,1
 480 613 480 613 450.5 589 c 128,-1,2
 421 565 421 565 372 565 c 0,3,4
 316 565 316 565 250 592 c 1,5,-1
 213 377 l 1,6,-1
 393 377 l 1,7,8
 393 335 393 335 367 315 c 128,-1,9
 341 295 341 295 297 295 c 0,10,11
 247 295 247 295 200 318 c 1,12,-1
 143 0 l 1,13,-1
 22 0 l 1,14,-1
 149 660 l 1,15,-1
 480 660 l 1,0,1
EndSplineSet
Validated: 8388609
Position2: "'cpsp' Capital Spacing lookup 3 subtable" dx=5 dy=0 dh=10 dv=0
EndChar

StartChar: G
Encoding: 71 71 43
Width: 527
Flags: MW
HStem: -20 96<220 234> 609 71<275 364>
VStem: 26 126<186 296 186 325> 352 93 411 122<529 560>
LayerCount: 2
UndoRedoHistory
Layer: 0
Undoes
EndUndoes
Redoes
EndRedoes
EndUndoRedoHistory
UndoRedoHistory
Layer: 1
Undoes
EndUndoes
Redoes
EndRedoes
EndUndoRedoHistory
Fore
SplineSet
507 326 m 1,0,1
 478 261 478 261 462.5 171 c 128,-1,2
 447 81 447 81 445 -4 c 1,3,4
 435 -20 435 -20 410 -20 c 0,5,6
 352 -20 352 -20 352 38 c 1,7,8
 280 -20 280 -20 200 -20 c 0,9,10
 115 -20 115 -20 70.5 43.5 c 128,-1,11
 26 107 26 107 26 221 c 0,12,13
 26 274 26 274 35.5 327 c 128,-1,14
 45 380 45 380 63.5 432 c 128,-1,15
 82 484 82 484 111 528.5 c 128,-1,16
 140 573 140 573 177 607 c 128,-1,17
 214 641 214 641 263 660.5 c 128,-1,18
 312 680 312 680 368 680 c 0,19,20
 443 680 443 680 488 645 c 128,-1,21
 533 610 533 610 533 548 c 0,22,23
 533 501 533 501 508 475 c 128,-1,24
 483 449 483 449 445 449 c 0,25,26
 410 449 410 449 396 465 c 1,27,28
 411 503 411 503 411 539 c 0,29,30
 411 571 411 571 393 590 c 128,-1,31
 375 609 375 609 343 609 c 0,32,33
 304 609 304 609 271.5 582.5 c 128,-1,34
 239 556 239 556 217.5 514.5 c 128,-1,35
 196 473 196 473 180.5 421 c 128,-1,36
 165 369 165 369 158.5 320 c 128,-1,37
 152 271 152 271 152 229 c 0,38,39
 152 195 152 195 157 168.5 c 128,-1,40
 162 142 162 142 174.5 120.5 c 128,-1,41
 187 99 187 99 209.5 87.5 c 128,-1,42
 232 76 232 76 264 76 c 0,43,44
 319 76 319 76 348 97 c 1,45,-1
 380 308 l 1,46,-1
 507 326 l 1,0,1
EndSplineSet
Validated: 8388609
Position2: "'cpsp' Capital Spacing lookup 3 subtable" dx=5 dy=0 dh=10 dv=0
EndChar

StartChar: Gbreve
Encoding: 286 286 44
Width: 527
Flags: MW
HStem: -20 96<220 234> 609 71<275 364> 699 49<371 410 371 425>
VStem: 26 126<186 296 186 325> 251 86<787 807 787 809> 352 93 411 122<529 560>
LayerCount: 2
UndoRedoHistory
Layer: 0
Undoes
EndUndoes
Redoes
EndRedoes
EndUndoRedoHistory
UndoRedoHistory
Layer: 1
Undoes
EndUndoes
Redoes
EndRedoes
EndUndoRedoHistory
Fore
SplineSet
507 326 m 1,0,1
 478 261 478 261 462.5 171 c 128,-1,2
 447 81 447 81 445 -4 c 1,3,4
 435 -20 435 -20 410 -20 c 0,5,6
 352 -20 352 -20 352 38 c 1,7,8
 280 -20 280 -20 200 -20 c 0,9,10
 115 -20 115 -20 70.5 43.5 c 128,-1,11
 26 107 26 107 26 221 c 0,12,13
 26 274 26 274 35.5 327 c 128,-1,14
 45 380 45 380 63.5 432 c 128,-1,15
 82 484 82 484 111 528.5 c 128,-1,16
 140 573 140 573 177 607 c 128,-1,17
 214 641 214 641 263 660.5 c 128,-1,18
 312 680 312 680 368 680 c 0,19,20
 443 680 443 680 488 645 c 128,-1,21
 533 610 533 610 533 548 c 0,22,23
 533 501 533 501 508 475 c 128,-1,24
 483 449 483 449 445 449 c 0,25,26
 410 449 410 449 396 465 c 1,27,28
 411 503 411 503 411 539 c 0,29,30
 411 571 411 571 393 590 c 128,-1,31
 375 609 375 609 343 609 c 0,32,33
 304 609 304 609 271.5 582.5 c 128,-1,34
 239 556 239 556 217.5 514.5 c 128,-1,35
 196 473 196 473 180.5 421 c 128,-1,36
 165 369 165 369 158.5 320 c 128,-1,37
 152 271 152 271 152 229 c 0,38,39
 152 195 152 195 157 168.5 c 128,-1,40
 162 142 162 142 174.5 120.5 c 128,-1,41
 187 99 187 99 209.5 87.5 c 128,-1,42
 232 76 232 76 264 76 c 0,43,44
 319 76 319 76 348 97 c 1,45,-1
 380 308 l 1,46,-1
 507 326 l 1,0,1
341 832 m 1,47,48
 337 813 337 813 337 803 c 0,49,50
 337 778 337 778 350 763 c 128,-1,51
 363 748 363 748 387 748 c 0,52,53
 419 748 419 748 443.5 774.5 c 128,-1,54
 468 801 468 801 474 832 c 1,55,-1
 554 832 l 1,56,57
 543 770 543 770 496 734.5 c 128,-1,58
 449 699 449 699 377 699 c 0,59,60
 315 699 315 699 283 726.5 c 128,-1,61
 251 754 251 754 251 804 c 0,62,63
 251 817 251 817 254 832 c 1,64,-1
 341 832 l 1,47,48
EndSplineSet
Validated: 8388609
Position2: "'cpsp' Capital Spacing lookup 3 subtable" dx=5 dy=0 dh=10 dv=0
EndChar

StartChar: Gcircumflex
Encoding: 284 284 45
Width: 527
Flags: MW
HStem: -20 96<220 234> 609 71<275 364>
VStem: 26 126<186 296 186 325> 352 93 411 122<529 560>
LayerCount: 2
UndoRedoHistory
Layer: 0
Undoes
EndUndoes
Redoes
EndRedoes
EndUndoRedoHistory
UndoRedoHistory
Layer: 1
Undoes
EndUndoes
Redoes
EndRedoes
EndUndoRedoHistory
Fore
SplineSet
507 326 m 1,0,1
 478 261 478 261 462.5 171 c 128,-1,2
 447 81 447 81 445 -4 c 1,3,4
 435 -20 435 -20 410 -20 c 0,5,6
 352 -20 352 -20 352 38 c 1,7,8
 280 -20 280 -20 200 -20 c 0,9,10
 115 -20 115 -20 70.5 43.5 c 128,-1,11
 26 107 26 107 26 221 c 0,12,13
 26 274 26 274 35.5 327 c 128,-1,14
 45 380 45 380 63.5 432 c 128,-1,15
 82 484 82 484 111 528.5 c 128,-1,16
 140 573 140 573 177 607 c 128,-1,17
 214 641 214 641 263 660.5 c 128,-1,18
 312 680 312 680 368 680 c 0,19,20
 443 680 443 680 488 645 c 128,-1,21
 533 610 533 610 533 548 c 0,22,23
 533 501 533 501 508 475 c 128,-1,24
 483 449 483 449 445 449 c 0,25,26
 410 449 410 449 396 465 c 1,27,28
 411 503 411 503 411 539 c 0,29,30
 411 571 411 571 393 590 c 128,-1,31
 375 609 375 609 343 609 c 0,32,33
 304 609 304 609 271.5 582.5 c 128,-1,34
 239 556 239 556 217.5 514.5 c 128,-1,35
 196 473 196 473 180.5 421 c 128,-1,36
 165 369 165 369 158.5 320 c 128,-1,37
 152 271 152 271 152 229 c 0,38,39
 152 195 152 195 157 168.5 c 128,-1,40
 162 142 162 142 174.5 120.5 c 128,-1,41
 187 99 187 99 209.5 87.5 c 128,-1,42
 232 76 232 76 264 76 c 0,43,44
 319 76 319 76 348 97 c 1,45,-1
 380 308 l 1,46,-1
 507 326 l 1,0,1
478 674 m 1,47,-1
 373 746 l 1,48,-1
 243 674 l 1,49,-1
 216 723 l 1,50,-1
 379 839 l 1,51,-1
 386 839 l 1,52,-1
 518 722 l 1,53,-1
 478 674 l 1,47,-1
EndSplineSet
Validated: 8388609
Position2: "'cpsp' Capital Spacing lookup 3 subtable" dx=5 dy=0 dh=10 dv=0
EndChar

StartChar: Gcommaaccent
Encoding: 290 290 46
Width: 527
Flags: MW
HStem: -20 96<220 234> 609 71<275 364>
VStem: 26 126<186 296 186 325> 195 100<-123 -90> 352 93 411 122<529 560>
LayerCount: 2
UndoRedoHistory
Layer: 0
Undoes
EndUndoes
Redoes
EndRedoes
EndUndoRedoHistory
UndoRedoHistory
Layer: 1
Undoes
EndUndoes
Redoes
EndRedoes
EndUndoRedoHistory
Fore
SplineSet
295 -105 m 0,0,1
 295 -152 295 -152 254.5 -194.5 c 128,-1,2
 214 -237 214 -237 169 -237 c 0,3,4
 152 -237 152 -237 141 -226 c 1,5,6
 158 -202 158 -202 168 -185.5 c 128,-1,7
 178 -169 178 -169 186.5 -145 c 128,-1,8
 195 -121 195 -121 195 -97 c 0,9,10
 195 -78 195 -78 188 -60 c 1,11,12
 210 -49 210 -49 240 -49 c 0,13,14
 264 -49 264 -49 279.5 -63 c 128,-1,15
 295 -77 295 -77 295 -105 c 0,0,1
507 326 m 1,16,17
 478 261 478 261 462.5 171 c 128,-1,18
 447 81 447 81 445 -4 c 1,19,20
 435 -20 435 -20 410 -20 c 0,21,22
 352 -20 352 -20 352 38 c 1,23,24
 280 -20 280 -20 200 -20 c 0,25,26
 115 -20 115 -20 70.5 43.5 c 128,-1,27
 26 107 26 107 26 221 c 0,28,29
 26 274 26 274 35.5 327 c 128,-1,30
 45 380 45 380 63.5 432 c 128,-1,31
 82 484 82 484 111 528.5 c 128,-1,32
 140 573 140 573 177 607 c 128,-1,33
 214 641 214 641 263 660.5 c 128,-1,34
 312 680 312 680 368 680 c 0,35,36
 443 680 443 680 488 645 c 128,-1,37
 533 610 533 610 533 548 c 0,38,39
 533 501 533 501 508 475 c 128,-1,40
 483 449 483 449 445 449 c 0,41,42
 410 449 410 449 396 465 c 1,43,44
 411 503 411 503 411 539 c 0,45,46
 411 571 411 571 393 590 c 128,-1,47
 375 609 375 609 343 609 c 0,48,49
 304 609 304 609 271.5 582.5 c 128,-1,50
 239 556 239 556 217.5 514.5 c 128,-1,51
 196 473 196 473 180.5 421 c 128,-1,52
 165 369 165 369 158.5 320 c 128,-1,53
 152 271 152 271 152 229 c 0,54,55
 152 195 152 195 157 168.5 c 128,-1,56
 162 142 162 142 174.5 120.5 c 128,-1,57
 187 99 187 99 209.5 87.5 c 128,-1,58
 232 76 232 76 264 76 c 0,59,60
 319 76 319 76 348 97 c 1,61,-1
 380 308 l 1,62,-1
 507 326 l 1,16,17
EndSplineSet
Validated: 8388609
Position2: "'cpsp' Capital Spacing lookup 3 subtable" dx=5 dy=0 dh=10 dv=0
EndChar

StartChar: Gdotaccent
Encoding: 288 288 47
Width: 527
Flags: MW
HStem: -20 96<220 234> 609 71<275 364> 727 126<358 397>
VStem: 26 126<186 296 186 325> 303 150<770 811> 352 93 411 122<529 560>
LayerCount: 2
UndoRedoHistory
Layer: 0
Undoes
EndUndoes
Redoes
EndRedoes
EndUndoRedoHistory
UndoRedoHistory
Layer: 1
Undoes
EndUndoes
Redoes
EndRedoes
EndUndoRedoHistory
Fore
SplineSet
507 326 m 1,0,1
 478 261 478 261 462.5 171 c 128,-1,2
 447 81 447 81 445 -4 c 1,3,4
 435 -20 435 -20 410 -20 c 0,5,6
 352 -20 352 -20 352 38 c 1,7,8
 280 -20 280 -20 200 -20 c 0,9,10
 115 -20 115 -20 70.5 43.5 c 128,-1,11
 26 107 26 107 26 221 c 0,12,13
 26 274 26 274 35.5 327 c 128,-1,14
 45 380 45 380 63.5 432 c 128,-1,15
 82 484 82 484 111 528.5 c 128,-1,16
 140 573 140 573 177 607 c 128,-1,17
 214 641 214 641 263 660.5 c 128,-1,18
 312 680 312 680 368 680 c 0,19,20
 443 680 443 680 488 645 c 128,-1,21
 533 610 533 610 533 548 c 0,22,23
 533 501 533 501 508 475 c 128,-1,24
 483 449 483 449 445 449 c 0,25,26
 410 449 410 449 396 465 c 1,27,28
 411 503 411 503 411 539 c 0,29,30
 411 571 411 571 393 590 c 128,-1,31
 375 609 375 609 343 609 c 0,32,33
 304 609 304 609 271.5 582.5 c 128,-1,34
 239 556 239 556 217.5 514.5 c 128,-1,35
 196 473 196 473 180.5 421 c 128,-1,36
 165 369 165 369 158.5 320 c 128,-1,37
 152 271 152 271 152 229 c 0,38,39
 152 195 152 195 157 168.5 c 128,-1,40
 162 142 162 142 174.5 120.5 c 128,-1,41
 187 99 187 99 209.5 87.5 c 128,-1,42
 232 76 232 76 264 76 c 0,43,44
 319 76 319 76 348 97 c 1,45,-1
 380 308 l 1,46,-1
 507 326 l 1,0,1
379 853 m 0,47,48
 412 853 412 853 432.5 837 c 128,-1,49
 453 821 453 821 453 791 c 0,50,51
 453 760 453 760 431 743.5 c 128,-1,52
 409 727 409 727 376 727 c 0,53,54
 343 727 343 727 323 743 c 128,-1,55
 303 759 303 759 303 789 c 0,56,57
 303 820 303 820 324.5 836.5 c 128,-1,58
 346 853 346 853 379 853 c 0,47,48
EndSplineSet
Validated: 8388609
Position2: "'cpsp' Capital Spacing lookup 3 subtable" dx=5 dy=0 dh=10 dv=0
EndChar

StartChar: H
Encoding: 72 72 48
Width: 614
Flags: MW
HStem: 290 70<209 413 195 426> 640 20G<149 268 268 268 482 601 601 601>
VStem: 375 116<42 55>
LayerCount: 2
UndoRedoHistory
Layer: 0
Undoes
EndUndoes
Redoes
EndRedoes
EndUndoRedoHistory
UndoRedoHistory
Layer: 1
Undoes
EndUndoes
Redoes
EndRedoes
EndUndoRedoHistory
Fore
SplineSet
496 95 m 2,0,1
 491 67 491 67 491 49 c 0,2,3
 491 24 491 24 503 4 c 1,4,5
 474 -20 474 -20 436 -20 c 0,6,7
 402 -20 402 -20 388.5 -3 c 128,-1,8
 375 14 375 14 375 47 c 0,9,10
 375 64 375 64 386 133 c 2,11,-1
 413 290 l 1,12,-1
 195 290 l 1,13,-1
 139 0 l 1,14,-1
 22 0 l 1,15,-1
 149 660 l 1,16,-1
 268 660 l 1,17,-1
 209 360 l 1,18,-1
 426 360 l 1,19,-1
 482 660 l 1,20,-1
 601 660 l 1,21,-1
 496 95 l 2,0,1
EndSplineSet
Validated: 1
Position2: "'cpsp' Capital Spacing lookup 3 subtable" dx=5 dy=0 dh=10 dv=0
EndChar

StartChar: Hbar
Encoding: 294 294 49
Width: 614
Flags: MW
HStem: 290 70<209 413 195 426> 442 83<103 107 44 123 241 441> 442 218<44 268 44 268 225 225 225 268 149 441 561 576 561 561>
VStem: 375 116<42 55>
LayerCount: 2
UndoRedoHistory
Layer: 0
Undoes
EndUndoes
Redoes
EndRedoes
EndUndoRedoHistory
UndoRedoHistory
Layer: 1
Undoes
EndUndoes
Redoes
EndRedoes
EndUndoRedoHistory
Fore
SplineSet
441 442 m 1,0,-1
 225 442 l 1,1,-1
 209 360 l 1,2,-1
 426 360 l 1,3,-1
 441 442 l 1,0,-1
641 525 m 1,4,5
 644 515 644 515 644 501 c 0,6,7
 644 474 644 474 626.5 458 c 128,-1,8
 609 442 609 442 576 442 c 2,9,-1
 561 442 l 1,10,-1
 496 95 l 2,11,12
 491 67 491 67 491 49 c 0,13,14
 491 24 491 24 503 4 c 1,15,16
 474 -20 474 -20 436 -20 c 0,17,18
 402 -20 402 -20 388.5 -3 c 128,-1,19
 375 14 375 14 375 47 c 0,20,21
 375 64 375 64 386 133 c 2,22,-1
 413 290 l 1,23,-1
 195 290 l 1,24,-1
 139 0 l 1,25,-1
 22 0 l 1,26,-1
 107 442 l 1,27,-1
 44 442 l 1,28,29
 42 450 42 450 42 467 c 0,30,31
 42 494 42 494 59 509.5 c 128,-1,32
 76 525 76 525 103 525 c 2,33,-1
 123 525 l 1,34,-1
 149 660 l 1,35,-1
 268 660 l 1,36,-1
 241 525 l 1,37,-1
 457 525 l 1,38,-1
 482 660 l 1,39,-1
 601 660 l 1,40,-1
 576 525 l 1,41,-1
 641 525 l 1,4,5
EndSplineSet
Validated: 8388609
Position2: "'cpsp' Capital Spacing lookup 3 subtable" dx=5 dy=0 dh=10 dv=0
EndChar

StartChar: Hcircumflex
Encoding: 292 292 50
Width: 614
Flags: MW
HStem: 290 70<209 413 195 426> 640 20G<149 268 268 268 482 601 601 601>
VStem: 375 116<42 55>
LayerCount: 2
UndoRedoHistory
Layer: 0
Undoes
EndUndoes
Redoes
EndRedoes
EndUndoRedoHistory
UndoRedoHistory
Layer: 1
Undoes
EndUndoes
Redoes
EndRedoes
EndUndoRedoHistory
Fore
SplineSet
496 95 m 2,0,1
 491 67 491 67 491 49 c 0,2,3
 491 24 491 24 503 4 c 1,4,5
 474 -20 474 -20 436 -20 c 0,6,7
 402 -20 402 -20 388.5 -3 c 128,-1,8
 375 14 375 14 375 47 c 0,9,10
 375 64 375 64 386 133 c 2,11,-1
 413 290 l 1,12,-1
 195 290 l 1,13,-1
 139 0 l 1,14,-1
 22 0 l 1,15,-1
 149 660 l 1,16,-1
 268 660 l 1,17,-1
 209 360 l 1,18,-1
 426 360 l 1,19,-1
 482 660 l 1,20,-1
 601 660 l 1,21,-1
 496 95 l 2,0,1
481 674 m 1,22,-1
 376 746 l 1,23,-1
 246 674 l 1,24,-1
 219 723 l 1,25,-1
 382 839 l 1,26,-1
 389 839 l 1,27,-1
 521 722 l 1,28,-1
 481 674 l 1,22,-1
EndSplineSet
Validated: 1
Position2: "'cpsp' Capital Spacing lookup 3 subtable" dx=5 dy=0 dh=10 dv=0
EndChar

StartChar: Hdotbelow
Encoding: 7716 7716 51
Width: 614
Flags: MW
HStem: -180 126<221 260> 290 70<209 413 195 426> 640 20G<149 268 268 268 482 601 601 601>
VStem: 166 149<-138 -97> 375 116<42 55>
LayerCount: 2
UndoRedoHistory
Layer: 0
Undoes
EndUndoes
Redoes
EndRedoes
EndUndoRedoHistory
UndoRedoHistory
Layer: 1
Undoes
EndUndoes
Redoes
EndRedoes
EndUndoRedoHistory
Fore
SplineSet
242 -54 m 0,0,1
 275 -54 275 -54 295 -70 c 128,-1,2
 315 -86 315 -86 315 -116 c 0,3,4
 315 -147 315 -147 293.5 -163.5 c 128,-1,5
 272 -180 272 -180 239 -180 c 0,6,7
 206 -180 206 -180 186 -164 c 128,-1,8
 166 -148 166 -148 166 -118 c 0,9,10
 166 -87 166 -87 187.5 -70.5 c 128,-1,11
 209 -54 209 -54 242 -54 c 0,0,1
496 95 m 2,12,13
 491 67 491 67 491 49 c 0,14,15
 491 24 491 24 503 4 c 1,16,17
 474 -20 474 -20 436 -20 c 0,18,19
 402 -20 402 -20 388.5 -3 c 128,-1,20
 375 14 375 14 375 47 c 0,21,22
 375 64 375 64 386 133 c 2,23,-1
 413 290 l 1,24,-1
 195 290 l 1,25,-1
 139 0 l 1,26,-1
 22 0 l 1,27,-1
 149 660 l 1,28,-1
 268 660 l 1,29,-1
 209 360 l 1,30,-1
 426 360 l 1,31,-1
 482 660 l 1,32,-1
 601 660 l 1,33,-1
 496 95 l 2,12,13
EndSplineSet
Validated: 1
Position2: "'cpsp' Capital Spacing lookup 3 subtable" dx=5 dy=0 dh=10 dv=0
EndChar

StartChar: I
Encoding: 73 73 52
Width: 289
Flags: MW
HStem: 640 20G<149 268 268 268>
VStem: 22 246
LayerCount: 2
UndoRedoHistory
Layer: 0
Undoes
EndUndoes
Redoes
EndRedoes
EndUndoRedoHistory
UndoRedoHistory
Layer: 1
Undoes
EndUndoes
Redoes
EndRedoes
EndUndoRedoHistory
Fore
SplineSet
139 0 m 1,0,-1
 22 0 l 1,1,-1
 149 660 l 1,2,-1
 268 660 l 1,3,-1
 139 0 l 1,0,-1
EndSplineSet
Validated: 1
Position2: "'cpsp' Capital Spacing lookup 3 subtable" dx=5 dy=0 dh=10 dv=0
EndChar

StartChar: IJ
Encoding: 306 306 53
Width: 578
Flags: MW
HStem: 640 20G<149 268 268 268 439 558 558 558>
VStem: 22 536
LayerCount: 2
UndoRedoHistory
Layer: 0
Undoes
EndUndoes
Redoes
EndRedoes
EndUndoRedoHistory
UndoRedoHistory
Layer: 1
Undoes
EndUndoes
Redoes
EndRedoes
EndUndoRedoHistory
Fore
SplineSet
443 71 m 2,0,1
 433 20 433 20 421.5 -19 c 128,-1,2
 410 -58 410 -58 392.5 -91.5 c 128,-1,3
 375 -125 375 -125 351.5 -142.5 c 128,-1,4
 328 -160 328 -160 298 -160 c 0,5,6
 276 -160 276 -160 257.5 -150 c 128,-1,7
 239 -140 239 -140 231 -121 c 1,8,9
 252 -113 252 -113 268 -94.5 c 128,-1,10
 284 -76 284 -76 294 -49 c 128,-1,11
 304 -22 304 -22 310 -0.5 c 128,-1,12
 316 21 316 21 322 51 c 2,13,-1
 439 660 l 1,14,-1
 558 660 l 1,15,-1
 443 71 l 2,0,1
22 0 m 1,16,-1
 149 660 l 1,17,-1
 268 660 l 1,18,-1
 139 0 l 1,19,-1
 22 0 l 1,16,-1
EndSplineSet
Validated: 1
Position2: "'cpsp' Capital Spacing lookup 3 subtable" dx=5 dy=0 dh=10 dv=0
EndChar

StartChar: Iacute
Encoding: 205 205 54
Width: 289
Flags: MW
HStem: 640 20G<149 268 268 268>
VStem: 22 381
LayerCount: 2
UndoRedoHistory
Layer: 0
Undoes
EndUndoes
Redoes
EndRedoes
EndUndoRedoHistory
UndoRedoHistory
Layer: 1
Undoes
EndUndoes
Redoes
EndRedoes
EndUndoRedoHistory
Fore
SplineSet
22 0 m 1,0,-1
 149 660 l 1,1,-1
 268 660 l 1,2,-1
 139 0 l 1,3,-1
 22 0 l 1,0,-1
147 756 m 1,4,-1
 381 845 l 1,5,6
 403 831 403 831 403 800 c 0,7,8
 403 780 403 780 394.5 765.5 c 128,-1,9
 386 751 386 751 373.5 743 c 128,-1,10
 361 735 361 735 342 729.5 c 128,-1,11
 323 724 323 724 307.5 722 c 128,-1,12
 292 720 292 720 270 719 c 2,13,-1
 155 713 l 1,14,-1
 147 756 l 1,4,-1
EndSplineSet
Validated: 1
Position2: "'cpsp' Capital Spacing lookup 3 subtable" dx=5 dy=0 dh=10 dv=0
EndChar

StartChar: Ibreve
Encoding: 300 300 55
Width: 289
Flags: MW
HStem: 640 20G<149 268 268 268> 699 49<222 261 222 276>
VStem: 102 86<787 807 787 809>
LayerCount: 2
UndoRedoHistory
Layer: 0
Undoes
EndUndoes
Redoes
EndRedoes
EndUndoRedoHistory
UndoRedoHistory
Layer: 1
Undoes
EndUndoes
Redoes
EndRedoes
EndUndoRedoHistory
Fore
SplineSet
22 0 m 1,0,-1
 149 660 l 1,1,-1
 268 660 l 1,2,-1
 139 0 l 1,3,-1
 22 0 l 1,0,-1
192 832 m 1,4,5
 188 813 188 813 188 803 c 0,6,7
 188 778 188 778 201 763 c 128,-1,8
 214 748 214 748 238 748 c 0,9,10
 270 748 270 748 294.5 774.5 c 128,-1,11
 319 801 319 801 325 832 c 1,12,-1
 405 832 l 1,13,14
 394 770 394 770 346.5 734.5 c 128,-1,15
 299 699 299 699 228 699 c 0,16,17
 166 699 166 699 134 726.5 c 128,-1,18
 102 754 102 754 102 804 c 0,19,20
 102 817 102 817 105 832 c 1,21,-1
 192 832 l 1,4,5
EndSplineSet
Validated: 1
Position2: "'cpsp' Capital Spacing lookup 3 subtable" dx=5 dy=0 dh=10 dv=0
EndChar

StartChar: Icircumflex
Encoding: 206 206 56
Width: 289
Flags: MW
HStem: 640 20G<149 268 268 268>
VStem: 22 347
LayerCount: 2
UndoRedoHistory
Layer: 0
Undoes
EndUndoes
Redoes
EndRedoes
EndUndoRedoHistory
UndoRedoHistory
Layer: 1
Undoes
EndUndoes
Redoes
EndRedoes
EndUndoRedoHistory
Fore
SplineSet
22 0 m 1,0,-1
 149 660 l 1,1,-1
 268 660 l 1,2,-1
 139 0 l 1,3,-1
 22 0 l 1,0,-1
329 674 m 1,4,-1
 224 746 l 1,5,-1
 94 674 l 1,6,-1
 67 723 l 1,7,-1
 230 839 l 1,8,-1
 237 839 l 1,9,-1
 369 722 l 1,10,-1
 329 674 l 1,4,-1
EndSplineSet
Validated: 1
Position2: "'cpsp' Capital Spacing lookup 3 subtable" dx=5 dy=0 dh=10 dv=0
EndChar

StartChar: Idieresis
Encoding: 207 207 57
Width: 289
Flags: MW
HStem: 640 20G<149 268 268 268> 727 126<108 147 317 356>
VStem: 53 150<770 811> 262 150<770 811>
LayerCount: 2
UndoRedoHistory
Layer: 0
Undoes
EndUndoes
Redoes
EndRedoes
EndUndoRedoHistory
UndoRedoHistory
Layer: 1
Undoes
EndUndoes
Redoes
EndRedoes
EndUndoRedoHistory
Fore
SplineSet
22 0 m 1,0,-1
 149 660 l 1,1,-1
 268 660 l 1,2,-1
 139 0 l 1,3,-1
 22 0 l 1,0,-1
338 853 m 0,4,5
 371 853 371 853 391.5 837 c 128,-1,6
 412 821 412 821 412 791 c 0,7,8
 412 760 412 760 390 743.5 c 128,-1,9
 368 727 368 727 335 727 c 0,10,11
 302 727 302 727 282 743 c 128,-1,12
 262 759 262 759 262 789 c 0,13,14
 262 820 262 820 283.5 836.5 c 128,-1,15
 305 853 305 853 338 853 c 0,4,5
129 853 m 0,16,17
 162 853 162 853 182.5 837 c 128,-1,18
 203 821 203 821 203 791 c 0,19,20
 203 760 203 760 181 743.5 c 128,-1,21
 159 727 159 727 126 727 c 0,22,23
 93 727 93 727 73 743 c 128,-1,24
 53 759 53 759 53 789 c 0,25,26
 53 820 53 820 74.5 836.5 c 128,-1,27
 96 853 96 853 129 853 c 0,16,17
EndSplineSet
Validated: 1
Position2: "'cpsp' Capital Spacing lookup 3 subtable" dx=5 dy=0 dh=10 dv=0
EndChar

StartChar: Idotaccent
Encoding: 304 304 58
Width: 289
Flags: MW
HStem: 640 20G<149 268 268 268> 727 126<210 249>
VStem: 155 150<770 811>
LayerCount: 2
UndoRedoHistory
Layer: 0
Undoes
EndUndoes
Redoes
EndRedoes
EndUndoRedoHistory
UndoRedoHistory
Layer: 1
Undoes
EndUndoes
Redoes
EndRedoes
EndUndoRedoHistory
Fore
SplineSet
22 0 m 1,0,-1
 149 660 l 1,1,-1
 268 660 l 1,2,-1
 139 0 l 1,3,-1
 22 0 l 1,0,-1
231 853 m 0,4,5
 264 853 264 853 284.5 837 c 128,-1,6
 305 821 305 821 305 791 c 0,7,8
 305 760 305 760 283 743.5 c 128,-1,9
 261 727 261 727 228 727 c 0,10,11
 195 727 195 727 175 743 c 128,-1,12
 155 759 155 759 155 789 c 0,13,14
 155 820 155 820 176.5 836.5 c 128,-1,15
 198 853 198 853 231 853 c 0,4,5
EndSplineSet
Validated: 1
Position2: "'cpsp' Capital Spacing lookup 3 subtable" dx=5 dy=0 dh=10 dv=0
EndChar

StartChar: Idotbelow
Encoding: 7882 7882 59
Width: 289
Flags: MW
HStem: -180 126<43 82> 640 20G<149 268 268 268>
VStem: -12 149<-138 -97>
LayerCount: 2
UndoRedoHistory
Layer: 0
Undoes
EndUndoes
Redoes
EndRedoes
EndUndoRedoHistory
UndoRedoHistory
Layer: 1
Undoes
EndUndoes
Redoes
EndRedoes
EndUndoRedoHistory
Fore
SplineSet
64 -54 m 0,0,1
 97 -54 97 -54 117 -70 c 128,-1,2
 137 -86 137 -86 137 -116 c 0,3,4
 137 -147 137 -147 115.5 -163.5 c 128,-1,5
 94 -180 94 -180 61 -180 c 0,6,7
 28 -180 28 -180 8 -164 c 128,-1,8
 -12 -148 -12 -148 -12 -118 c 0,9,10
 -12 -87 -12 -87 9.5 -70.5 c 128,-1,11
 31 -54 31 -54 64 -54 c 0,0,1
22 0 m 1,12,-1
 149 660 l 1,13,-1
 268 660 l 1,14,-1
 139 0 l 1,15,-1
 22 0 l 1,12,-1
EndSplineSet
Validated: 1
Position2: "'cpsp' Capital Spacing lookup 3 subtable" dx=5 dy=0 dh=10 dv=0
EndChar

StartChar: Igrave
Encoding: 204 204 60
Width: 289
Flags: MW
HStem: 640 20G<149 268 268 268>
VStem: 22 292
LayerCount: 2
UndoRedoHistory
Layer: 0
Undoes
EndUndoes
Redoes
EndRedoes
EndUndoRedoHistory
UndoRedoHistory
Layer: 1
Undoes
EndUndoes
Redoes
EndRedoes
EndUndoRedoHistory
Fore
SplineSet
22 0 m 1,0,-1
 149 660 l 1,1,-1
 268 660 l 1,2,-1
 139 0 l 1,3,-1
 22 0 l 1,0,-1
306 713 m 1,4,-1
 191 719 l 2,5,6
 170 720 170 720 154 722 c 128,-1,7
 138 724 138 724 119 729.5 c 128,-1,8
 100 735 100 735 87.5 743 c 128,-1,9
 75 751 75 751 66.5 765.5 c 128,-1,10
 58 780 58 780 58 800 c 0,11,12
 58 831 58 831 80 845 c 1,13,-1
 314 756 l 1,14,-1
 306 713 l 1,4,-1
EndSplineSet
Validated: 1
Position2: "'cpsp' Capital Spacing lookup 3 subtable" dx=5 dy=0 dh=10 dv=0
EndChar

StartChar: Imacron
Encoding: 298 298 61
Width: 289
Flags: MW
HStem: 640 20G<149 268 268 268> 734 82<151 303 92 368>
VStem: 22 349
LayerCount: 2
UndoRedoHistory
Layer: 0
Undoes
EndUndoes
Redoes
EndRedoes
EndUndoRedoHistory
UndoRedoHistory
Layer: 1
Undoes
EndUndoes
Redoes
EndRedoes
EndUndoRedoHistory
Fore
SplineSet
22 0 m 1,0,-1
 149 660 l 1,1,-1
 268 660 l 1,2,-1
 139 0 l 1,3,-1
 22 0 l 1,0,-1
368 816 m 1,4,5
 371 806 371 806 371 792 c 0,6,7
 371 766 371 766 353.5 750 c 128,-1,8
 336 734 336 734 303 734 c 2,9,-1
 92 734 l 1,10,11
 90 742 90 742 90 758 c 0,12,13
 90 785 90 785 107 800.5 c 128,-1,14
 124 816 124 816 151 816 c 2,15,-1
 368 816 l 1,4,5
EndSplineSet
Validated: 1
Position2: "'cpsp' Capital Spacing lookup 3 subtable" dx=5 dy=0 dh=10 dv=0
EndChar

StartChar: Iogonek
Encoding: 302 302 62
Width: 289
Flags: MW
HStem: -258 62<83 112> 640 20G<149 268 268 268>
VStem: -28 73<-157 -117>
LayerCount: 2
UndoRedoHistory
Layer: 0
Undoes
EndUndoes
Redoes
EndRedoes
EndUndoRedoHistory
UndoRedoHistory
Layer: 1
Undoes
EndUndoes
Redoes
EndRedoes
EndUndoRedoHistory
Fore
SplineSet
125 0 m 1,0,1
 88 -26 88 -26 66.5 -63 c 128,-1,2
 45 -100 45 -100 45 -137 c 0,3,4
 45 -168 45 -168 58.5 -182 c 128,-1,5
 72 -196 72 -196 104 -196 c 0,6,7
 139 -196 139 -196 156 -171 c 1,8,9
 172 -184 172 -184 172 -200 c 0,10,11
 172 -224 172 -224 148 -241 c 128,-1,12
 124 -258 124 -258 87 -258 c 0,13,14
 35 -258 35 -258 3.5 -229.5 c 128,-1,15
 -28 -201 -28 -201 -28 -150 c 0,16,17
 -28 -103 -28 -103 -2 -64 c 128,-1,18
 24 -25 24 -25 65 0 c 1,19,-1
 22 0 l 1,20,-1
 149 660 l 1,21,-1
 268 660 l 1,22,-1
 141 10 l 1,23,-1
 139 0 l 1,24,-1
 125 0 l 1,0,1
EndSplineSet
Validated: 1
Position2: "'cpsp' Capital Spacing lookup 3 subtable" dx=5 dy=0 dh=10 dv=0
EndChar

StartChar: Itilde
Encoding: 296 296 63
Width: 289
Flags: MW
HStem: 640 20G<149 268 268 268> 725 85<309 342 309 343> 741 85<141 174>
VStem: 22 375
LayerCount: 2
UndoRedoHistory
Layer: 0
Undoes
EndUndoes
Redoes
EndRedoes
EndUndoRedoHistory
UndoRedoHistory
Layer: 1
Undoes
EndUndoes
Redoes
EndRedoes
EndUndoRedoHistory
Fore
SplineSet
22 0 m 1,0,-1
 149 660 l 1,1,-1
 268 660 l 1,2,-1
 139 0 l 1,3,-1
 22 0 l 1,0,-1
381 826 m 1,4,5
 397 807 397 807 397 785 c 0,6,7
 397 756 397 756 376 740.5 c 128,-1,8
 355 725 355 725 320 725 c 0,9,10
 299 725 299 725 236.5 733 c 128,-1,11
 174 741 174 741 154 741 c 0,12,13
 117 741 117 741 98 726 c 1,14,15
 81 751 81 751 81 772 c 0,16,17
 81 798 81 798 102 812 c 128,-1,18
 123 826 123 826 161 826 c 0,19,20
 184 826 184 826 247 818 c 128,-1,21
 310 810 310 810 331 810 c 0,22,23
 369 810 369 810 381 826 c 1,4,5
EndSplineSet
Validated: 8388609
Position2: "'cpsp' Capital Spacing lookup 3 subtable" dx=5 dy=0 dh=10 dv=0
EndChar

StartChar: J
Encoding: 74 74 64
Width: 289
Flags: MW
HStem: 640 20G<149 268 268 268>
VStem: -59 327
LayerCount: 2
UndoRedoHistory
Layer: 0
Undoes
EndUndoes
Redoes
EndRedoes
EndUndoRedoHistory
UndoRedoHistory
Layer: 1
Undoes
EndUndoes
Redoes
EndRedoes
EndUndoRedoHistory
Fore
SplineSet
153 71 m 2,0,1
 143 20 143 20 131.5 -19 c 128,-1,2
 120 -58 120 -58 102.5 -91.5 c 128,-1,3
 85 -125 85 -125 61.5 -142.5 c 128,-1,4
 38 -160 38 -160 8 -160 c 0,5,6
 -14 -160 -14 -160 -32.5 -150 c 128,-1,7
 -51 -140 -51 -140 -59 -121 c 1,8,9
 -38 -113 -38 -113 -22 -94.5 c 128,-1,10
 -6 -76 -6 -76 4.5 -49 c 128,-1,11
 15 -22 15 -22 20.5 -0.5 c 128,-1,12
 26 21 26 21 32 51 c 2,13,-1
 149 660 l 1,14,-1
 268 660 l 1,15,-1
 153 71 l 2,0,1
EndSplineSet
Validated: 1
Position2: "'cpsp' Capital Spacing lookup 3 subtable" dx=5 dy=0 dh=10 dv=0
EndChar

StartChar: Jcircumflex
Encoding: 308 308 65
Width: 289
Flags: MW
HStem: 640 20G<149 268 268 268>
VStem: -59 429
LayerCount: 2
UndoRedoHistory
Layer: 0
Undoes
EndUndoes
Redoes
EndRedoes
EndUndoRedoHistory
UndoRedoHistory
Layer: 1
Undoes
EndUndoes
Redoes
EndRedoes
EndUndoRedoHistory
Fore
SplineSet
153 71 m 2,0,1
 143 20 143 20 131.5 -19 c 128,-1,2
 120 -58 120 -58 102.5 -91.5 c 128,-1,3
 85 -125 85 -125 61.5 -142.5 c 128,-1,4
 38 -160 38 -160 8 -160 c 0,5,6
 -14 -160 -14 -160 -32.5 -150 c 128,-1,7
 -51 -140 -51 -140 -59 -121 c 1,8,9
 -38 -113 -38 -113 -22 -94.5 c 128,-1,10
 -6 -76 -6 -76 4.5 -49 c 128,-1,11
 15 -22 15 -22 20.5 -0.5 c 128,-1,12
 26 21 26 21 32 51 c 2,13,-1
 149 660 l 1,14,-1
 268 660 l 1,15,-1
 153 71 l 2,0,1
330 674 m 1,16,-1
 225 746 l 1,17,-1
 95 674 l 1,18,-1
 68 723 l 1,19,-1
 231 839 l 1,20,-1
 238 839 l 1,21,-1
 370 722 l 1,22,-1
 330 674 l 1,16,-1
EndSplineSet
Validated: 1
Position2: "'cpsp' Capital Spacing lookup 3 subtable" dx=5 dy=0 dh=10 dv=0
EndChar

StartChar: K
Encoding: 75 75 66
Width: 558
Flags: MW
HStem: 640 20G<149 268 268 268 469 600 600 600>
VStem: 25 575
LayerCount: 2
UndoRedoHistory
Layer: 0
Undoes
EndUndoes
Redoes
EndRedoes
EndUndoRedoHistory
UndoRedoHistory
Layer: 1
Undoes
EndUndoes
Redoes
EndRedoes
EndUndoRedoHistory
Fore
SplineSet
600 660 m 1,0,1
 543 589 543 589 480 510.5 c 128,-1,2
 417 432 417 432 384 391 c 128,-1,3
 351 350 351 350 340 336 c 1,4,5
 390 205 390 205 439.5 129 c 128,-1,6
 489 53 489 53 526 35 c 1,7,8
 520 9 520 9 499.5 -5 c 128,-1,9
 479 -19 479 -19 448 -19 c 0,10,11
 432 -19 432 -19 418.5 -15 c 128,-1,12
 405 -11 405 -11 393 -4.5 c 128,-1,13
 381 2 381 2 369 15.5 c 128,-1,14
 357 29 357 29 346.5 43.5 c 128,-1,15
 336 58 336 58 324 81 c 128,-1,16
 312 104 312 104 302 126.5 c 128,-1,17
 292 149 292 149 279 184 c 128,-1,18
 266 219 266 219 254 250.5 c 128,-1,19
 242 282 242 282 226 328 c 1,20,-1
 469 660 l 1,21,-1
 600 660 l 1,0,1
142 0 m 1,22,-1
 25 0 l 1,23,24
 123 509 123 509 149 660 c 1,25,-1
 268 660 l 1,26,-1
 142 0 l 1,22,-1
EndSplineSet
Validated: 1
Position2: "'cpsp' Capital Spacing lookup 3 subtable" dx=5 dy=0 dh=10 dv=0
EndChar

StartChar: Kcommaaccent
Encoding: 310 310 67
Width: 558
Flags: MW
HStem: 640 20G<149 268 268 268 469 600 600 600>
VStem: 203 100<-123 -90>
LayerCount: 2
UndoRedoHistory
Layer: 0
Undoes
EndUndoes
Redoes
EndRedoes
EndUndoRedoHistory
UndoRedoHistory
Layer: 1
Undoes
EndUndoes
Redoes
EndRedoes
EndUndoRedoHistory
Fore
SplineSet
303 -105 m 0,0,1
 303 -152 303 -152 263 -194.5 c 128,-1,2
 223 -237 223 -237 177 -237 c 0,3,4
 160 -237 160 -237 149 -226 c 1,5,6
 167 -202 167 -202 176.5 -186 c 128,-1,7
 186 -170 186 -170 194.5 -145.5 c 128,-1,8
 203 -121 203 -121 203 -97 c 0,9,10
 203 -80 203 -80 196 -60 c 1,11,12
 218 -49 218 -49 248 -49 c 0,13,14
 272 -49 272 -49 287.5 -63 c 128,-1,15
 303 -77 303 -77 303 -105 c 0,0,1
600 660 m 1,16,17
 543 589 543 589 480 510.5 c 128,-1,18
 417 432 417 432 384 391 c 128,-1,19
 351 350 351 350 340 336 c 1,20,21
 390 205 390 205 439.5 129 c 128,-1,22
 489 53 489 53 526 35 c 1,23,24
 520 9 520 9 499.5 -5 c 128,-1,25
 479 -19 479 -19 448 -19 c 0,26,27
 432 -19 432 -19 418.5 -15 c 128,-1,28
 405 -11 405 -11 393 -4.5 c 128,-1,29
 381 2 381 2 369 15.5 c 128,-1,30
 357 29 357 29 346.5 43.5 c 128,-1,31
 336 58 336 58 324 81 c 128,-1,32
 312 104 312 104 302 126.5 c 128,-1,33
 292 149 292 149 279 184 c 128,-1,34
 266 219 266 219 254 250.5 c 128,-1,35
 242 282 242 282 226 328 c 1,36,-1
 469 660 l 1,37,-1
 600 660 l 1,16,17
25 0 m 1,38,39
 123 509 123 509 149 660 c 1,40,-1
 268 660 l 1,41,-1
 142 0 l 1,42,-1
 25 0 l 1,38,39
EndSplineSet
Validated: 1
Position2: "'cpsp' Capital Spacing lookup 3 subtable" dx=5 dy=0 dh=10 dv=0
EndChar

StartChar: L
Encoding: 76 76 68
Width: 375
Flags: MW
HStem: 0 89<156 271> 640 20G<149 268 268 268>
VStem: 22 351<0 64>
LayerCount: 2
UndoRedoHistory
Layer: 0
Undoes
EndUndoes
Redoes
EndRedoes
EndUndoRedoHistory
UndoRedoHistory
Layer: 1
Undoes
EndUndoes
Redoes
EndRedoes
EndUndoRedoHistory
Fore
SplineSet
149 660 m 1,0,-1
 268 660 l 1,1,-1
 156 89 l 1,2,-1
 280 89 l 2,3,4
 333 89 333 89 359 101 c 1,5,6
 373 80 373 80 373 56 c 0,7,8
 373 38 373 38 364 26.5 c 128,-1,9
 355 15 355 15 339.5 9.5 c 128,-1,10
 324 4 324 4 308 2 c 128,-1,11
 292 0 292 0 271 0 c 2,12,-1
 22 0 l 1,13,-1
 149 660 l 1,0,-1
EndSplineSet
Validated: 1
Position2: "'cpsp' Capital Spacing lookup 3 subtable" dx=5 dy=0 dh=10 dv=0
EndChar

StartChar: LJ
Encoding: 455 455 69
Width: 664
Flags: MW
HStem: 0 89<156 271> 640 20G<149 268 268 268 525 644 644 644>
VStem: 22 622
LayerCount: 2
UndoRedoHistory
Layer: 0
Undoes
EndUndoes
Redoes
EndRedoes
EndUndoRedoHistory
UndoRedoHistory
Layer: 1
Undoes
EndUndoes
Redoes
EndRedoes
EndUndoRedoHistory
Fore
SplineSet
529 71 m 2,0,1
 519 20 519 20 507.5 -19 c 128,-1,2
 496 -58 496 -58 478.5 -91.5 c 128,-1,3
 461 -125 461 -125 437.5 -142.5 c 128,-1,4
 414 -160 414 -160 384 -160 c 0,5,6
 362 -160 362 -160 343.5 -150 c 128,-1,7
 325 -140 325 -140 317 -121 c 1,8,9
 338 -113 338 -113 354 -94.5 c 128,-1,10
 370 -76 370 -76 380.5 -49 c 128,-1,11
 391 -22 391 -22 396.5 -0.5 c 128,-1,12
 402 21 402 21 408 51 c 2,13,-1
 525 660 l 1,14,-1
 644 660 l 1,15,-1
 529 71 l 2,0,1
268 660 m 1,16,-1
 156 89 l 1,17,-1
 280 89 l 2,18,19
 333 89 333 89 359 101 c 1,20,21
 373 80 373 80 373 56 c 0,22,23
 373 38 373 38 364 26.5 c 128,-1,24
 355 15 355 15 339.5 9.5 c 128,-1,25
 324 4 324 4 308 2 c 128,-1,26
 292 0 292 0 271 0 c 2,27,-1
 22 0 l 1,28,-1
 149 660 l 1,29,-1
 268 660 l 1,16,-1
EndSplineSet
Validated: 1
Position2: "'cpsp' Capital Spacing lookup 3 subtable" dx=5 dy=0 dh=10 dv=0
EndChar

StartChar: Lacute
Encoding: 313 313 70
Width: 375
Flags: MW
HStem: 0 89<156 271> 640 20G<149 268 268 268>
VStem: 22 352
LayerCount: 2
UndoRedoHistory
Layer: 0
Undoes
EndUndoes
Redoes
EndRedoes
EndUndoRedoHistory
UndoRedoHistory
Layer: 1
Undoes
EndUndoes
Redoes
EndRedoes
EndUndoRedoHistory
Fore
SplineSet
268 660 m 1,0,-1
 156 89 l 1,1,-1
 280 89 l 2,2,3
 333 89 333 89 359 101 c 1,4,5
 373 80 373 80 373 56 c 0,6,7
 373 38 373 38 364 26.5 c 128,-1,8
 355 15 355 15 339.5 9.5 c 128,-1,9
 324 4 324 4 308 2 c 128,-1,10
 292 0 292 0 271 0 c 2,11,-1
 22 0 l 1,12,-1
 149 660 l 1,13,-1
 268 660 l 1,0,-1
118 756 m 1,14,-1
 352 845 l 1,15,16
 374 831 374 831 374 800 c 0,17,18
 374 780 374 780 365.5 765.5 c 128,-1,19
 357 751 357 751 345 743 c 128,-1,20
 333 735 333 735 313.5 729.5 c 128,-1,21
 294 724 294 724 278.5 722 c 128,-1,22
 263 720 263 720 241 719 c 2,23,-1
 126 713 l 1,24,-1
 118 756 l 1,14,-1
EndSplineSet
Validated: 1
Position2: "'cpsp' Capital Spacing lookup 3 subtable" dx=5 dy=0 dh=10 dv=0
EndChar

StartChar: Lcaron
Encoding: 317 317 71
Width: 375
Flags: MW
HStem: 0 89<156 271> 532 128<149 371> 640 20G<149 268 268 268> 698 20G<398 422>
VStem: 366 94<640 673>
LayerCount: 2
UndoRedoHistory
Layer: 0
Undoes
EndUndoes
Redoes
EndRedoes
EndUndoRedoHistory
UndoRedoHistory
Layer: 1
Undoes
EndUndoes
Redoes
EndRedoes
EndUndoRedoHistory
Fore
SplineSet
268 660 m 1,0,-1
 156 89 l 1,1,-1
 280 89 l 2,2,3
 333 89 333 89 359 101 c 1,4,5
 373 80 373 80 373 56 c 0,6,7
 373 38 373 38 364 26.5 c 128,-1,8
 355 15 355 15 339.5 9.5 c 128,-1,9
 324 4 324 4 308 2 c 128,-1,10
 292 0 292 0 271 0 c 2,11,-1
 22 0 l 1,12,-1
 149 660 l 1,13,-1
 268 660 l 1,0,-1
358 706 m 1,14,15
 378 718 378 718 407 718 c 0,16,17
 430 718 430 718 445 703 c 128,-1,18
 460 688 460 688 460 658 c 0,19,20
 460 608 460 608 423 570 c 128,-1,21
 386 532 386 532 344 532 c 0,22,23
 330 532 330 532 313 538 c 1,24,25
 340 571 340 571 353 600.5 c 128,-1,26
 366 630 366 630 366 666 c 0,27,28
 366 689 366 689 358 706 c 1,14,15
EndSplineSet
Validated: 8388609
Position2: "'cpsp' Capital Spacing lookup 3 subtable" dx=5 dy=0 dh=10 dv=0
EndChar

StartChar: Lcommaaccent
Encoding: 315 315 72
Width: 375
Flags: MW
HStem: 0 89<156 271> 640 20G<149 268 268 268>
VStem: 133 100<-123 -90>
LayerCount: 2
UndoRedoHistory
Layer: 0
Undoes
EndUndoes
Redoes
EndRedoes
EndUndoRedoHistory
UndoRedoHistory
Layer: 1
Undoes
EndUndoes
Redoes
EndRedoes
EndUndoRedoHistory
Fore
SplineSet
233 -105 m 0,0,1
 233 -152 233 -152 192.5 -194.5 c 128,-1,2
 152 -237 152 -237 107 -237 c 0,3,4
 90 -237 90 -237 79 -226 c 1,5,6
 96 -202 96 -202 106 -185.5 c 128,-1,7
 116 -169 116 -169 124.5 -145 c 128,-1,8
 133 -121 133 -121 133 -97 c 0,9,10
 133 -78 133 -78 126 -60 c 1,11,12
 148 -49 148 -49 178 -49 c 0,13,14
 202 -49 202 -49 217.5 -63 c 128,-1,15
 233 -77 233 -77 233 -105 c 0,0,1
268 660 m 1,16,-1
 156 89 l 1,17,-1
 280 89 l 2,18,19
 333 89 333 89 359 101 c 1,20,21
 373 80 373 80 373 56 c 0,22,23
 373 38 373 38 364 26.5 c 128,-1,24
 355 15 355 15 339.5 9.5 c 128,-1,25
 324 4 324 4 308 2 c 128,-1,26
 292 0 292 0 271 0 c 2,27,-1
 22 0 l 1,28,-1
 149 660 l 1,29,-1
 268 660 l 1,16,-1
EndSplineSet
Validated: 1
Position2: "'cpsp' Capital Spacing lookup 3 subtable" dx=5 dy=0 dh=10 dv=0
EndChar

StartChar: Ldot
Encoding: 319 319 73
Width: 375
Flags: MW
HStem: 0 89<156 271> 640 20G<149 268 268 268>
VStem: 254 121<339 357>
LayerCount: 2
UndoRedoHistory
Layer: 0
Undoes
EndUndoes
Redoes
EndRedoes
EndUndoRedoHistory
UndoRedoHistory
Layer: 1
Undoes
EndUndoes
Redoes
EndRedoes
EndUndoRedoHistory
Fore
SplineSet
327 406 m 0,0,1
 348 406 348 406 361.5 394 c 128,-1,2
 375 382 375 382 375 362 c 0,3,4
 375 330 375 330 352 310 c 128,-1,5
 329 290 329 290 301 290 c 0,6,7
 280 290 280 290 267 301.5 c 128,-1,8
 254 313 254 313 254 334 c 0,9,10
 254 366 254 366 276.5 386 c 128,-1,11
 299 406 299 406 327 406 c 0,0,1
268 660 m 1,12,-1
 156 89 l 1,13,-1
 280 89 l 2,14,15
 333 89 333 89 359 101 c 1,16,17
 373 80 373 80 373 56 c 0,18,19
 373 38 373 38 364 26.5 c 128,-1,20
 355 15 355 15 339.5 9.5 c 128,-1,21
 324 4 324 4 308 2 c 128,-1,22
 292 0 292 0 271 0 c 2,23,-1
 22 0 l 1,24,-1
 149 660 l 1,25,-1
 268 660 l 1,12,-1
EndSplineSet
Validated: 1
Ligature2: "Ligature Substitution lookup 20 subtable" L periodcentered
Position2: "'cpsp' Capital Spacing lookup 3 subtable" dx=5 dy=0 dh=10 dv=0
EndChar

StartChar: Lj
Encoding: 456 456 74
Width: 637
Flags: MW
HStem: -200 58 0 89<156 271> 502 20G<624 624> 598 126<573 612> 640 20G<149 268 268 268>
VStem: 518 149<641 682>
LayerCount: 2
UndoRedoHistory
Layer: 0
Undoes
EndUndoes
Redoes
EndRedoes
EndUndoRedoHistory
UndoRedoHistory
Layer: 1
Undoes
EndUndoes
Redoes
EndRedoes
EndUndoRedoHistory
Fore
SplineSet
525 31 m 2,0,1
 501 -90 501 -90 456.5 -145 c 128,-1,2
 412 -200 412 -200 355 -200 c 0,3,4
 294 -200 294 -200 285 -142 c 1,5,6
 341 -140 341 -140 371.5 -86.5 c 128,-1,7
 402 -33 402 -33 428 99 c 2,8,-1
 511 510 l 1,9,-1
 624 522 l 1,10,-1
 525 31 l 2,0,1
268 660 m 1,11,-1
 156 89 l 1,12,-1
 280 89 l 2,13,14
 333 89 333 89 359 101 c 1,15,16
 373 80 373 80 373 56 c 0,17,18
 373 38 373 38 364 26.5 c 128,-1,19
 355 15 355 15 339.5 9.5 c 128,-1,20
 324 4 324 4 308 2 c 128,-1,21
 292 0 292 0 271 0 c 2,22,-1
 22 0 l 1,23,-1
 149 660 l 1,24,-1
 268 660 l 1,11,-1
594 724 m 0,25,26
 627 724 627 724 647 708 c 128,-1,27
 667 692 667 692 667 662 c 0,28,29
 667 631 667 631 645.5 614.5 c 128,-1,30
 624 598 624 598 591 598 c 0,31,32
 558 598 558 598 538 614 c 128,-1,33
 518 630 518 630 518 660 c 0,34,35
 518 691 518 691 539.5 707.5 c 128,-1,36
 561 724 561 724 594 724 c 0,25,26
EndSplineSet
Validated: 8388609
Position2: "'cpsp' Capital Spacing lookup 3 subtable" dx=5 dy=0 dh=10 dv=0
EndChar

StartChar: Lslash
Encoding: 321 321 75
Width: 397
Flags: MW
HStem: 0 89<178 293> 640 20G<171 290 290 290>
VStem: -13 408<32 274>
LayerCount: 2
UndoRedoHistory
Layer: 0
Undoes
EndUndoes
Redoes
EndRedoes
EndUndoRedoHistory
UndoRedoHistory
Layer: 1
Undoes
EndUndoes
Redoes
EndRedoes
EndUndoRedoHistory
Fore
SplineSet
302 89 m 2,0,1
 355 89 355 89 381 101 c 1,2,3
 395 80 395 80 395 56 c 0,4,5
 395 38 395 38 386 26.5 c 128,-1,6
 377 15 377 15 361.5 9.5 c 128,-1,7
 346 4 346 4 329.5 2 c 128,-1,8
 313 0 313 0 293 0 c 2,9,-1
 44 0 l 1,10,-1
 93 257 l 1,11,-1
 5 225 l 1,12,13
 -1 232 -1 232 -4 236.5 c 128,-1,14
 -7 241 -7 241 -10 248.5 c 128,-1,15
 -13 256 -13 256 -13 264 c 0,16,17
 -13 300 -13 300 25 315 c 2,18,-1
 111 347 l 1,19,-1
 171 660 l 1,20,-1
 290 660 l 1,21,-1
 238 393 l 1,22,-1
 345 433 l 1,23,24
 361 419 361 419 361 391 c 0,25,26
 361 370 361 370 346.5 356.5 c 128,-1,27
 332 343 332 343 301 332 c 2,28,-1
 220 303 l 1,29,-1
 178 89 l 1,30,-1
 302 89 l 2,0,1
EndSplineSet
Validated: 1
Position2: "'cpsp' Capital Spacing lookup 3 subtable" dx=5 dy=0 dh=10 dv=0
EndChar

StartChar: M
Encoding: 77 77 76
Width: 748
Flags: MW
HStem: 518 142<214 214 621 621> 640 20G<155 304 304 304 593 745 745 745>
VStem: 574 116<68 78>
LayerCount: 2
UndoRedoHistory
Layer: 0
Undoes
EndUndoes
Redoes
EndRedoes
EndUndoRedoHistory
UndoRedoHistory
Layer: 1
Undoes
EndUndoes
Redoes
EndRedoes
EndUndoRedoHistory
Fore
SplineSet
745 660 m 1,0,-1
 693 122 l 1,1,2
 690 104 690 104 690 81 c 0,3,4
 690 40 690 40 712 16 c 1,5,6
 681 -22 681 -22 636 -22 c 0,7,8
 597 -22 597 -22 585.5 -0.5 c 128,-1,9
 574 21 574 21 574 69 c 0,10,11
 574 89 574 89 580 143 c 2,12,-1
 621 518 l 1,13,-1
 382 0 l 1,14,-1
 300 0 l 1,15,-1
 214 518 l 1,16,-1
 108 0 l 1,17,-1
 10 0 l 1,18,-1
 155 660 l 1,19,-1
 304 660 l 1,20,-1
 382 199 l 1,21,-1
 593 660 l 1,22,-1
 745 660 l 1,0,-1
EndSplineSet
Validated: 8388609
Position2: "'cpsp' Capital Spacing lookup 3 subtable" dx=5 dy=0 dh=10 dv=0
EndChar

StartChar: N
Encoding: 78 78 77
Width: 648
Flags: MW
HStem: 533 127<214 214> 640 20G<149 293 293 293 523 620 620 620>
VStem: 27 593
LayerCount: 2
UndoRedoHistory
Layer: 0
Undoes
EndUndoes
Redoes
EndRedoes
EndUndoRedoHistory
UndoRedoHistory
Layer: 1
Undoes
EndUndoes
Redoes
EndRedoes
EndUndoRedoHistory
Fore
SplineSet
27 0 m 1,0,-1
 149 660 l 1,1,-1
 293 660 l 1,2,-1
 437 144 l 1,3,-1
 523 660 l 1,4,-1
 620 660 l 1,5,-1
 500 0 l 1,6,-1
 369 0 l 1,7,-1
 214 533 l 1,8,-1
 125 0 l 1,9,-1
 27 0 l 1,0,-1
EndSplineSet
Validated: 8388609
Position2: "'cpsp' Capital Spacing lookup 3 subtable" dx=5 dy=0 dh=10 dv=0
EndChar

StartChar: NJ
Encoding: 458 458 78
Width: 938
Flags: MW
HStem: 533 127<214 214> 640 20G<149 293 293 293 523 620 620 620 798 917 917 917>
VStem: 27 890<0 660>
LayerCount: 2
UndoRedoHistory
Layer: 0
Undoes
EndUndoes
Redoes
EndRedoes
EndUndoRedoHistory
UndoRedoHistory
Layer: 1
Undoes
EndUndoes
Redoes
EndRedoes
EndUndoRedoHistory
Fore
SplineSet
802 71 m 2,0,1
 792 20 792 20 780.5 -19 c 128,-1,2
 769 -58 769 -58 751.5 -91.5 c 128,-1,3
 734 -125 734 -125 710.5 -142.5 c 128,-1,4
 687 -160 687 -160 657 -160 c 0,5,6
 635 -160 635 -160 616.5 -150 c 128,-1,7
 598 -140 598 -140 590 -121 c 1,8,9
 611 -113 611 -113 627 -94.5 c 128,-1,10
 643 -76 643 -76 653.5 -49 c 128,-1,11
 664 -22 664 -22 669.5 -0.5 c 128,-1,12
 675 21 675 21 681 51 c 2,13,-1
 798 660 l 1,14,-1
 917 660 l 1,15,-1
 802 71 l 2,0,1
149 660 m 1,16,-1
 293 660 l 1,17,-1
 437 144 l 1,18,-1
 523 660 l 1,19,-1
 620 660 l 1,20,-1
 500 0 l 1,21,-1
 369 0 l 1,22,-1
 214 533 l 1,23,-1
 125 0 l 1,24,-1
 27 0 l 1,25,-1
 149 660 l 1,16,-1
EndSplineSet
Validated: 8388609
Position2: "'cpsp' Capital Spacing lookup 3 subtable" dx=5 dy=0 dh=10 dv=0
EndChar

StartChar: Nacute
Encoding: 323 323 79
Width: 648
Flags: MW
HStem: 533 127<214 214> 640 20G<149 293 293 293 523 620 620 620>
VStem: 27 593
LayerCount: 2
UndoRedoHistory
Layer: 0
Undoes
EndUndoes
Redoes
EndRedoes
EndUndoRedoHistory
UndoRedoHistory
Layer: 1
Undoes
EndUndoes
Redoes
EndRedoes
EndUndoRedoHistory
Fore
SplineSet
149 660 m 1,0,-1
 293 660 l 1,1,-1
 437 144 l 1,2,-1
 523 660 l 1,3,-1
 620 660 l 1,4,-1
 500 0 l 1,5,-1
 369 0 l 1,6,-1
 214 533 l 1,7,-1
 125 0 l 1,8,-1
 27 0 l 1,9,-1
 149 660 l 1,0,-1
319 756 m 1,10,-1
 553 845 l 1,11,12
 575 831 575 831 575 800 c 0,13,14
 575 780 575 780 566.5 765.5 c 128,-1,15
 558 751 558 751 546 743 c 128,-1,16
 534 735 534 735 514.5 729.5 c 128,-1,17
 495 724 495 724 479 722 c 128,-1,18
 463 720 463 720 442 719 c 2,19,-1
 327 713 l 1,20,-1
 319 756 l 1,10,-1
EndSplineSet
Validated: 8388609
Substitution2: "'locl' Localized Forms in Latin lookup 13 subtable" Nacute.loclPLK
Substitution2: "'aalt' Access All Alternates lookup 0 subtable" Nacute.loclPLK
Position2: "'cpsp' Capital Spacing lookup 3 subtable" dx=5 dy=0 dh=10 dv=0
EndChar

StartChar: Ncaron
Encoding: 327 327 80
Width: 648
Flags: MW
HStem: 533 127<214 214> 640 20G<149 293 293 293 523 620 620 620>
VStem: 27 593
LayerCount: 2
UndoRedoHistory
Layer: 0
Undoes
EndUndoes
Redoes
EndRedoes
EndUndoRedoHistory
UndoRedoHistory
Layer: 1
Undoes
EndUndoes
Redoes
EndRedoes
EndUndoRedoHistory
Fore
SplineSet
149 660 m 1,0,-1
 293 660 l 1,1,-1
 437 144 l 1,2,-1
 523 660 l 1,3,-1
 620 660 l 1,4,-1
 500 0 l 1,5,-1
 369 0 l 1,6,-1
 214 533 l 1,7,-1
 125 0 l 1,8,-1
 27 0 l 1,9,-1
 149 660 l 1,0,-1
306 837 m 1,10,-1
 410 785 l 1,11,-1
 540 837 l 1,12,-1
 567 798 l 1,13,-1
 404 692 l 1,14,-1
 398 692 l 1,15,-1
 266 799 l 1,16,-1
 306 837 l 1,10,-1
EndSplineSet
Validated: 8388609
Position2: "'cpsp' Capital Spacing lookup 3 subtable" dx=5 dy=0 dh=10 dv=0
EndChar

StartChar: Ncommaaccent
Encoding: 325 325 81
Width: 648
Flags: MW
HStem: 533 127<214 214> 640 20G<149 293 293 293 523 620 620 620>
VStem: 240 100<-123 -90>
LayerCount: 2
UndoRedoHistory
Layer: 0
Undoes
EndUndoes
Redoes
EndRedoes
EndUndoRedoHistory
UndoRedoHistory
Layer: 1
Undoes
EndUndoes
Redoes
EndRedoes
EndUndoRedoHistory
Fore
SplineSet
340 -105 m 0,0,1
 340 -152 340 -152 299.5 -194.5 c 128,-1,2
 259 -237 259 -237 214 -237 c 0,3,4
 197 -237 197 -237 186 -226 c 1,5,6
 204 -202 204 -202 213.5 -186 c 128,-1,7
 223 -170 223 -170 231.5 -145.5 c 128,-1,8
 240 -121 240 -121 240 -97 c 0,9,10
 240 -80 240 -80 233 -60 c 1,11,12
 255 -49 255 -49 285 -49 c 0,13,14
 309 -49 309 -49 324.5 -63 c 128,-1,15
 340 -77 340 -77 340 -105 c 0,0,1
149 660 m 1,16,-1
 293 660 l 1,17,-1
 437 144 l 1,18,-1
 523 660 l 1,19,-1
 620 660 l 1,20,-1
 500 0 l 1,21,-1
 369 0 l 1,22,-1
 214 533 l 1,23,-1
 125 0 l 1,24,-1
 27 0 l 1,25,-1
 149 660 l 1,16,-1
EndSplineSet
Validated: 8388609
Position2: "'cpsp' Capital Spacing lookup 3 subtable" dx=5 dy=0 dh=10 dv=0
EndChar

StartChar: Ndotaccent
Encoding: 7748 7748 82
Width: 648
Flags: MW
HStem: 533 127<214 214> 640 20G<149 293 293 293 523 620 620 620> 727 126<382 421>
VStem: 327 150<770 811>
LayerCount: 2
UndoRedoHistory
Layer: 0
Undoes
EndUndoes
Redoes
EndRedoes
EndUndoRedoHistory
UndoRedoHistory
Layer: 1
Undoes
EndUndoes
Redoes
EndRedoes
EndUndoRedoHistory
Fore
SplineSet
149 660 m 1,0,-1
 293 660 l 1,1,-1
 437 144 l 1,2,-1
 523 660 l 1,3,-1
 620 660 l 1,4,-1
 500 0 l 1,5,-1
 369 0 l 1,6,-1
 214 533 l 1,7,-1
 125 0 l 1,8,-1
 27 0 l 1,9,-1
 149 660 l 1,0,-1
403 853 m 0,10,11
 436 853 436 853 456.5 837 c 128,-1,12
 477 821 477 821 477 791 c 0,13,14
 477 760 477 760 455 743.5 c 128,-1,15
 433 727 433 727 400 727 c 0,16,17
 367 727 367 727 347 743 c 128,-1,18
 327 759 327 759 327 789 c 0,19,20
 327 820 327 820 348.5 836.5 c 128,-1,21
 370 853 370 853 403 853 c 0,10,11
EndSplineSet
Validated: 8388609
Position2: "'cpsp' Capital Spacing lookup 3 subtable" dx=5 dy=0 dh=10 dv=0
EndChar

StartChar: Eng
Encoding: 330 330 83
Width: 647
Flags: MW
HStem: 533 127<214 214> 640 20G<149 293 293 293 523 620 620 620>
VStem: 27 593
LayerCount: 2
UndoRedoHistory
Layer: 0
Undoes
EndUndoes
Redoes
EndRedoes
EndUndoRedoHistory
UndoRedoHistory
Layer: 1
Undoes
EndUndoes
Redoes
EndRedoes
EndUndoRedoHistory
Fore
SplineSet
125 0 m 1,0,-1
 27 0 l 1,1,-1
 149 660 l 1,2,-1
 293 660 l 1,3,-1
 437 144 l 1,4,-1
 523 660 l 1,5,-1
 620 660 l 1,6,-1
 511 63 l 2,7,8
 502 14 502 14 491.5 -24 c 128,-1,9
 481 -62 481 -62 465.5 -94 c 128,-1,10
 450 -126 450 -126 428 -143 c 128,-1,11
 406 -160 406 -160 379 -160 c 0,12,13
 359 -160 359 -160 342 -151.5 c 128,-1,14
 325 -143 325 -143 318 -128 c 1,15,16
 378 -106 378 -106 407 0 c 1,17,-1
 369 0 l 1,18,-1
 214 533 l 1,19,-1
 125 0 l 1,0,-1
EndSplineSet
Validated: 8388609
Position2: "'cpsp' Capital Spacing lookup 3 subtable" dx=5 dy=0 dh=10 dv=0
EndChar

StartChar: Nj
Encoding: 459 459 84
Width: 911
Flags: MW
HStem: -200 58 502 20G<897 897> 533 127<214 214> 598 126<846 885> 640 20G<149 293 293 293 523 620 620 620>
VStem: 791 149<641 682>
LayerCount: 2
UndoRedoHistory
Layer: 0
Undoes
EndUndoes
Redoes
EndRedoes
EndUndoRedoHistory
UndoRedoHistory
Layer: 1
Undoes
EndUndoes
Redoes
EndRedoes
EndUndoRedoHistory
Fore
SplineSet
798 31 m 2,0,1
 774 -90 774 -90 729.5 -145 c 128,-1,2
 685 -200 685 -200 628 -200 c 0,3,4
 567 -200 567 -200 558 -142 c 1,5,6
 614 -140 614 -140 644.5 -86.5 c 128,-1,7
 675 -33 675 -33 701 99 c 2,8,-1
 784 510 l 1,9,-1
 897 522 l 1,10,-1
 798 31 l 2,0,1
149 660 m 1,11,-1
 293 660 l 1,12,-1
 437 144 l 1,13,-1
 523 660 l 1,14,-1
 620 660 l 1,15,-1
 500 0 l 1,16,-1
 369 0 l 1,17,-1
 214 533 l 1,18,-1
 125 0 l 1,19,-1
 27 0 l 1,20,-1
 149 660 l 1,11,-1
867 724 m 0,21,22
 900 724 900 724 920 708 c 128,-1,23
 940 692 940 692 940 662 c 0,24,25
 940 631 940 631 918.5 614.5 c 128,-1,26
 897 598 897 598 864 598 c 0,27,28
 831 598 831 598 811 614 c 128,-1,29
 791 630 791 630 791 660 c 0,30,31
 791 691 791 691 812.5 707.5 c 128,-1,32
 834 724 834 724 867 724 c 0,21,22
EndSplineSet
Validated: 8388609
Position2: "'cpsp' Capital Spacing lookup 3 subtable" dx=5 dy=0 dh=10 dv=0
EndChar

StartChar: Ntilde
Encoding: 209 209 85
Width: 648
Flags: MW
HStem: 533 127<214 214> 640 20G<149 293 293 293 523 620 620 620> 725 85<481 515 481 515> 741 85<313 346>
VStem: 27 593
LayerCount: 2
UndoRedoHistory
Layer: 0
Undoes
EndUndoes
Redoes
EndRedoes
EndUndoRedoHistory
UndoRedoHistory
Layer: 1
Undoes
EndUndoes
Redoes
EndRedoes
EndUndoRedoHistory
Fore
SplineSet
149 660 m 1,0,-1
 293 660 l 1,1,-1
 437 144 l 1,2,-1
 523 660 l 1,3,-1
 620 660 l 1,4,-1
 500 0 l 1,5,-1
 369 0 l 1,6,-1
 214 533 l 1,7,-1
 125 0 l 1,8,-1
 27 0 l 1,9,-1
 149 660 l 1,0,-1
553 826 m 1,10,11
 569 808 569 808 569 785 c 0,12,13
 569 756 569 756 548 740.5 c 128,-1,14
 527 725 527 725 492 725 c 0,15,16
 471 725 471 725 408.5 733 c 128,-1,17
 346 741 346 741 326 741 c 0,18,19
 289 741 289 741 270 726 c 1,20,21
 253 751 253 751 253 772 c 0,22,23
 253 798 253 798 274 812 c 128,-1,24
 295 826 295 826 333 826 c 0,25,26
 356 826 356 826 418.5 818 c 128,-1,27
 481 810 481 810 503 810 c 0,28,29
 541 810 541 810 553 826 c 1,10,11
EndSplineSet
Validated: 8388609
Position2: "'cpsp' Capital Spacing lookup 3 subtable" dx=5 dy=0 dh=10 dv=0
EndChar

StartChar: O
Encoding: 79 79 86
Width: 590
Flags: MW
HStem: -20 71<210 298 210 344> 610 70<295 381>
VStem: 26 125<146 216 146 315> 440 125<445 515>
LayerCount: 2
UndoRedoHistory
Layer: 0
Undoes
EndUndoes
Redoes
EndRedoes
EndUndoRedoHistory
UndoRedoHistory
Layer: 1
Undoes
EndUndoes
Redoes
EndRedoes
EndUndoRedoHistory
Fore
SplineSet
345 610 m 0,0,1
 309 610 309 610 281 592.5 c 128,-1,2
 253 575 253 575 234 543.5 c 128,-1,3
 215 512 215 512 202.5 478 c 128,-1,4
 190 444 190 444 180 401 c 0,5,6
 151 279 151 279 151 185 c 0,7,8
 151 51 151 51 246 51 c 0,9,10
 276 51 276 51 301 64.5 c 128,-1,11
 326 78 326 78 343 98 c 128,-1,12
 360 118 360 118 374 147.5 c 128,-1,13
 388 177 388 177 396 203 c 128,-1,14
 404 229 404 229 411 260 c 0,15,16
 423 310 423 310 431.5 371 c 128,-1,17
 440 432 440 432 440 476 c 0,18,19
 440 610 440 610 345 610 c 0,0,1
371 680 m 0,20,21
 472 680 472 680 518.5 621.5 c 128,-1,22
 565 563 565 563 565 447 c 0,23,24
 565 396 565 396 556.5 343.5 c 128,-1,25
 548 291 548 291 531 238 c 128,-1,26
 514 185 514 185 485.5 139 c 128,-1,27
 457 93 457 93 420 57 c 128,-1,28
 383 21 383 21 331.5 0.5 c 128,-1,29
 280 -20 280 -20 220 -20 c 0,30,31
 118 -20 118 -20 72 38.5 c 128,-1,32
 26 97 26 97 26 214 c 0,33,34
 26 277 26 277 38 340.5 c 128,-1,35
 50 404 50 404 77 465.5 c 128,-1,36
 104 527 104 527 143.5 574.5 c 128,-1,37
 183 622 183 622 241.5 651 c 128,-1,38
 300 680 300 680 371 680 c 0,20,21
EndSplineSet
Validated: 1
Substitution2: "Single Substitution lookup 21 subtable" ordmasculine
Substitution2: "'aalt' Access All Alternates lookup 0 subtable" ordmasculine
Position2: "'cpsp' Capital Spacing lookup 3 subtable" dx=5 dy=0 dh=10 dv=0
EndChar

StartChar: Oacute
Encoding: 211 211 87
Width: 590
Flags: MW
HStem: -20 71<210 298 210 344> 610 70<295 381>
VStem: 26 125<146 216 146 315> 440 125<445 515>
LayerCount: 2
UndoRedoHistory
Layer: 0
Undoes
EndUndoes
Redoes
EndRedoes
EndUndoRedoHistory
UndoRedoHistory
Layer: 1
Undoes
EndUndoes
Redoes
EndRedoes
EndUndoRedoHistory
Fore
SplineSet
345 610 m 0,0,1
 309 610 309 610 281 592.5 c 128,-1,2
 253 575 253 575 234 543.5 c 128,-1,3
 215 512 215 512 202.5 478 c 128,-1,4
 190 444 190 444 180 401 c 0,5,6
 151 279 151 279 151 185 c 0,7,8
 151 51 151 51 246 51 c 0,9,10
 276 51 276 51 301 64.5 c 128,-1,11
 326 78 326 78 343 98 c 128,-1,12
 360 118 360 118 374 147.5 c 128,-1,13
 388 177 388 177 396 203 c 128,-1,14
 404 229 404 229 411 260 c 0,15,16
 423 310 423 310 431.5 371 c 128,-1,17
 440 432 440 432 440 476 c 0,18,19
 440 610 440 610 345 610 c 0,0,1
371 680 m 0,20,21
 472 680 472 680 518.5 621.5 c 128,-1,22
 565 563 565 563 565 447 c 0,23,24
 565 396 565 396 556.5 343.5 c 128,-1,25
 548 291 548 291 531 238 c 128,-1,26
 514 185 514 185 485.5 139 c 128,-1,27
 457 93 457 93 420 57 c 128,-1,28
 383 21 383 21 331.5 0.5 c 128,-1,29
 280 -20 280 -20 220 -20 c 0,30,31
 118 -20 118 -20 72 38.5 c 128,-1,32
 26 97 26 97 26 214 c 0,33,34
 26 277 26 277 38 340.5 c 128,-1,35
 50 404 50 404 77 465.5 c 128,-1,36
 104 527 104 527 143.5 574.5 c 128,-1,37
 183 622 183 622 241.5 651 c 128,-1,38
 300 680 300 680 371 680 c 0,20,21
301 756 m 1,39,-1
 535 845 l 1,40,41
 557 831 557 831 557 800 c 0,42,43
 557 780 557 780 548.5 765.5 c 128,-1,44
 540 751 540 751 528 743 c 128,-1,45
 516 735 516 735 496.5 729.5 c 128,-1,46
 477 724 477 724 461 722 c 128,-1,47
 445 720 445 720 424 719 c 2,48,-1
 309 713 l 1,49,-1
 301 756 l 1,39,-1
EndSplineSet
Validated: 1
Substitution2: "'locl' Localized Forms in Latin lookup 13 subtable" Oacute.loclPLK
Substitution2: "'aalt' Access All Alternates lookup 0 subtable" Oacute.loclPLK
Position2: "'cpsp' Capital Spacing lookup 3 subtable" dx=5 dy=0 dh=10 dv=0
EndChar

StartChar: Obreve
Encoding: 334 334 88
Width: 590
Flags: MW
HStem: -20 71<210 298 210 344> 610 70<295 381> 699 49<376 415 376 430>
VStem: 26 125<146 216 146 315> 256 86<787 807 787 809> 440 125<445 515>
LayerCount: 2
UndoRedoHistory
Layer: 0
Undoes
EndUndoes
Redoes
EndRedoes
EndUndoRedoHistory
UndoRedoHistory
Layer: 1
Undoes
EndUndoes
Redoes
EndRedoes
EndUndoRedoHistory
Fore
SplineSet
345 610 m 0,0,1
 309 610 309 610 281 592.5 c 128,-1,2
 253 575 253 575 234 543.5 c 128,-1,3
 215 512 215 512 202.5 478 c 128,-1,4
 190 444 190 444 180 401 c 0,5,6
 151 279 151 279 151 185 c 0,7,8
 151 51 151 51 246 51 c 0,9,10
 276 51 276 51 301 64.5 c 128,-1,11
 326 78 326 78 343 98 c 128,-1,12
 360 118 360 118 374 147.5 c 128,-1,13
 388 177 388 177 396 203 c 128,-1,14
 404 229 404 229 411 260 c 0,15,16
 423 310 423 310 431.5 371 c 128,-1,17
 440 432 440 432 440 476 c 0,18,19
 440 610 440 610 345 610 c 0,0,1
371 680 m 0,20,21
 472 680 472 680 518.5 621.5 c 128,-1,22
 565 563 565 563 565 447 c 0,23,24
 565 396 565 396 556.5 343.5 c 128,-1,25
 548 291 548 291 531 238 c 128,-1,26
 514 185 514 185 485.5 139 c 128,-1,27
 457 93 457 93 420 57 c 128,-1,28
 383 21 383 21 331.5 0.5 c 128,-1,29
 280 -20 280 -20 220 -20 c 0,30,31
 118 -20 118 -20 72 38.5 c 128,-1,32
 26 97 26 97 26 214 c 0,33,34
 26 277 26 277 38 340.5 c 128,-1,35
 50 404 50 404 77 465.5 c 128,-1,36
 104 527 104 527 143.5 574.5 c 128,-1,37
 183 622 183 622 241.5 651 c 128,-1,38
 300 680 300 680 371 680 c 0,20,21
346 832 m 1,39,40
 342 811 342 811 342 803 c 0,41,42
 342 778 342 778 355 763 c 128,-1,43
 368 748 368 748 392 748 c 0,44,45
 424 748 424 748 448.5 774.5 c 128,-1,46
 473 801 473 801 479 832 c 1,47,-1
 559 832 l 1,48,49
 548 770 548 770 501 734.5 c 128,-1,50
 454 699 454 699 382 699 c 0,51,52
 320 699 320 699 288 726.5 c 128,-1,53
 256 754 256 754 256 804 c 0,54,55
 256 817 256 817 259 832 c 1,56,-1
 346 832 l 1,39,40
EndSplineSet
Validated: 1
Position2: "'cpsp' Capital Spacing lookup 3 subtable" dx=5 dy=0 dh=10 dv=0
EndChar

StartChar: Ocircumflex
Encoding: 212 212 89
Width: 590
Flags: MW
HStem: -20 71<210 298 210 344> 610 70<295 381>
VStem: 26 125<146 216 146 315> 440 125<445 515>
LayerCount: 2
UndoRedoHistory
Layer: 0
Undoes
EndUndoes
Redoes
EndRedoes
EndUndoRedoHistory
UndoRedoHistory
Layer: 1
Undoes
EndUndoes
Redoes
EndRedoes
EndUndoRedoHistory
Fore
SplineSet
345 610 m 0,0,1
 309 610 309 610 281 592.5 c 128,-1,2
 253 575 253 575 234 543.5 c 128,-1,3
 215 512 215 512 202.5 478 c 128,-1,4
 190 444 190 444 180 401 c 0,5,6
 151 279 151 279 151 185 c 0,7,8
 151 51 151 51 246 51 c 0,9,10
 276 51 276 51 301 64.5 c 128,-1,11
 326 78 326 78 343 98 c 128,-1,12
 360 118 360 118 374 147.5 c 128,-1,13
 388 177 388 177 396 203 c 128,-1,14
 404 229 404 229 411 260 c 0,15,16
 423 310 423 310 431.5 371 c 128,-1,17
 440 432 440 432 440 476 c 0,18,19
 440 610 440 610 345 610 c 0,0,1
371 680 m 0,20,21
 472 680 472 680 518.5 621.5 c 128,-1,22
 565 563 565 563 565 447 c 0,23,24
 565 396 565 396 556.5 343.5 c 128,-1,25
 548 291 548 291 531 238 c 128,-1,26
 514 185 514 185 485.5 139 c 128,-1,27
 457 93 457 93 420 57 c 128,-1,28
 383 21 383 21 331.5 0.5 c 128,-1,29
 280 -20 280 -20 220 -20 c 0,30,31
 118 -20 118 -20 72 38.5 c 128,-1,32
 26 97 26 97 26 214 c 0,33,34
 26 277 26 277 38 340.5 c 128,-1,35
 50 404 50 404 77 465.5 c 128,-1,36
 104 527 104 527 143.5 574.5 c 128,-1,37
 183 622 183 622 241.5 651 c 128,-1,38
 300 680 300 680 371 680 c 0,20,21
483 674 m 1,39,-1
 378 746 l 1,40,-1
 248 674 l 1,41,-1
 221 723 l 1,42,-1
 384 839 l 1,43,-1
 391 839 l 1,44,-1
 523 722 l 1,45,-1
 483 674 l 1,39,-1
EndSplineSet
Validated: 1
Position2: "'cpsp' Capital Spacing lookup 3 subtable" dx=5 dy=0 dh=10 dv=0
EndChar

StartChar: Odieresis
Encoding: 214 214 90
Width: 590
Flags: MW
HStem: -20 71<210 298 210 344> 610 70<295 381> 727 126<262 301 471 510>
VStem: 26 125<146 216 146 315> 207 150<770 811> 416 150<770 811> 440 125<445 515>
LayerCount: 2
UndoRedoHistory
Layer: 0
Undoes
EndUndoes
Redoes
EndRedoes
EndUndoRedoHistory
UndoRedoHistory
Layer: 1
Undoes
EndUndoes
Redoes
EndRedoes
EndUndoRedoHistory
Fore
SplineSet
345 610 m 0,0,1
 309 610 309 610 281 592.5 c 128,-1,2
 253 575 253 575 234 543.5 c 128,-1,3
 215 512 215 512 202.5 478 c 128,-1,4
 190 444 190 444 180 401 c 0,5,6
 151 279 151 279 151 185 c 0,7,8
 151 51 151 51 246 51 c 0,9,10
 276 51 276 51 301 64.5 c 128,-1,11
 326 78 326 78 343 98 c 128,-1,12
 360 118 360 118 374 147.5 c 128,-1,13
 388 177 388 177 396 203 c 128,-1,14
 404 229 404 229 411 260 c 0,15,16
 423 310 423 310 431.5 371 c 128,-1,17
 440 432 440 432 440 476 c 0,18,19
 440 610 440 610 345 610 c 0,0,1
371 680 m 0,20,21
 472 680 472 680 518.5 621.5 c 128,-1,22
 565 563 565 563 565 447 c 0,23,24
 565 396 565 396 556.5 343.5 c 128,-1,25
 548 291 548 291 531 238 c 128,-1,26
 514 185 514 185 485.5 139 c 128,-1,27
 457 93 457 93 420 57 c 128,-1,28
 383 21 383 21 331.5 0.5 c 128,-1,29
 280 -20 280 -20 220 -20 c 0,30,31
 118 -20 118 -20 72 38.5 c 128,-1,32
 26 97 26 97 26 214 c 0,33,34
 26 277 26 277 38 340.5 c 128,-1,35
 50 404 50 404 77 465.5 c 128,-1,36
 104 527 104 527 143.5 574.5 c 128,-1,37
 183 622 183 622 241.5 651 c 128,-1,38
 300 680 300 680 371 680 c 0,20,21
492 853 m 0,39,40
 525 853 525 853 545.5 837 c 128,-1,41
 566 821 566 821 566 791 c 0,42,43
 566 760 566 760 544 743.5 c 128,-1,44
 522 727 522 727 489 727 c 0,45,46
 456 727 456 727 436 743 c 128,-1,47
 416 759 416 759 416 789 c 0,48,49
 416 820 416 820 437.5 836.5 c 128,-1,50
 459 853 459 853 492 853 c 0,39,40
283 853 m 0,51,52
 316 853 316 853 336.5 837 c 128,-1,53
 357 821 357 821 357 791 c 0,54,55
 357 760 357 760 335 743.5 c 128,-1,56
 313 727 313 727 280 727 c 0,57,58
 247 727 247 727 227 743 c 128,-1,59
 207 759 207 759 207 789 c 0,60,61
 207 820 207 820 228.5 836.5 c 128,-1,62
 250 853 250 853 283 853 c 0,51,52
EndSplineSet
Validated: 8388609
Position2: "'cpsp' Capital Spacing lookup 3 subtable" dx=5 dy=0 dh=10 dv=0
EndChar

StartChar: Odotbelow
Encoding: 7884 7884 91
Width: 590
Flags: MW
HStem: -180 126<182 221> -20 71<210 298 210 344> 610 70<295 381>
VStem: 26 125<146 216 146 315> 127 149<-138 -97> 440 125<445 515>
LayerCount: 2
UndoRedoHistory
Layer: 0
Undoes
EndUndoes
Redoes
EndRedoes
EndUndoRedoHistory
UndoRedoHistory
Layer: 1
Undoes
EndUndoes
Redoes
EndRedoes
EndUndoRedoHistory
Fore
SplineSet
203 -54 m 0,0,1
 236 -54 236 -54 256 -70 c 128,-1,2
 276 -86 276 -86 276 -116 c 0,3,4
 276 -147 276 -147 254.5 -163.5 c 128,-1,5
 233 -180 233 -180 200 -180 c 0,6,7
 167 -180 167 -180 147 -164 c 128,-1,8
 127 -148 127 -148 127 -118 c 0,9,10
 127 -87 127 -87 148.5 -70.5 c 128,-1,11
 170 -54 170 -54 203 -54 c 0,0,1
345 610 m 0,12,13
 309 610 309 610 281 592.5 c 128,-1,14
 253 575 253 575 234 543.5 c 128,-1,15
 215 512 215 512 202.5 478 c 128,-1,16
 190 444 190 444 180 401 c 0,17,18
 151 279 151 279 151 185 c 0,19,20
 151 51 151 51 246 51 c 0,21,22
 276 51 276 51 301 64.5 c 128,-1,23
 326 78 326 78 343 98 c 128,-1,24
 360 118 360 118 374 147.5 c 128,-1,25
 388 177 388 177 396 203 c 128,-1,26
 404 229 404 229 411 260 c 0,27,28
 423 310 423 310 431.5 371 c 128,-1,29
 440 432 440 432 440 476 c 0,30,31
 440 610 440 610 345 610 c 0,12,13
371 680 m 0,32,33
 472 680 472 680 518.5 621.5 c 128,-1,34
 565 563 565 563 565 447 c 0,35,36
 565 396 565 396 556.5 343.5 c 128,-1,37
 548 291 548 291 531 238 c 128,-1,38
 514 185 514 185 485.5 139 c 128,-1,39
 457 93 457 93 420 57 c 128,-1,40
 383 21 383 21 331.5 0.5 c 128,-1,41
 280 -20 280 -20 220 -20 c 0,42,43
 118 -20 118 -20 72 38.5 c 128,-1,44
 26 97 26 97 26 214 c 0,45,46
 26 277 26 277 38 340.5 c 128,-1,47
 50 404 50 404 77 465.5 c 128,-1,48
 104 527 104 527 143.5 574.5 c 128,-1,49
 183 622 183 622 241.5 651 c 128,-1,50
 300 680 300 680 371 680 c 0,32,33
EndSplineSet
Validated: 8388609
Position2: "'cpsp' Capital Spacing lookup 3 subtable" dx=5 dy=0 dh=10 dv=0
EndChar

StartChar: Ograve
Encoding: 210 210 92
Width: 590
Flags: MW
HStem: -20 71<210 298 210 344> 610 70<295 381>
VStem: 26 125<146 216 146 315> 440 125<445 515>
LayerCount: 2
UndoRedoHistory
Layer: 0
Undoes
EndUndoes
Redoes
EndRedoes
EndUndoRedoHistory
UndoRedoHistory
Layer: 1
Undoes
EndUndoes
Redoes
EndRedoes
EndUndoRedoHistory
Fore
SplineSet
345 610 m 0,0,1
 309 610 309 610 281 592.5 c 128,-1,2
 253 575 253 575 234 543.5 c 128,-1,3
 215 512 215 512 202.5 478 c 128,-1,4
 190 444 190 444 180 401 c 0,5,6
 151 279 151 279 151 185 c 0,7,8
 151 51 151 51 246 51 c 0,9,10
 276 51 276 51 301 64.5 c 128,-1,11
 326 78 326 78 343 98 c 128,-1,12
 360 118 360 118 374 147.5 c 128,-1,13
 388 177 388 177 396 203 c 128,-1,14
 404 229 404 229 411 260 c 0,15,16
 423 310 423 310 431.5 371 c 128,-1,17
 440 432 440 432 440 476 c 0,18,19
 440 610 440 610 345 610 c 0,0,1
371 680 m 0,20,21
 472 680 472 680 518.5 621.5 c 128,-1,22
 565 563 565 563 565 447 c 0,23,24
 565 396 565 396 556.5 343.5 c 128,-1,25
 548 291 548 291 531 238 c 128,-1,26
 514 185 514 185 485.5 139 c 128,-1,27
 457 93 457 93 420 57 c 128,-1,28
 383 21 383 21 331.5 0.5 c 128,-1,29
 280 -20 280 -20 220 -20 c 0,30,31
 118 -20 118 -20 72 38.5 c 128,-1,32
 26 97 26 97 26 214 c 0,33,34
 26 277 26 277 38 340.5 c 128,-1,35
 50 404 50 404 77 465.5 c 128,-1,36
 104 527 104 527 143.5 574.5 c 128,-1,37
 183 622 183 622 241.5 651 c 128,-1,38
 300 680 300 680 371 680 c 0,20,21
461 713 m 1,39,-1
 346 719 l 2,40,41
 325 720 325 720 309 722 c 128,-1,42
 293 724 293 724 273.5 729.5 c 128,-1,43
 254 735 254 735 242 743 c 128,-1,44
 230 751 230 751 221.5 765.5 c 128,-1,45
 213 780 213 780 213 800 c 0,46,47
 213 831 213 831 235 845 c 1,48,-1
 469 756 l 1,49,-1
 461 713 l 1,39,-1
EndSplineSet
Validated: 1
Position2: "'cpsp' Capital Spacing lookup 3 subtable" dx=5 dy=0 dh=10 dv=0
EndChar

StartChar: Ohungarumlaut
Encoding: 336 336 93
Width: 590
Flags: MW
HStem: -20 71<210 298 210 344> 610 70<295 381>
VStem: 26 125<146 216 146 315> 440 125<445 515>
LayerCount: 2
UndoRedoHistory
Layer: 0
Undoes
EndUndoes
Redoes
EndRedoes
EndUndoRedoHistory
UndoRedoHistory
Layer: 1
Undoes
EndUndoes
Redoes
EndRedoes
EndUndoRedoHistory
Fore
SplineSet
345 610 m 0,0,1
 309 610 309 610 281 592.5 c 128,-1,2
 253 575 253 575 234 543.5 c 128,-1,3
 215 512 215 512 202.5 478 c 128,-1,4
 190 444 190 444 180 401 c 0,5,6
 151 279 151 279 151 185 c 0,7,8
 151 51 151 51 246 51 c 0,9,10
 276 51 276 51 301 64.5 c 128,-1,11
 326 78 326 78 343 98 c 128,-1,12
 360 118 360 118 374 147.5 c 128,-1,13
 388 177 388 177 396 203 c 128,-1,14
 404 229 404 229 411 260 c 0,15,16
 423 310 423 310 431.5 371 c 128,-1,17
 440 432 440 432 440 476 c 0,18,19
 440 610 440 610 345 610 c 0,0,1
371 680 m 0,20,21
 472 680 472 680 518.5 621.5 c 128,-1,22
 565 563 565 563 565 447 c 0,23,24
 565 396 565 396 556.5 343.5 c 128,-1,25
 548 291 548 291 531 238 c 128,-1,26
 514 185 514 185 485.5 139 c 128,-1,27
 457 93 457 93 420 57 c 128,-1,28
 383 21 383 21 331.5 0.5 c 128,-1,29
 280 -20 280 -20 220 -20 c 0,30,31
 118 -20 118 -20 72 38.5 c 128,-1,32
 26 97 26 97 26 214 c 0,33,34
 26 277 26 277 38 340.5 c 128,-1,35
 50 404 50 404 77 465.5 c 128,-1,36
 104 527 104 527 143.5 574.5 c 128,-1,37
 183 622 183 622 241.5 651 c 128,-1,38
 300 680 300 680 371 680 c 0,20,21
590 847 m 1,39,40
 614 830 614 830 614 799 c 0,41,42
 614 768 614 768 594.5 750 c 128,-1,43
 575 732 575 732 532 723 c 2,44,-1
 454 707 l 1,45,-1
 433 740 l 1,46,-1
 590 847 l 1,39,40
407 847 m 1,47,48
 430 829 430 829 430 798 c 0,49,50
 430 768 430 768 410.5 750 c 128,-1,51
 391 732 391 732 347 723 c 2,52,-1
 271 707 l 1,53,-1
 249 740 l 1,54,-1
 407 847 l 1,47,48
EndSplineSet
Validated: 1
Position2: "'cpsp' Capital Spacing lookup 3 subtable" dx=5 dy=0 dh=10 dv=0
EndChar

StartChar: Omacron
Encoding: 332 332 94
Width: 590
Flags: MW
HStem: -20 71<210 298 210 344> 610 70<295 381> 734 82<305 457 246 522>
VStem: 26 125<146 216 146 315> 440 125<445 515>
LayerCount: 2
UndoRedoHistory
Layer: 0
Undoes
EndUndoes
Redoes
EndRedoes
EndUndoRedoHistory
UndoRedoHistory
Layer: 1
Undoes
EndUndoes
Redoes
EndRedoes
EndUndoRedoHistory
Fore
SplineSet
345 610 m 0,0,1
 309 610 309 610 281 592.5 c 128,-1,2
 253 575 253 575 234 543.5 c 128,-1,3
 215 512 215 512 202.5 478 c 128,-1,4
 190 444 190 444 180 401 c 0,5,6
 151 279 151 279 151 185 c 0,7,8
 151 51 151 51 246 51 c 0,9,10
 276 51 276 51 301 64.5 c 128,-1,11
 326 78 326 78 343 98 c 128,-1,12
 360 118 360 118 374 147.5 c 128,-1,13
 388 177 388 177 396 203 c 128,-1,14
 404 229 404 229 411 260 c 0,15,16
 423 310 423 310 431.5 371 c 128,-1,17
 440 432 440 432 440 476 c 0,18,19
 440 610 440 610 345 610 c 0,0,1
371 680 m 0,20,21
 472 680 472 680 518.5 621.5 c 128,-1,22
 565 563 565 563 565 447 c 0,23,24
 565 396 565 396 556.5 343.5 c 128,-1,25
 548 291 548 291 531 238 c 128,-1,26
 514 185 514 185 485.5 139 c 128,-1,27
 457 93 457 93 420 57 c 128,-1,28
 383 21 383 21 331.5 0.5 c 128,-1,29
 280 -20 280 -20 220 -20 c 0,30,31
 118 -20 118 -20 72 38.5 c 128,-1,32
 26 97 26 97 26 214 c 0,33,34
 26 277 26 277 38 340.5 c 128,-1,35
 50 404 50 404 77 465.5 c 128,-1,36
 104 527 104 527 143.5 574.5 c 128,-1,37
 183 622 183 622 241.5 651 c 128,-1,38
 300 680 300 680 371 680 c 0,20,21
522 816 m 1,39,40
 525 806 525 806 525 792 c 0,41,42
 525 766 525 766 507.5 750 c 128,-1,43
 490 734 490 734 457 734 c 2,44,-1
 246 734 l 1,45,46
 244 742 244 742 244 758 c 0,47,48
 244 785 244 785 261 800.5 c 128,-1,49
 278 816 278 816 305 816 c 2,50,-1
 522 816 l 1,39,40
EndSplineSet
Validated: 1
Position2: "'cpsp' Capital Spacing lookup 3 subtable" dx=5 dy=0 dh=10 dv=0
EndChar

StartChar: Oogonek
Encoding: 490 490 95
Width: 590
Flags: MW
HStem: -258 62<293 323> -20 71<210 225> 610 70<295 381>
VStem: 26 125<146 216 146 315> 183 73<-157 -123> 440 125<445 515>
LayerCount: 2
UndoRedoHistory
Layer: 0
Undoes
EndUndoes
Redoes
EndRedoes
EndUndoRedoHistory
UndoRedoHistory
Layer: 1
Undoes
EndUndoes
Redoes
EndRedoes
EndUndoRedoHistory
Fore
SplineSet
151 185 m 0,0,1
 151 51 151 51 246 51 c 0,2,3
 276 51 276 51 301 64.5 c 128,-1,4
 326 78 326 78 343 98 c 128,-1,5
 360 118 360 118 374 147.5 c 128,-1,6
 388 177 388 177 396 203 c 128,-1,7
 404 229 404 229 411 260 c 0,8,9
 423 310 423 310 431.5 371 c 128,-1,10
 440 432 440 432 440 476 c 0,11,12
 440 610 440 610 345 610 c 0,13,14
 309 610 309 610 281 592.5 c 128,-1,15
 253 575 253 575 234 543.5 c 128,-1,16
 215 512 215 512 202.5 478 c 128,-1,17
 190 444 190 444 180 401 c 0,18,19
 151 279 151 279 151 185 c 0,0,1
351 9 m 1,20,21
 308 -16 308 -16 282 -56 c 128,-1,22
 256 -96 256 -96 256 -137 c 0,23,24
 256 -168 256 -168 269.5 -182 c 128,-1,25
 283 -196 283 -196 315 -196 c 0,26,27
 351 -196 351 -196 367 -171 c 1,28,29
 383 -183 383 -183 383 -200 c 0,30,31
 383 -224 383 -224 359 -241 c 128,-1,32
 335 -258 335 -258 298 -258 c 0,33,34
 246 -258 246 -258 214.5 -229.5 c 128,-1,35
 183 -201 183 -201 183 -150 c 0,36,37
 183 -75 183 -75 250 -19 c 1,38,39
 241 -20 241 -20 220 -20 c 0,40,41
 118 -20 118 -20 72 38.5 c 128,-1,42
 26 97 26 97 26 214 c 0,43,44
 26 277 26 277 38 340.5 c 128,-1,45
 50 404 50 404 77 465.5 c 128,-1,46
 104 527 104 527 143.5 574.5 c 128,-1,47
 183 622 183 622 241.5 651 c 128,-1,48
 300 680 300 680 371 680 c 0,49,50
 472 680 472 680 518.5 621.5 c 128,-1,51
 565 563 565 563 565 447 c 0,52,53
 565 385 565 385 552.5 321.5 c 128,-1,54
 540 258 540 258 515.5 197 c 128,-1,55
 491 136 491 136 448.5 86 c 128,-1,56
 406 36 406 36 351 9 c 1,20,21
EndSplineSet
Validated: 1
Position2: "'cpsp' Capital Spacing lookup 3 subtable" dx=5 dy=0 dh=10 dv=0
EndChar

StartChar: Oslash
Encoding: 216 216 96
Width: 607
Flags: MW
HStem: -20 71<235 340 235 361> 610 70<312 386> 693 20G<594 603>
VStem: 43 127<235 235 235 315> 456 126<446 446>
LayerCount: 2
UndoRedoHistory
Layer: 0
Undoes
EndUndoes
Redoes
EndRedoes
EndUndoRedoHistory
UndoRedoHistory
Layer: 1
Undoes
EndUndoes
Redoes
EndRedoes
EndUndoRedoHistory
Fore
SplineSet
173 133 m 1,0,1
 188 51 188 51 262 51 c 0,2,3
 290 51 290 51 314 61 c 128,-1,4
 338 71 338 71 356 95 c 128,-1,5
 374 119 374 119 387.5 139.5 c 128,-1,6
 401 160 401 160 412 199.5 c 128,-1,7
 423 239 423 239 429 260 c 128,-1,8
 435 281 435 281 441.5 326.5 c 128,-1,9
 448 372 448 372 449.5 384 c 128,-1,10
 451 396 451 396 455 437 c 0,11,12
 455 439 455 439 455.5 440 c 0,13,14
 456 440 456 440 456 442 c 2,15,-1
 456 446 l 1,16,-1
 173 133 l 1,0,1
448 545 m 1,17,18
 428 610 428 610 361 610 c 0,19,20
 333 610 333 610 308.5 598 c 128,-1,21
 284 586 284 586 267 566.5 c 128,-1,22
 250 547 250 547 236.5 519 c 128,-1,23
 223 491 223 491 214 463 c 128,-1,24
 205 435 205 435 197 401 c 0,25,26
 177 318 177 318 170 235 c 1,27,-1
 448 545 l 1,17,18
550 658 m 2,28,29
 576 686 576 686 594 713 c 1,30,31
 608 713 608 713 621.5 699.5 c 128,-1,32
 635 686 635 686 635 666 c 0,33,34
 635 645 635 645 616 623 c 2,35,-1
 565 566 l 1,36,37
 582 520 582 520 582 447 c 0,38,39
 582 403 582 403 576 358 c 128,-1,40
 570 313 570 313 556.5 267 c 128,-1,41
 543 221 543 221 524 179.5 c 128,-1,42
 505 138 505 138 476.5 101 c 128,-1,43
 448 64 448 64 413.5 37.5 c 128,-1,44
 379 11 379 11 334 -4.5 c 128,-1,45
 289 -20 289 -20 237 -20 c 0,46,47
 135 -20 135 -20 89 39 c 1,48,-1
 57 5 l 2,49,50
 34 -20 34 -20 13 -54 c 1,51,52
 -6 -54 -6 -54 -17 -42 c 128,-1,53
 -28 -30 -28 -30 -29 -12 c 1,54,55
 -29 13 -29 13 -11 33 c 2,56,-1
 56 107 l 1,57,58
 43 153 43 153 43 214 c 0,59,60
 43 277 43 277 55 340.5 c 128,-1,61
 67 404 67 404 94.5 465.5 c 128,-1,62
 122 527 122 527 161 574.5 c 128,-1,63
 200 622 200 622 258.5 651 c 128,-1,64
 317 680 317 680 388 680 c 0,65,66
 479 680 479 680 526 631 c 1,67,-1
 550 658 l 2,28,29
EndSplineSet
Validated: 524289
Position2: "'cpsp' Capital Spacing lookup 3 subtable" dx=5 dy=0 dh=10 dv=0
EndChar

StartChar: Oslashacute
Encoding: 510 510 97
Width: 607
Flags: MW
HStem: -20 71<235 340 235 361> 610 70<312 386> 693 20G<301 301 594 603>
VStem: 43 127<235 235 235 315> 456 126<446 446>
LayerCount: 2
UndoRedoHistory
Layer: 0
Undoes
EndUndoes
Redoes
EndRedoes
EndUndoRedoHistory
UndoRedoHistory
Layer: 1
Undoes
EndUndoes
Redoes
EndRedoes
EndUndoRedoHistory
Fore
SplineSet
173 133 m 1,0,1
 188 51 188 51 262 51 c 0,2,3
 290 51 290 51 314 61 c 128,-1,4
 338 71 338 71 356 95 c 128,-1,5
 374 119 374 119 387.5 139.5 c 128,-1,6
 401 160 401 160 412 199.5 c 128,-1,7
 423 239 423 239 429 260 c 128,-1,8
 435 281 435 281 441.5 326.5 c 128,-1,9
 448 372 448 372 449.5 384 c 128,-1,10
 451 396 451 396 455 437 c 0,11,12
 455 439 455 439 455.5 440 c 0,13,14
 456 440 456 440 456 442 c 2,15,-1
 456 446 l 1,16,-1
 173 133 l 1,0,1
448 545 m 1,17,18
 428 610 428 610 361 610 c 0,19,20
 333 610 333 610 308.5 598 c 128,-1,21
 284 586 284 586 267 566.5 c 128,-1,22
 250 547 250 547 236.5 519 c 128,-1,23
 223 491 223 491 214 463 c 128,-1,24
 205 435 205 435 197 401 c 0,25,26
 177 318 177 318 170 235 c 1,27,-1
 448 545 l 1,17,18
550 658 m 2,28,29
 576 686 576 686 594 713 c 1,30,31
 608 713 608 713 621.5 699.5 c 128,-1,32
 635 686 635 686 635 666 c 0,33,34
 635 645 635 645 616 623 c 2,35,-1
 565 566 l 1,36,37
 582 520 582 520 582 447 c 0,38,39
 582 403 582 403 576 358 c 128,-1,40
 570 313 570 313 556.5 267 c 128,-1,41
 543 221 543 221 524 179.5 c 128,-1,42
 505 138 505 138 476.5 101 c 128,-1,43
 448 64 448 64 413.5 37.5 c 128,-1,44
 379 11 379 11 334 -4.5 c 128,-1,45
 289 -20 289 -20 237 -20 c 0,46,47
 135 -20 135 -20 89 39 c 1,48,-1
 57 5 l 2,49,50
 34 -20 34 -20 13 -54 c 1,51,52
 -6 -54 -6 -54 -17 -42 c 128,-1,53
 -28 -30 -28 -30 -29 -12 c 1,54,55
 -29 13 -29 13 -11 33 c 2,56,-1
 56 107 l 1,57,58
 43 153 43 153 43 214 c 0,59,60
 43 277 43 277 55 340.5 c 128,-1,61
 67 404 67 404 94.5 465.5 c 128,-1,62
 122 527 122 527 161 574.5 c 128,-1,63
 200 622 200 622 258.5 651 c 128,-1,64
 317 680 317 680 388 680 c 0,65,66
 479 680 479 680 526 631 c 1,67,-1
 550 658 l 2,28,29
293 756 m 1,68,-1
 527 845 l 1,69,70
 549 831 549 831 549 800 c 0,71,72
 549 780 549 780 540.5 765.5 c 128,-1,73
 532 751 532 751 519.5 743 c 128,-1,74
 507 735 507 735 488 729.5 c 128,-1,75
 469 724 469 724 453.5 722 c 128,-1,76
 438 720 438 720 416 719 c 2,77,-1
 301 713 l 1,78,-1
 293 756 l 1,68,-1
EndSplineSet
Validated: 524289
Position2: "'cpsp' Capital Spacing lookup 3 subtable" dx=5 dy=0 dh=10 dv=0
EndChar

StartChar: Otilde
Encoding: 213 213 98
Width: 590
Flags: MW
HStem: -20 71<210 298 210 344> 610 70<295 381> 725 85<463 497 463 497> 741 85<295 328>
VStem: 26 125<146 216 146 315> 440 125<445 515>
LayerCount: 2
UndoRedoHistory
Layer: 0
Undoes
EndUndoes
Redoes
EndRedoes
EndUndoRedoHistory
UndoRedoHistory
Layer: 1
Undoes
EndUndoes
Redoes
EndRedoes
EndUndoRedoHistory
Fore
SplineSet
345 610 m 0,0,1
 309 610 309 610 281 592.5 c 128,-1,2
 253 575 253 575 234 543.5 c 128,-1,3
 215 512 215 512 202.5 478 c 128,-1,4
 190 444 190 444 180 401 c 0,5,6
 151 279 151 279 151 185 c 0,7,8
 151 51 151 51 246 51 c 0,9,10
 276 51 276 51 301 64.5 c 128,-1,11
 326 78 326 78 343 98 c 128,-1,12
 360 118 360 118 374 147.5 c 128,-1,13
 388 177 388 177 396 203 c 128,-1,14
 404 229 404 229 411 260 c 0,15,16
 423 310 423 310 431.5 371 c 128,-1,17
 440 432 440 432 440 476 c 0,18,19
 440 610 440 610 345 610 c 0,0,1
371 680 m 0,20,21
 472 680 472 680 518.5 621.5 c 128,-1,22
 565 563 565 563 565 447 c 0,23,24
 565 396 565 396 556.5 343.5 c 128,-1,25
 548 291 548 291 531 238 c 128,-1,26
 514 185 514 185 485.5 139 c 128,-1,27
 457 93 457 93 420 57 c 128,-1,28
 383 21 383 21 331.5 0.5 c 128,-1,29
 280 -20 280 -20 220 -20 c 0,30,31
 118 -20 118 -20 72 38.5 c 128,-1,32
 26 97 26 97 26 214 c 0,33,34
 26 277 26 277 38 340.5 c 128,-1,35
 50 404 50 404 77 465.5 c 128,-1,36
 104 527 104 527 143.5 574.5 c 128,-1,37
 183 622 183 622 241.5 651 c 128,-1,38
 300 680 300 680 371 680 c 0,20,21
535 826 m 1,39,40
 551 808 551 808 551 785 c 0,41,42
 551 756 551 756 530 740.5 c 128,-1,43
 509 725 509 725 474 725 c 0,44,45
 453 725 453 725 390.5 733 c 128,-1,46
 328 741 328 741 308 741 c 0,47,48
 271 741 271 741 252 726 c 1,49,50
 235 751 235 751 235 772 c 0,51,52
 235 798 235 798 256 812 c 128,-1,53
 277 826 277 826 315 826 c 0,54,55
 338 826 338 826 400.5 818 c 128,-1,56
 463 810 463 810 485 810 c 0,57,58
 523 810 523 810 535 826 c 1,39,40
EndSplineSet
Validated: 8388609
Position2: "'cpsp' Capital Spacing lookup 3 subtable" dx=5 dy=0 dh=10 dv=0
EndChar

StartChar: OE
Encoding: 338 338 99
Width: 790
Flags: MW
HStem: -20 71<209 267> -20 87<600 613> 295 82<620 664> 565 95<682 733> 592 68<567 567> 609 71<294 380>
VStem: 25 126<150 218 150 318>
LayerCount: 2
UndoRedoHistory
Layer: 0
Undoes
EndUndoes
Redoes
EndRedoes
EndUndoRedoHistory
UndoRedoHistory
Layer: 1
Undoes
EndUndoes
Redoes
EndRedoes
EndUndoRedoHistory
Fore
SplineSet
245 51 m 0,0,1
 360 51 360 51 409 261 c 0,2,3
 421 310 421 310 429.5 369.5 c 128,-1,4
 438 429 438 429 438 472 c 0,5,6
 438 609 438 609 345 609 c 0,7,8
 316 609 316 609 291.5 596 c 128,-1,9
 267 583 267 583 250 562.5 c 128,-1,10
 233 542 233 542 219 513 c 128,-1,11
 205 484 205 484 196.5 457.5 c 128,-1,12
 188 431 188 431 180 399 c 0,13,14
 151 279 151 279 151 188 c 0,15,16
 151 51 151 51 245 51 c 0,0,1
733 377 m 1,17,18
 733 295 733 295 636 295 c 0,19,20
 584 295 584 295 542 314 c 1,21,22
 530 191 530 191 530 167 c 0,23,24
 530 110 530 110 555 88.5 c 128,-1,25
 580 67 580 67 632 67 c 0,26,27
 676 67 676 67 716 81 c 1,28,29
 722 68 722 68 722 52 c 0,30,31
 722 31 722 31 709 16.5 c 128,-1,32
 696 2 696 2 674.5 -5.5 c 128,-1,33
 653 -13 653 -13 630.5 -16.5 c 128,-1,34
 608 -20 608 -20 585 -20 c 0,35,36
 526 -20 526 -20 485 1 c 128,-1,37
 444 22 444 22 426 63 c 1,38,39
 382 20 382 20 334.5 0 c 128,-1,40
 287 -20 287 -20 226 -20 c 0,41,42
 120 -20 120 -20 72.5 37 c 128,-1,43
 25 94 25 94 25 211 c 0,44,45
 25 266 25 266 34.5 320.5 c 128,-1,46
 44 375 44 375 62 427.5 c 128,-1,47
 80 480 80 480 109 526 c 128,-1,48
 138 572 138 572 174 606.5 c 128,-1,49
 210 641 210 641 258.5 660.5 c 128,-1,50
 307 680 307 680 362 680 c 0,51,52
 423 680 423 680 467 660 c 1,53,-1
 810 660 l 1,54,55
 810 613 810 613 780.5 589 c 128,-1,56
 751 565 751 565 702 565 c 0,57,58
 672 565 672 565 633.5 573 c 128,-1,59
 595 581 595 581 567 592 c 1,60,-1
 548 377 l 1,61,-1
 733 377 l 1,17,18
EndSplineSet
Validated: 8388609
Position2: "'cpsp' Capital Spacing lookup 3 subtable" dx=5 dy=0 dh=10 dv=0
EndChar

StartChar: P
Encoding: 80 80 100
Width: 506
Flags: MW
HStem: 277 47<259 397> 603 66<313 356>
VStem: 415 124<438 530>
LayerCount: 2
UndoRedoHistory
Layer: 0
Undoes
EndUndoes
Redoes
EndRedoes
EndUndoRedoHistory
UndoRedoHistory
Layer: 1
Undoes
EndUndoes
Redoes
EndRedoes
EndUndoRedoHistory
Fore
SplineSet
22 0 m 1,0,-1
 149 660 l 1,1,2
 243 669 243 669 318 669 c 0,3,4
 360 669 360 669 392 665 c 128,-1,5
 424 661 424 661 452.5 650 c 128,-1,6
 481 639 481 639 499.5 620.5 c 128,-1,7
 518 602 518 602 528.5 572 c 128,-1,8
 539 542 539 542 539 502 c 0,9,10
 539 404 539 404 483 340.5 c 128,-1,11
 427 277 427 277 334 277 c 0,12,13
 312 277 312 277 293 281 c 128,-1,14
 274 285 274 285 257.5 296.5 c 128,-1,15
 241 308 241 308 237 326 c 1,16,17
 246 324 246 324 265 324 c 0,18,19
 333 324 333 324 374 367.5 c 128,-1,20
 415 411 415 411 415 495 c 0,21,22
 415 549 415 549 393.5 576 c 128,-1,23
 372 603 372 603 321 603 c 0,24,25
 290 603 290 603 255 596 c 1,26,-1
 139 0 l 1,27,-1
 22 0 l 1,0,-1
EndSplineSet
Validated: 1
Position2: "'cpsp' Capital Spacing lookup 3 subtable" dx=5 dy=0 dh=10 dv=0
EndChar

StartChar: Thorn
Encoding: 222 222 101
Width: 500
Flags: MW
HStem: 149 48<233 373> 468 70<302 323> 640 20G<149 268 268 268>
VStem: 391 124<311 396>
LayerCount: 2
UndoRedoHistory
Layer: 0
Undoes
EndUndoes
Redoes
EndRedoes
EndUndoRedoHistory
UndoRedoHistory
Layer: 1
Undoes
EndUndoes
Redoes
EndRedoes
EndUndoRedoHistory
Fore
SplineSet
243 536 m 1,0,1
 289 538 289 538 312 538 c 0,2,3
 417 538 417 538 466 501 c 128,-1,4
 515 464 515 464 515 376 c 0,5,6
 515 276 515 276 459 212.5 c 128,-1,7
 403 149 403 149 310 149 c 0,8,9
 288 149 288 149 269 153 c 128,-1,10
 250 157 250 157 233.5 168.5 c 128,-1,11
 217 180 217 180 213 198 c 1,12,13
 231 197 231 197 239 197 c 0,14,15
 313 197 313 197 352 239.5 c 128,-1,16
 391 282 391 282 391 357 c 0,17,18
 391 416 391 416 366 442 c 128,-1,19
 341 468 341 468 287 468 c 0,20,21
 259 468 259 468 229 461 c 1,22,-1
 139 0 l 1,23,-1
 22 0 l 1,24,-1
 149 660 l 1,25,-1
 268 660 l 1,26,-1
 243 536 l 1,0,1
EndSplineSet
Validated: 1
Position2: "'cpsp' Capital Spacing lookup 3 subtable" dx=5 dy=0 dh=10 dv=0
EndChar

StartChar: Q
Encoding: 81 81 102
Width: 591
Flags: MW
HStem: -147 102<397 451 396 470> 93 39 610 70<314 400>
VStem: 41 127<188 227 179 311> 454 126<441 511>
LayerCount: 2
UndoRedoHistory
Layer: 0
Undoes
EndUndoes
Redoes
EndRedoes
EndUndoRedoHistory
UndoRedoHistory
Layer: 1
Undoes
EndUndoes
Redoes
EndRedoes
EndUndoRedoHistory
Fore
SplineSet
386 680 m 0,0,1
 487 680 487 680 533.5 622 c 128,-1,2
 580 564 580 564 580 449 c 0,3,4
 580 396 580 396 570.5 341.5 c 128,-1,5
 561 287 561 287 543 234 c 128,-1,6
 525 181 525 181 496.5 135 c 128,-1,7
 468 89 468 89 432.5 54.5 c 128,-1,8
 397 20 397 20 349.5 0 c 128,-1,9
 302 -20 302 -20 249 -20 c 1,10,11
 252 -20 252 -20 267.5 -23.5 c 128,-1,12
 283 -27 283 -27 294 -29 c 128,-1,13
 305 -31 305 -31 324.5 -34.5 c 128,-1,14
 344 -38 344 -38 359.5 -40 c 128,-1,15
 375 -42 375 -42 395 -43.5 c 128,-1,16
 415 -45 415 -45 432 -45 c 0,17,18
 500 -45 500 -45 535 -23 c 1,19,20
 548 -46 548 -46 548 -73 c 0,21,22
 548 -113 548 -113 518.5 -130 c 128,-1,23
 489 -147 489 -147 443 -147 c 0,24,25
 396 -147 396 -147 302 -123 c 128,-1,26
 208 -99 208 -99 170 -99 c 0,27,28
 132 -99 132 -99 103 -111 c 1,29,30
 78 -90 78 -90 78 -53 c 0,31,32
 78 -36 78 -36 85.5 -23 c 128,-1,33
 93 -10 93 -10 103 -3 c 128,-1,34
 113 4 113 4 128.5 9.5 c 128,-1,35
 144 15 144 15 155 17 c 128,-1,36
 166 19 166 19 181 21 c 0,37,38
 208 25 208 25 229 29.5 c 128,-1,39
 250 34 250 34 272 42.5 c 128,-1,40
 294 51 294 51 311 62.5 c 128,-1,41
 328 74 328 74 345.5 91.5 c 128,-1,42
 363 109 363 109 376.5 132.5 c 128,-1,43
 390 156 390 156 402.5 188.5 c 128,-1,44
 415 221 415 221 425 261 c 0,45,46
 454 381 454 381 454 474 c 0,47,48
 454 610 454 610 364 610 c 0,49,50
 247 610 247 610 196 400 c 0,51,52
 184 352 184 352 176 295.5 c 128,-1,53
 168 239 168 239 168 201 c 0,54,55
 168 167 168 167 177.5 151.5 c 128,-1,56
 187 136 187 136 213 132 c 1,57,58
 213 115 213 115 197 104 c 128,-1,59
 181 93 181 93 149 93 c 0,60,61
 41 93 41 93 41 236 c 0,62,63
 41 269 41 269 46.5 307.5 c 128,-1,64
 52 346 52 346 64.5 389 c 128,-1,65
 77 432 77 432 95.5 473 c 128,-1,66
 114 514 114 514 142 552 c 128,-1,67
 170 590 170 590 204.5 618 c 128,-1,68
 239 646 239 646 286 663 c 128,-1,69
 333 680 333 680 386 680 c 0,0,1
EndSplineSet
Validated: 1
Position2: "'cpsp' Capital Spacing lookup 3 subtable" dx=5 dy=0 dh=10 dv=0
EndChar

StartChar: R
Encoding: 82 82 103
Width: 565
Flags: MW
HStem: 603 66<301 348>
VStem: 414 125<444 525>
LayerCount: 2
UndoRedoHistory
Layer: 0
Undoes
EndUndoes
Redoes
EndRedoes
EndUndoRedoHistory
UndoRedoHistory
Layer: 1
Undoes
EndUndoes
Redoes
EndRedoes
EndUndoRedoHistory
Fore
SplineSet
149 660 m 1,0,1
 243 669 243 669 318 669 c 0,2,3
 360 669 360 669 392 665 c 128,-1,4
 424 661 424 661 452.5 650 c 128,-1,5
 481 639 481 639 499.5 620.5 c 128,-1,6
 518 602 518 602 528.5 572 c 128,-1,7
 539 542 539 542 539 502 c 0,8,9
 539 414 539 414 493.5 353 c 128,-1,10
 448 292 448 292 371 280 c 1,11,12
 416 174 416 174 459.5 112.5 c 128,-1,13
 503 51 503 51 536 35 c 1,14,15
 529 7 529 7 508 -6 c 128,-1,16
 487 -19 487 -19 458 -19 c 0,17,18
 436 -19 436 -19 416.5 -11 c 128,-1,19
 397 -3 397 -3 379.5 15.5 c 128,-1,20
 362 34 362 34 346.5 59 c 128,-1,21
 331 84 331 84 312.5 126 c 128,-1,22
 294 168 294 168 277 213.5 c 128,-1,23
 260 259 260 259 237 326 c 1,24,25
 249 325 249 325 262 325 c 0,26,27
 337 325 337 325 375.5 367.5 c 128,-1,28
 414 410 414 410 414 487 c 0,29,30
 414 546 414 546 389.5 574.5 c 128,-1,31
 365 603 365 603 312 603 c 0,32,33
 285 603 285 603 255 596 c 1,34,-1
 139 0 l 1,35,-1
 22 0 l 1,36,-1
 149 660 l 1,0,1
EndSplineSet
Validated: 1
Position2: "'cpsp' Capital Spacing lookup 3 subtable" dx=5 dy=0 dh=10 dv=0
EndChar

StartChar: Racute
Encoding: 340 340 104
Width: 565
Flags: MW
HStem: 603 66<301 348>
VStem: 414 125<444 525>
LayerCount: 2
UndoRedoHistory
Layer: 0
Undoes
EndUndoes
Redoes
EndRedoes
EndUndoRedoHistory
UndoRedoHistory
Layer: 1
Undoes
EndUndoes
Redoes
EndRedoes
EndUndoRedoHistory
Fore
SplineSet
149 660 m 1,0,1
 243 669 243 669 318 669 c 0,2,3
 360 669 360 669 392 665 c 128,-1,4
 424 661 424 661 452.5 650 c 128,-1,5
 481 639 481 639 499.5 620.5 c 128,-1,6
 518 602 518 602 528.5 572 c 128,-1,7
 539 542 539 542 539 502 c 0,8,9
 539 414 539 414 493.5 353 c 128,-1,10
 448 292 448 292 371 280 c 1,11,12
 416 174 416 174 459.5 112.5 c 128,-1,13
 503 51 503 51 536 35 c 1,14,15
 529 7 529 7 508 -6 c 128,-1,16
 487 -19 487 -19 458 -19 c 0,17,18
 436 -19 436 -19 416.5 -11 c 128,-1,19
 397 -3 397 -3 379.5 15.5 c 128,-1,20
 362 34 362 34 346.5 59 c 128,-1,21
 331 84 331 84 312.5 126 c 128,-1,22
 294 168 294 168 277 213.5 c 128,-1,23
 260 259 260 259 237 326 c 1,24,25
 249 325 249 325 262 325 c 0,26,27
 337 325 337 325 375.5 367.5 c 128,-1,28
 414 410 414 410 414 487 c 0,29,30
 414 546 414 546 389.5 574.5 c 128,-1,31
 365 603 365 603 312 603 c 0,32,33
 285 603 285 603 255 596 c 1,34,-1
 139 0 l 1,35,-1
 22 0 l 1,36,-1
 149 660 l 1,0,1
266 756 m 1,37,-1
 500 845 l 1,38,39
 522 831 522 831 522 800 c 0,40,41
 522 780 522 780 513.5 765.5 c 128,-1,42
 505 751 505 751 492.5 743 c 128,-1,43
 480 735 480 735 461 729.5 c 128,-1,44
 442 724 442 724 426.5 722 c 128,-1,45
 411 720 411 720 389 719 c 2,46,-1
 274 713 l 1,47,-1
 266 756 l 1,37,-1
EndSplineSet
Validated: 1
Position2: "'cpsp' Capital Spacing lookup 3 subtable" dx=5 dy=0 dh=10 dv=0
EndChar

StartChar: Rcaron
Encoding: 344 344 105
Width: 565
Flags: MW
HStem: 603 66<301 348>
VStem: 414 125<444 525>
LayerCount: 2
UndoRedoHistory
Layer: 0
Undoes
EndUndoes
Redoes
EndRedoes
EndUndoRedoHistory
UndoRedoHistory
Layer: 1
Undoes
EndUndoes
Redoes
EndRedoes
EndUndoRedoHistory
Fore
SplineSet
149 660 m 1,0,1
 243 669 243 669 318 669 c 0,2,3
 360 669 360 669 392 665 c 128,-1,4
 424 661 424 661 452.5 650 c 128,-1,5
 481 639 481 639 499.5 620.5 c 128,-1,6
 518 602 518 602 528.5 572 c 128,-1,7
 539 542 539 542 539 502 c 0,8,9
 539 414 539 414 493.5 353 c 128,-1,10
 448 292 448 292 371 280 c 1,11,12
 416 174 416 174 459.5 112.5 c 128,-1,13
 503 51 503 51 536 35 c 1,14,15
 529 7 529 7 508 -6 c 128,-1,16
 487 -19 487 -19 458 -19 c 0,17,18
 436 -19 436 -19 416.5 -11 c 128,-1,19
 397 -3 397 -3 379.5 15.5 c 128,-1,20
 362 34 362 34 346.5 59 c 128,-1,21
 331 84 331 84 312.5 126 c 128,-1,22
 294 168 294 168 277 213.5 c 128,-1,23
 260 259 260 259 237 326 c 1,24,25
 249 325 249 325 262 325 c 0,26,27
 337 325 337 325 375.5 367.5 c 128,-1,28
 414 410 414 410 414 487 c 0,29,30
 414 546 414 546 389.5 574.5 c 128,-1,31
 365 603 365 603 312 603 c 0,32,33
 285 603 285 603 255 596 c 1,34,-1
 139 0 l 1,35,-1
 22 0 l 1,36,-1
 149 660 l 1,0,1
253 837 m 1,37,-1
 357 785 l 1,38,-1
 487 837 l 1,39,-1
 514 798 l 1,40,-1
 351 692 l 1,41,-1
 345 692 l 1,42,-1
 213 799 l 1,43,-1
 253 837 l 1,37,-1
EndSplineSet
Validated: 1
Position2: "'cpsp' Capital Spacing lookup 3 subtable" dx=5 dy=0 dh=10 dv=0
EndChar

StartChar: Rcommaaccent
Encoding: 342 342 106
Width: 565
Flags: MW
HStem: 603 66<301 348>
VStem: 206 100<-123 -90> 414 125<444 525>
LayerCount: 2
UndoRedoHistory
Layer: 0
Undoes
EndUndoes
Redoes
EndRedoes
EndUndoRedoHistory
UndoRedoHistory
Layer: 1
Undoes
EndUndoes
Redoes
EndRedoes
EndUndoRedoHistory
Fore
SplineSet
306 -105 m 0,0,1
 306 -152 306 -152 266 -194.5 c 128,-1,2
 226 -237 226 -237 180 -237 c 0,3,4
 162 -237 162 -237 152 -226 c 1,5,6
 170 -202 170 -202 179.5 -186 c 128,-1,7
 189 -170 189 -170 197.5 -145.5 c 128,-1,8
 206 -121 206 -121 206 -97 c 0,9,10
 206 -78 206 -78 199 -60 c 1,11,12
 221 -49 221 -49 251 -49 c 0,13,14
 275 -49 275 -49 290.5 -63 c 128,-1,15
 306 -77 306 -77 306 -105 c 0,0,1
149 660 m 1,16,17
 243 669 243 669 318 669 c 0,18,19
 360 669 360 669 392 665 c 128,-1,20
 424 661 424 661 452.5 650 c 128,-1,21
 481 639 481 639 499.5 620.5 c 128,-1,22
 518 602 518 602 528.5 572 c 128,-1,23
 539 542 539 542 539 502 c 0,24,25
 539 414 539 414 493.5 353 c 128,-1,26
 448 292 448 292 371 280 c 1,27,28
 416 174 416 174 459.5 112.5 c 128,-1,29
 503 51 503 51 536 35 c 1,30,31
 529 7 529 7 508 -6 c 128,-1,32
 487 -19 487 -19 458 -19 c 0,33,34
 436 -19 436 -19 416.5 -11 c 128,-1,35
 397 -3 397 -3 379.5 15.5 c 128,-1,36
 362 34 362 34 346.5 59 c 128,-1,37
 331 84 331 84 312.5 126 c 128,-1,38
 294 168 294 168 277 213.5 c 128,-1,39
 260 259 260 259 237 326 c 1,40,41
 249 325 249 325 262 325 c 0,42,43
 337 325 337 325 375.5 367.5 c 128,-1,44
 414 410 414 410 414 487 c 0,45,46
 414 546 414 546 389.5 574.5 c 128,-1,47
 365 603 365 603 312 603 c 0,48,49
 285 603 285 603 255 596 c 1,50,-1
 139 0 l 1,51,-1
 22 0 l 1,52,-1
 149 660 l 1,16,17
EndSplineSet
Validated: 1
Position2: "'cpsp' Capital Spacing lookup 3 subtable" dx=5 dy=0 dh=10 dv=0
EndChar

StartChar: Rdotbelow
Encoding: 7770 7770 107
Width: 565
Flags: MW
HStem: -180 126<221 260> 603 66<301 348>
VStem: 166 149<-138 -97> 414 125<444 525>
LayerCount: 2
UndoRedoHistory
Layer: 0
Undoes
EndUndoes
Redoes
EndRedoes
EndUndoRedoHistory
UndoRedoHistory
Layer: 1
Undoes
EndUndoes
Redoes
EndRedoes
EndUndoRedoHistory
Fore
SplineSet
242 -54 m 0,0,1
 275 -54 275 -54 295 -70 c 128,-1,2
 315 -86 315 -86 315 -116 c 0,3,4
 315 -147 315 -147 293.5 -163.5 c 128,-1,5
 272 -180 272 -180 239 -180 c 0,6,7
 206 -180 206 -180 186 -164 c 128,-1,8
 166 -148 166 -148 166 -118 c 0,9,10
 166 -87 166 -87 187.5 -70.5 c 128,-1,11
 209 -54 209 -54 242 -54 c 0,0,1
149 660 m 1,12,13
 243 669 243 669 318 669 c 0,14,15
 360 669 360 669 392 665 c 128,-1,16
 424 661 424 661 452.5 650 c 128,-1,17
 481 639 481 639 499.5 620.5 c 128,-1,18
 518 602 518 602 528.5 572 c 128,-1,19
 539 542 539 542 539 502 c 0,20,21
 539 414 539 414 493.5 353 c 128,-1,22
 448 292 448 292 371 280 c 1,23,24
 416 174 416 174 459.5 112.5 c 128,-1,25
 503 51 503 51 536 35 c 1,26,27
 529 7 529 7 508 -6 c 128,-1,28
 487 -19 487 -19 458 -19 c 0,29,30
 436 -19 436 -19 416.5 -11 c 128,-1,31
 397 -3 397 -3 379.5 15.5 c 128,-1,32
 362 34 362 34 346.5 59 c 128,-1,33
 331 84 331 84 312.5 126 c 128,-1,34
 294 168 294 168 277 213.5 c 128,-1,35
 260 259 260 259 237 326 c 1,36,37
 249 325 249 325 262 325 c 0,38,39
 337 325 337 325 375.5 367.5 c 128,-1,40
 414 410 414 410 414 487 c 0,41,42
 414 546 414 546 389.5 574.5 c 128,-1,43
 365 603 365 603 312 603 c 0,44,45
 285 603 285 603 255 596 c 1,46,-1
 139 0 l 1,47,-1
 22 0 l 1,48,-1
 149 660 l 1,12,13
EndSplineSet
Validated: 1
Position2: "'cpsp' Capital Spacing lookup 3 subtable" dx=5 dy=0 dh=10 dv=0
EndChar

StartChar: S
Encoding: 83 83 108
Width: 504
Flags: MW
HStem: -22 65<193 246 193 260> 617 63<262 311>
VStem: 10 124<89 122 89 139> 85 113<488 549 488 549> 328 114<116 179> 359 124<537 568>
LayerCount: 2
UndoRedoHistory
Layer: 0
Undoes
EndUndoes
Redoes
EndRedoes
EndUndoRedoHistory
UndoRedoHistory
Layer: 1
Undoes
EndUndoes
Redoes
EndRedoes
EndUndoRedoHistory
Fore
SplineSet
324 680 m 0,0,1
 397 680 397 680 440 651 c 128,-1,2
 483 622 483 622 483 562 c 0,3,4
 483 514 483 514 455.5 487 c 128,-1,5
 428 460 428 460 392 460 c 0,6,7
 365 460 365 460 344 473 c 1,8,9
 359 510 359 510 359 547 c 0,10,11
 359 579 359 579 340.5 598 c 128,-1,12
 322 617 322 617 289 617 c 0,13,14
 249 617 249 617 223.5 590 c 128,-1,15
 198 563 198 563 198 522 c 0,16,17
 198 502 198 502 205 484 c 128,-1,18
 212 466 212 466 221 452.5 c 128,-1,19
 230 439 230 439 247.5 422.5 c 128,-1,20
 265 406 265 406 277 396.5 c 128,-1,21
 289 387 289 387 311 371 c 1,22,23
 335 352 335 352 349 341.5 c 128,-1,24
 363 331 363 331 383.5 311 c 128,-1,25
 404 291 404 291 414.5 273 c 128,-1,26
 425 255 425 255 433.5 230.5 c 128,-1,27
 442 206 442 206 442 178 c 0,28,29
 442 118 442 118 407 71.5 c 128,-1,30
 372 25 372 25 316.5 1.5 c 128,-1,31
 261 -22 261 -22 196 -22 c 0,32,33
 146 -22 146 -22 104.5 -8 c 128,-1,34
 63 6 63 6 36.5 36 c 128,-1,35
 10 66 10 66 10 108 c 0,36,37
 10 151 10 151 36 174.5 c 128,-1,38
 62 198 62 198 99 198 c 0,39,40
 128 198 128 198 149 185 c 1,41,42
 134 147 134 147 134 112 c 0,43,44
 134 79 134 79 157 61 c 128,-1,45
 180 43 180 43 216 43 c 0,46,47
 262 43 262 43 295 72 c 128,-1,48
 328 101 328 101 328 147 c 0,49,50
 328 162 328 162 324.5 176 c 128,-1,51
 321 190 321 190 312 203.5 c 128,-1,52
 303 217 303 217 295 227 c 128,-1,53
 287 237 287 237 271 250.5 c 128,-1,54
 255 264 255 264 246.5 270.5 c 128,-1,55
 238 277 238 277 219 292 c 0,56,57
 161 336 161 336 140 359 c 0,58,59
 85 417 85 417 85 489 c 0,60,61
 85 576 85 576 153.5 628 c 128,-1,62
 222 680 222 680 324 680 c 0,0,1
EndSplineSet
Validated: 8388609
Position2: "'cpsp' Capital Spacing lookup 3 subtable" dx=5 dy=0 dh=10 dv=0
EndChar

StartChar: Sacute
Encoding: 346 346 109
Width: 504
Flags: MW
HStem: -22 65<193 246 193 260> 617 63<262 311>
VStem: 10 124<89 122 89 139> 85 113<488 549 488 549> 328 114<116 179> 359 124<537 568>
LayerCount: 2
UndoRedoHistory
Layer: 0
Undoes
EndUndoes
Redoes
EndRedoes
EndUndoRedoHistory
UndoRedoHistory
Layer: 1
Undoes
EndUndoes
Redoes
EndRedoes
EndUndoRedoHistory
Fore
SplineSet
324 680 m 0,0,1
 397 680 397 680 440 651 c 128,-1,2
 483 622 483 622 483 562 c 0,3,4
 483 514 483 514 455.5 487 c 128,-1,5
 428 460 428 460 392 460 c 0,6,7
 365 460 365 460 344 473 c 1,8,9
 359 510 359 510 359 547 c 0,10,11
 359 579 359 579 340.5 598 c 128,-1,12
 322 617 322 617 289 617 c 0,13,14
 249 617 249 617 223.5 590 c 128,-1,15
 198 563 198 563 198 522 c 0,16,17
 198 502 198 502 205 484 c 128,-1,18
 212 466 212 466 221 452.5 c 128,-1,19
 230 439 230 439 247.5 422.5 c 128,-1,20
 265 406 265 406 277 396.5 c 128,-1,21
 289 387 289 387 311 371 c 1,22,23
 335 352 335 352 349 341.5 c 128,-1,24
 363 331 363 331 383.5 311 c 128,-1,25
 404 291 404 291 414.5 273 c 128,-1,26
 425 255 425 255 433.5 230.5 c 128,-1,27
 442 206 442 206 442 178 c 0,28,29
 442 118 442 118 407 71.5 c 128,-1,30
 372 25 372 25 316.5 1.5 c 128,-1,31
 261 -22 261 -22 196 -22 c 0,32,33
 146 -22 146 -22 104.5 -8 c 128,-1,34
 63 6 63 6 36.5 36 c 128,-1,35
 10 66 10 66 10 108 c 0,36,37
 10 151 10 151 36 174.5 c 128,-1,38
 62 198 62 198 99 198 c 0,39,40
 128 198 128 198 149 185 c 1,41,42
 134 147 134 147 134 112 c 0,43,44
 134 79 134 79 157 61 c 128,-1,45
 180 43 180 43 216 43 c 0,46,47
 262 43 262 43 295 72 c 128,-1,48
 328 101 328 101 328 147 c 0,49,50
 328 162 328 162 324.5 176 c 128,-1,51
 321 190 321 190 312 203.5 c 128,-1,52
 303 217 303 217 295 227 c 128,-1,53
 287 237 287 237 271 250.5 c 128,-1,54
 255 264 255 264 246.5 270.5 c 128,-1,55
 238 277 238 277 219 292 c 0,56,57
 161 336 161 336 140 359 c 0,58,59
 85 417 85 417 85 489 c 0,60,61
 85 576 85 576 153.5 628 c 128,-1,62
 222 680 222 680 324 680 c 0,0,1
261 756 m 1,63,-1
 495 845 l 1,64,65
 517 831 517 831 517 800 c 0,66,67
 517 780 517 780 508.5 765.5 c 128,-1,68
 500 751 500 751 488 743 c 128,-1,69
 476 735 476 735 456.5 729.5 c 128,-1,70
 437 724 437 724 421 722 c 128,-1,71
 405 720 405 720 384 719 c 2,72,-1
 269 713 l 1,73,-1
 261 756 l 1,63,-1
EndSplineSet
Validated: 8388609
Substitution2: "'locl' Localized Forms in Latin lookup 13 subtable" Sacute.loclPLK
Substitution2: "'aalt' Access All Alternates lookup 0 subtable" Sacute.loclPLK
Position2: "'cpsp' Capital Spacing lookup 3 subtable" dx=5 dy=0 dh=10 dv=0
EndChar

StartChar: Scaron
Encoding: 352 352 110
Width: 504
Flags: MW
HStem: -22 65<193 246 193 260> 617 63<262 311>
VStem: 10 124<89 122 89 139> 85 113<488 549 488 549> 328 114<116 179> 359 124<537 568>
LayerCount: 2
UndoRedoHistory
Layer: 0
Undoes
EndUndoes
Redoes
EndRedoes
EndUndoRedoHistory
UndoRedoHistory
Layer: 1
Undoes
EndUndoes
Redoes
EndRedoes
EndUndoRedoHistory
Fore
SplineSet
324 680 m 0,0,1
 397 680 397 680 440 651 c 128,-1,2
 483 622 483 622 483 562 c 0,3,4
 483 514 483 514 455.5 487 c 128,-1,5
 428 460 428 460 392 460 c 0,6,7
 365 460 365 460 344 473 c 1,8,9
 359 510 359 510 359 547 c 0,10,11
 359 579 359 579 340.5 598 c 128,-1,12
 322 617 322 617 289 617 c 0,13,14
 249 617 249 617 223.5 590 c 128,-1,15
 198 563 198 563 198 522 c 0,16,17
 198 502 198 502 205 484 c 128,-1,18
 212 466 212 466 221 452.5 c 128,-1,19
 230 439 230 439 247.5 422.5 c 128,-1,20
 265 406 265 406 277 396.5 c 128,-1,21
 289 387 289 387 311 371 c 1,22,23
 335 352 335 352 349 341.5 c 128,-1,24
 363 331 363 331 383.5 311 c 128,-1,25
 404 291 404 291 414.5 273 c 128,-1,26
 425 255 425 255 433.5 230.5 c 128,-1,27
 442 206 442 206 442 178 c 0,28,29
 442 118 442 118 407 71.5 c 128,-1,30
 372 25 372 25 316.5 1.5 c 128,-1,31
 261 -22 261 -22 196 -22 c 0,32,33
 146 -22 146 -22 104.5 -8 c 128,-1,34
 63 6 63 6 36.5 36 c 128,-1,35
 10 66 10 66 10 108 c 0,36,37
 10 151 10 151 36 174.5 c 128,-1,38
 62 198 62 198 99 198 c 0,39,40
 128 198 128 198 149 185 c 1,41,42
 134 147 134 147 134 112 c 0,43,44
 134 79 134 79 157 61 c 128,-1,45
 180 43 180 43 216 43 c 0,46,47
 262 43 262 43 295 72 c 128,-1,48
 328 101 328 101 328 147 c 0,49,50
 328 162 328 162 324.5 176 c 128,-1,51
 321 190 321 190 312 203.5 c 128,-1,52
 303 217 303 217 295 227 c 128,-1,53
 287 237 287 237 271 250.5 c 128,-1,54
 255 264 255 264 246.5 270.5 c 128,-1,55
 238 277 238 277 219 292 c 0,56,57
 161 336 161 336 140 359 c 0,58,59
 85 417 85 417 85 489 c 0,60,61
 85 576 85 576 153.5 628 c 128,-1,62
 222 680 222 680 324 680 c 0,0,1
248 837 m 1,63,-1
 352 785 l 1,64,-1
 482 837 l 1,65,-1
 509 798 l 1,66,-1
 346 692 l 1,67,-1
 340 692 l 1,68,-1
 208 799 l 1,69,-1
 248 837 l 1,63,-1
EndSplineSet
Validated: 8388609
Position2: "'cpsp' Capital Spacing lookup 3 subtable" dx=5 dy=0 dh=10 dv=0
EndChar

StartChar: Scedilla
Encoding: 350 350 111
Width: 504
Flags: MW
HStem: -253 53<182 213 182 247> -111 47<186 284> -22 65<182 246> 617 63<262 311>
VStem: 10 124<89 122 89 139> 85 113<488 549 488 549> 271 83<-171 -136> 328 114<122 179> 359 124<537 568>
LayerCount: 2
UndoRedoHistory
Layer: 0
Undoes
EndUndoes
Redoes
EndRedoes
EndUndoRedoHistory
UndoRedoHistory
Layer: 1
Undoes
EndUndoes
Redoes
EndRedoes
EndUndoRedoHistory
Fore
SplineSet
182 -22 m 1,0,1
 135 -20 135 -20 97 -5.5 c 128,-1,2
 59 9 59 9 34.5 38.5 c 128,-1,3
 10 68 10 68 10 108 c 0,4,5
 10 151 10 151 36 174.5 c 128,-1,6
 62 198 62 198 99 198 c 0,7,8
 128 198 128 198 149 185 c 1,9,10
 134 147 134 147 134 112 c 0,11,12
 134 79 134 79 157 61 c 128,-1,13
 180 43 180 43 216 43 c 0,14,15
 262 43 262 43 295 72 c 128,-1,16
 328 101 328 101 328 147 c 0,17,18
 328 162 328 162 324.5 176 c 128,-1,19
 321 190 321 190 312 203.5 c 128,-1,20
 303 217 303 217 295 227 c 128,-1,21
 287 237 287 237 271 250.5 c 128,-1,22
 255 264 255 264 246.5 270.5 c 128,-1,23
 238 277 238 277 219 292 c 0,24,25
 161 336 161 336 140 359 c 0,26,27
 85 417 85 417 85 489 c 0,28,29
 85 576 85 576 153.5 628 c 128,-1,30
 222 680 222 680 324 680 c 0,31,32
 397 680 397 680 440 651 c 128,-1,33
 483 622 483 622 483 562 c 0,34,35
 483 514 483 514 455.5 487 c 128,-1,36
 428 460 428 460 392 460 c 0,37,38
 365 460 365 460 344 473 c 1,39,40
 359 510 359 510 359 547 c 0,41,42
 359 579 359 579 340.5 598 c 128,-1,43
 322 617 322 617 289 617 c 0,44,45
 249 617 249 617 223.5 590 c 128,-1,46
 198 563 198 563 198 522 c 0,47,48
 198 502 198 502 205 484 c 128,-1,49
 212 466 212 466 221 452.5 c 128,-1,50
 230 439 230 439 247.5 422.5 c 128,-1,51
 265 406 265 406 277 396.5 c 128,-1,52
 289 387 289 387 311 371 c 1,53,54
 335 352 335 352 349 341.5 c 128,-1,55
 363 331 363 331 383.5 311 c 128,-1,56
 404 291 404 291 414.5 273 c 128,-1,57
 425 255 425 255 433.5 230.5 c 128,-1,58
 442 206 442 206 442 178 c 0,59,60
 442 123 442 123 412.5 79.5 c 128,-1,61
 383 36 383 36 335.5 11 c 128,-1,62
 288 -14 288 -14 230 -20 c 1,63,-1
 216 -66 l 1,64,65
 236 -64 236 -64 256 -64 c 0,66,67
 300 -64 300 -64 327 -83 c 128,-1,68
 354 -102 354 -102 354 -140 c 0,69,70
 354 -189 354 -189 311 -221 c 128,-1,71
 268 -253 268 -253 204 -253 c 0,72,73
 165 -253 165 -253 141.5 -240.5 c 128,-1,74
 118 -228 118 -228 118 -205.5 c 128,-1,75
 118 -183 118 -183 134 -172 c 1,76,77
 152 -200 152 -200 197 -200 c 0,78,79
 227 -200 227 -200 249 -189 c 128,-1,80
 271 -178 271 -178 271 -152 c 0,81,82
 271 -111 271 -111 192 -111 c 0,83,84
 181 -111 181 -111 155 -113 c 1,85,-1
 182 -22 l 1,0,1
EndSplineSet
Validated: 8388609
Substitution2: "'locl' Localized Forms in Latin lookup 12 subtable" Scommaaccent
Substitution2: "'locl' Localized Forms in Latin lookup 11 subtable" Scommaaccent
Substitution2: "'aalt' Access All Alternates lookup 0 subtable" Scommaaccent
Position2: "'cpsp' Capital Spacing lookup 3 subtable" dx=5 dy=0 dh=10 dv=0
EndChar

StartChar: Scircumflex
Encoding: 348 348 112
Width: 504
Flags: MW
HStem: -22 65<193 246 193 260> 617 63<262 311>
VStem: 10 124<89 122 89 139> 85 113<488 549 488 549> 328 114<116 179> 359 124<537 568>
LayerCount: 2
UndoRedoHistory
Layer: 0
Undoes
EndUndoes
Redoes
EndRedoes
EndUndoRedoHistory
UndoRedoHistory
Layer: 1
Undoes
EndUndoes
Redoes
EndRedoes
EndUndoRedoHistory
Fore
SplineSet
324 680 m 0,0,1
 397 680 397 680 440 651 c 128,-1,2
 483 622 483 622 483 562 c 0,3,4
 483 514 483 514 455.5 487 c 128,-1,5
 428 460 428 460 392 460 c 0,6,7
 365 460 365 460 344 473 c 1,8,9
 359 510 359 510 359 547 c 0,10,11
 359 579 359 579 340.5 598 c 128,-1,12
 322 617 322 617 289 617 c 0,13,14
 249 617 249 617 223.5 590 c 128,-1,15
 198 563 198 563 198 522 c 0,16,17
 198 502 198 502 205 484 c 128,-1,18
 212 466 212 466 221 452.5 c 128,-1,19
 230 439 230 439 247.5 422.5 c 128,-1,20
 265 406 265 406 277 396.5 c 128,-1,21
 289 387 289 387 311 371 c 1,22,23
 335 352 335 352 349 341.5 c 128,-1,24
 363 331 363 331 383.5 311 c 128,-1,25
 404 291 404 291 414.5 273 c 128,-1,26
 425 255 425 255 433.5 230.5 c 128,-1,27
 442 206 442 206 442 178 c 0,28,29
 442 118 442 118 407 71.5 c 128,-1,30
 372 25 372 25 316.5 1.5 c 128,-1,31
 261 -22 261 -22 196 -22 c 0,32,33
 146 -22 146 -22 104.5 -8 c 128,-1,34
 63 6 63 6 36.5 36 c 128,-1,35
 10 66 10 66 10 108 c 0,36,37
 10 151 10 151 36 174.5 c 128,-1,38
 62 198 62 198 99 198 c 0,39,40
 128 198 128 198 149 185 c 1,41,42
 134 147 134 147 134 112 c 0,43,44
 134 79 134 79 157 61 c 128,-1,45
 180 43 180 43 216 43 c 0,46,47
 262 43 262 43 295 72 c 128,-1,48
 328 101 328 101 328 147 c 0,49,50
 328 162 328 162 324.5 176 c 128,-1,51
 321 190 321 190 312 203.5 c 128,-1,52
 303 217 303 217 295 227 c 128,-1,53
 287 237 287 237 271 250.5 c 128,-1,54
 255 264 255 264 246.5 270.5 c 128,-1,55
 238 277 238 277 219 292 c 0,56,57
 161 336 161 336 140 359 c 0,58,59
 85 417 85 417 85 489 c 0,60,61
 85 576 85 576 153.5 628 c 128,-1,62
 222 680 222 680 324 680 c 0,0,1
443 674 m 1,63,-1
 338 746 l 1,64,-1
 208 674 l 1,65,-1
 181 723 l 1,66,-1
 344 839 l 1,67,-1
 351 839 l 1,68,-1
 483 722 l 1,69,-1
 443 674 l 1,63,-1
EndSplineSet
Validated: 8388609
Position2: "'cpsp' Capital Spacing lookup 3 subtable" dx=5 dy=0 dh=10 dv=0
EndChar

StartChar: Scommaaccent
Encoding: 536 536 113
Width: 504
Flags: MW
HStem: -22 65<193 246 193 260> 617 63<262 311>
VStem: 10 124<89 122 89 139> 85 113<488 549 488 549> 168 100<-123 -90> 328 114<116 179> 359 124<537 568>
LayerCount: 2
UndoRedoHistory
Layer: 0
Undoes
EndUndoes
Redoes
EndRedoes
EndUndoRedoHistory
UndoRedoHistory
Layer: 1
Undoes
EndUndoes
Redoes
EndRedoes
EndUndoRedoHistory
Fore
SplineSet
268 -105 m 0,0,1
 268 -152 268 -152 228 -194.5 c 128,-1,2
 188 -237 188 -237 142 -237 c 0,3,4
 124 -237 124 -237 114 -226 c 1,5,6
 132 -202 132 -202 141.5 -186 c 128,-1,7
 151 -170 151 -170 159.5 -145.5 c 128,-1,8
 168 -121 168 -121 168 -97 c 0,9,10
 168 -78 168 -78 161 -60 c 1,11,12
 183 -49 183 -49 213 -49 c 0,13,14
 237 -49 237 -49 252.5 -63 c 128,-1,15
 268 -77 268 -77 268 -105 c 0,0,1
324 680 m 0,16,17
 397 680 397 680 440 651 c 128,-1,18
 483 622 483 622 483 562 c 0,19,20
 483 514 483 514 455.5 487 c 128,-1,21
 428 460 428 460 392 460 c 0,22,23
 365 460 365 460 344 473 c 1,24,25
 359 510 359 510 359 547 c 0,26,27
 359 579 359 579 340.5 598 c 128,-1,28
 322 617 322 617 289 617 c 0,29,30
 249 617 249 617 223.5 590 c 128,-1,31
 198 563 198 563 198 522 c 0,32,33
 198 502 198 502 205 484 c 128,-1,34
 212 466 212 466 221 452.5 c 128,-1,35
 230 439 230 439 247.5 422.5 c 128,-1,36
 265 406 265 406 277 396.5 c 128,-1,37
 289 387 289 387 311 371 c 1,38,39
 335 352 335 352 349 341.5 c 128,-1,40
 363 331 363 331 383.5 311 c 128,-1,41
 404 291 404 291 414.5 273 c 128,-1,42
 425 255 425 255 433.5 230.5 c 128,-1,43
 442 206 442 206 442 178 c 0,44,45
 442 118 442 118 407 71.5 c 128,-1,46
 372 25 372 25 316.5 1.5 c 128,-1,47
 261 -22 261 -22 196 -22 c 0,48,49
 146 -22 146 -22 104.5 -8 c 128,-1,50
 63 6 63 6 36.5 36 c 128,-1,51
 10 66 10 66 10 108 c 0,52,53
 10 151 10 151 36 174.5 c 128,-1,54
 62 198 62 198 99 198 c 0,55,56
 128 198 128 198 149 185 c 1,57,58
 134 147 134 147 134 112 c 0,59,60
 134 79 134 79 157 61 c 128,-1,61
 180 43 180 43 216 43 c 0,62,63
 262 43 262 43 295 72 c 128,-1,64
 328 101 328 101 328 147 c 0,65,66
 328 162 328 162 324.5 176 c 128,-1,67
 321 190 321 190 312 203.5 c 128,-1,68
 303 217 303 217 295 227 c 128,-1,69
 287 237 287 237 271 250.5 c 128,-1,70
 255 264 255 264 246.5 270.5 c 128,-1,71
 238 277 238 277 219 292 c 0,72,73
 161 336 161 336 140 359 c 0,74,75
 85 417 85 417 85 489 c 0,76,77
 85 576 85 576 153.5 628 c 128,-1,78
 222 680 222 680 324 680 c 0,16,17
EndSplineSet
Validated: 8388609
Position2: "'cpsp' Capital Spacing lookup 3 subtable" dx=5 dy=0 dh=10 dv=0
EndChar

StartChar: Sdotbelow
Encoding: 7778 7778 114
Width: 504
Flags: MW
HStem: -180 126<183 222> -22 65<193 246 193 260> 617 63<262 311>
VStem: 10 124<89 122 89 139> 85 113<488 549 488 549> 128 149<-138 -97> 328 114<116 179> 359 124<537 568>
LayerCount: 2
UndoRedoHistory
Layer: 0
Undoes
EndUndoes
Redoes
EndRedoes
EndUndoRedoHistory
UndoRedoHistory
Layer: 1
Undoes
EndUndoes
Redoes
EndRedoes
EndUndoRedoHistory
Fore
SplineSet
204 -54 m 0,0,1
 237 -54 237 -54 257 -70 c 128,-1,2
 277 -86 277 -86 277 -116 c 0,3,4
 277 -147 277 -147 255.5 -163.5 c 128,-1,5
 234 -180 234 -180 201 -180 c 0,6,7
 168 -180 168 -180 148 -164 c 128,-1,8
 128 -148 128 -148 128 -118 c 0,9,10
 128 -87 128 -87 149.5 -70.5 c 128,-1,11
 171 -54 171 -54 204 -54 c 0,0,1
324 680 m 0,12,13
 397 680 397 680 440 651 c 128,-1,14
 483 622 483 622 483 562 c 0,15,16
 483 514 483 514 455.5 487 c 128,-1,17
 428 460 428 460 392 460 c 0,18,19
 365 460 365 460 344 473 c 1,20,21
 359 510 359 510 359 547 c 0,22,23
 359 579 359 579 340.5 598 c 128,-1,24
 322 617 322 617 289 617 c 0,25,26
 249 617 249 617 223.5 590 c 128,-1,27
 198 563 198 563 198 522 c 0,28,29
 198 502 198 502 205 484 c 128,-1,30
 212 466 212 466 221 452.5 c 128,-1,31
 230 439 230 439 247.5 422.5 c 128,-1,32
 265 406 265 406 277 396.5 c 128,-1,33
 289 387 289 387 311 371 c 1,34,35
 335 352 335 352 349 341.5 c 128,-1,36
 363 331 363 331 383.5 311 c 128,-1,37
 404 291 404 291 414.5 273 c 128,-1,38
 425 255 425 255 433.5 230.5 c 128,-1,39
 442 206 442 206 442 178 c 0,40,41
 442 118 442 118 407 71.5 c 128,-1,42
 372 25 372 25 316.5 1.5 c 128,-1,43
 261 -22 261 -22 196 -22 c 0,44,45
 146 -22 146 -22 104.5 -8 c 128,-1,46
 63 6 63 6 36.5 36 c 128,-1,47
 10 66 10 66 10 108 c 0,48,49
 10 151 10 151 36 174.5 c 128,-1,50
 62 198 62 198 99 198 c 0,51,52
 128 198 128 198 149 185 c 1,53,54
 134 147 134 147 134 112 c 0,55,56
 134 79 134 79 157 61 c 128,-1,57
 180 43 180 43 216 43 c 0,58,59
 262 43 262 43 295 72 c 128,-1,60
 328 101 328 101 328 147 c 0,61,62
 328 162 328 162 324.5 176 c 128,-1,63
 321 190 321 190 312 203.5 c 128,-1,64
 303 217 303 217 295 227 c 128,-1,65
 287 237 287 237 271 250.5 c 128,-1,66
 255 264 255 264 246.5 270.5 c 128,-1,67
 238 277 238 277 219 292 c 0,68,69
 161 336 161 336 140 359 c 0,70,71
 85 417 85 417 85 489 c 0,72,73
 85 576 85 576 153.5 628 c 128,-1,74
 222 680 222 680 324 680 c 0,12,13
EndSplineSet
Validated: 8388609
Position2: "'cpsp' Capital Spacing lookup 3 subtable" dx=5 dy=0 dh=10 dv=0
EndChar

StartChar: uni1E9E
Encoding: 7838 7838 115
Width: 713
Flags: MW
HStem: -22 65<423 471 423 488> 622 58<352 442>
VStem: 242 124<89 122 89 139> 377 113<374 415> 550 114<103 182>
LayerCount: 2
UndoRedoHistory
Layer: 0
Undoes
EndUndoes
Redoes
EndRedoes
EndUndoRedoHistory
UndoRedoHistory
Layer: 1
Undoes
EndUndoes
Redoes
EndRedoes
EndUndoRedoHistory
Fore
SplineSet
77 330 m 2,0,1
 96 425 96 425 128 492.5 c 128,-1,2
 160 560 160 560 205.5 601 c 128,-1,3
 251 642 251 642 307 661 c 128,-1,4
 363 680 363 680 433 680 c 0,5,6
 602 680 602 680 681 580 c 1,7,8
 576 537 576 537 533 494.5 c 128,-1,9
 490 452 490 452 490 416 c 0,10,11
 490 399 490 399 499.5 383 c 128,-1,12
 509 367 509 367 524.5 353.5 c 128,-1,13
 540 340 540 340 558.5 326 c 128,-1,14
 577 312 577 312 595.5 296 c 128,-1,15
 614 280 614 280 629.5 261.5 c 128,-1,16
 645 243 645 243 654.5 217.5 c 128,-1,17
 664 192 664 192 664 162 c 0,18,19
 664 119 664 119 644.5 83.5 c 128,-1,20
 625 48 625 48 591.5 25.5 c 128,-1,21
 558 3 558 3 515.5 -9.5 c 128,-1,22
 473 -22 473 -22 427 -22 c 0,23,24
 348 -22 348 -22 295 12 c 128,-1,25
 242 46 242 46 242 108 c 0,26,27
 242 151 242 151 268 174.5 c 128,-1,28
 294 198 294 198 331 198 c 0,29,30
 360 198 360 198 381 185 c 1,31,32
 366 148 366 148 366 112 c 0,33,34
 366 79 366 79 388 61 c 128,-1,35
 410 43 410 43 446 43 c 0,36,37
 487 43 487 43 518.5 65.5 c 128,-1,38
 550 88 550 88 550 129 c 0,39,40
 550 150 550 150 540.5 169 c 128,-1,41
 531 188 531 188 515.5 202.5 c 128,-1,42
 500 217 500 217 481.5 232 c 128,-1,43
 463 247 463 247 444.5 262.5 c 128,-1,44
 426 278 426 278 411 295 c 128,-1,45
 396 312 396 312 386.5 335.5 c 128,-1,46
 377 359 377 359 377 386 c 0,47,48
 377 491 377 491 540 581 c 1,49,50
 487 622 487 622 419 622 c 0,51,52
 370 622 370 622 332.5 602.5 c 128,-1,53
 295 583 295 583 269 543.5 c 128,-1,54
 243 504 243 504 225.5 454 c 128,-1,55
 208 404 208 404 195 334 c 2,56,-1
 131 0 l 1,57,-1
 13 0 l 1,58,-1
 77 330 l 2,0,1
EndSplineSet
Validated: 1
Position2: "'cpsp' Capital Spacing lookup 3 subtable" dx=5 dy=0 dh=10 dv=0
EndChar

StartChar: Schwa
Encoding: 399 399 116
Width: 557
Flags: MW
HStem: -26 62<195 262 195 300> 290 55<334 340 250 390> 583 97<270 336>
VStem: 33 120<90 179 90 191> 403 126<416 476>
LayerCount: 2
UndoRedoHistory
Layer: 0
Undoes
EndUndoes
Redoes
EndRedoes
EndUndoRedoHistory
UndoRedoHistory
Layer: 1
Undoes
EndUndoes
Redoes
EndRedoes
EndUndoRedoHistory
Fore
SplineSet
216 36 m 0,0,1
 242 36 242 36 267 52 c 128,-1,2
 292 68 292 68 311 94 c 128,-1,3
 330 120 330 120 346 154 c 128,-1,4
 362 188 362 188 372.5 222 c 128,-1,5
 383 256 383 256 390 290 c 1,6,7
 347 290 347 290 306 280 c 128,-1,8
 265 270 265 270 230 250 c 128,-1,9
 195 230 195 230 174 196 c 128,-1,10
 153 162 153 162 153 118 c 0,11,12
 153 36 153 36 216 36 c 0,0,1
188 -26 m 0,13,14
 33 -26 33 -26 33 117 c 0,15,16
 33 189 33 189 74.5 241.5 c 128,-1,17
 116 294 116 294 182.5 319.5 c 128,-1,18
 249 345 249 345 330 345 c 0,19,20
 344 345 344 345 397 342 c 1,21,22
 403 388 403 388 403 426 c 0,23,24
 403 506 403 506 379 544.5 c 128,-1,25
 355 583 355 583 294 583 c 0,26,27
 243 583 243 583 202 556.5 c 128,-1,28
 161 530 161 530 138 482 c 1,29,30
 127 486 127 486 121.5 499 c 128,-1,31
 116 512 116 512 116 527 c 0,32,33
 116 555 116 555 132.5 582 c 128,-1,34
 149 609 149 609 177 631 c 128,-1,35
 205 653 205 653 246.5 666.5 c 128,-1,36
 288 680 288 680 336 680 c 0,37,38
 435 680 435 680 482 618.5 c 128,-1,39
 529 557 529 557 529 428 c 0,40,41
 529 362 529 362 515 297.5 c 128,-1,42
 501 233 501 233 473 174.5 c 128,-1,43
 445 116 445 116 405.5 71.5 c 128,-1,44
 366 27 366 27 309.5 0.5 c 128,-1,45
 253 -26 253 -26 188 -26 c 0,13,14
EndSplineSet
Validated: 1
Position2: "'cpsp' Capital Spacing lookup 3 subtable" dx=5 dy=0 dh=10 dv=0
EndChar

StartChar: T
Encoding: 84 84 117
Width: 402
Flags: MW
HStem: 571 89<126 396 146 201 319 387 319 319> 652 20G
VStem: 103 116<42 56 42 56>
LayerCount: 2
UndoRedoHistory
Layer: 0
Undoes
EndUndoes
Redoes
EndRedoes
EndUndoRedoHistory
UndoRedoHistory
Layer: 1
Undoes
EndUndoes
Redoes
EndRedoes
EndUndoRedoHistory
Fore
SplineSet
396 660 m 2,0,1
 450 660 450 660 475 672 c 1,2,3
 489 652 489 652 489 627 c 0,4,5
 489 609 489 609 480.5 597.5 c 128,-1,6
 472 586 472 586 456 580.5 c 128,-1,7
 440 575 440 575 424 573 c 128,-1,8
 408 571 408 571 387 571 c 2,9,-1
 319 571 l 1,10,-1
 224 95 l 2,11,12
 219 67 219 67 219 49 c 0,13,14
 219 24 219 24 231 4 c 1,15,16
 202 -20 202 -20 163 -20 c 0,17,18
 130 -20 130 -20 116.5 -3 c 128,-1,19
 103 14 103 14 103 45 c 0,20,21
 103 76 103 76 109 106 c 2,22,-1
 201 571 l 1,23,-1
 137 571 l 2,24,25
 83 571 83 571 58 559 c 1,26,27
 44 580 44 580 44 604 c 0,28,29
 44 622 44 622 53 633.5 c 128,-1,30
 62 645 62 645 77.5 650.5 c 128,-1,31
 93 656 93 656 109 658 c 128,-1,32
 125 660 125 660 146 660 c 2,33,-1
 396 660 l 2,0,1
EndSplineSet
Validated: 8388609
Position2: "'cpsp' Capital Spacing lookup 3 subtable" dx=5 dy=0 dh=10 dv=0
EndChar

StartChar: Tbar
Encoding: 358 358 118
Width: 405
Flags: MW
HStem: 307 72<54 149 0 163 281 376> 571 89<126 396 146 201 319 387 319 319> 652 20G
VStem: 103 116<42 56>
LayerCount: 2
UndoRedoHistory
Layer: 0
Undoes
EndUndoes
Redoes
EndRedoes
EndUndoRedoHistory
UndoRedoHistory
Layer: 1
Undoes
EndUndoes
Redoes
EndRedoes
EndUndoRedoHistory
Fore
SplineSet
396 660 m 2,0,1
 450 660 450 660 475 672 c 1,2,3
 489 652 489 652 489 627 c 0,4,5
 489 609 489 609 480.5 597.5 c 128,-1,6
 472 586 472 586 456 580.5 c 128,-1,7
 440 575 440 575 424 573 c 128,-1,8
 408 571 408 571 387 571 c 2,9,-1
 319 571 l 1,10,-1
 281 379 l 1,11,-1
 436 379 l 1,12,13
 439 369 439 369 439 355 c 0,14,15
 439 307 439 307 376 307 c 2,16,-1
 266 307 l 1,17,-1
 224 95 l 2,18,19
 219 67 219 67 219 49 c 0,20,21
 219 24 219 24 231 4 c 1,22,23
 202 -20 202 -20 163 -20 c 0,24,25
 130 -20 130 -20 116.5 -3 c 128,-1,26
 103 14 103 14 103 45 c 0,27,28
 103 77 103 77 109 105 c 2,29,-1
 149 307 l 1,30,-1
 0 307 l 1,31,32
 -2 315 -2 315 -2 331 c 0,33,34
 -1 379 -1 379 54 379 c 2,35,-1
 163 379 l 1,36,-1
 201 571 l 1,37,-1
 137 571 l 2,38,39
 83 571 83 571 58 559 c 1,40,41
 44 580 44 580 44 604 c 0,42,43
 44 622 44 622 53 633.5 c 128,-1,44
 62 645 62 645 77.5 650.5 c 128,-1,45
 93 656 93 656 109 658 c 128,-1,46
 125 660 125 660 146 660 c 2,47,-1
 396 660 l 2,0,1
EndSplineSet
Validated: 8388609
Position2: "'cpsp' Capital Spacing lookup 3 subtable" dx=5 dy=0 dh=10 dv=0
EndChar

StartChar: Tcaron
Encoding: 356 356 119
Width: 402
Flags: MW
HStem: 571 89<126 396 146 201 319 387 319 319> 652 20G
VStem: 103 116<42 56 42 56>
LayerCount: 2
UndoRedoHistory
Layer: 0
Undoes
EndUndoes
Redoes
EndRedoes
EndUndoRedoHistory
UndoRedoHistory
Layer: 1
Undoes
EndUndoes
Redoes
EndRedoes
EndUndoRedoHistory
Fore
SplineSet
396 660 m 2,0,1
 450 660 450 660 475 672 c 1,2,3
 489 652 489 652 489 627 c 0,4,5
 489 609 489 609 480.5 597.5 c 128,-1,6
 472 586 472 586 456 580.5 c 128,-1,7
 440 575 440 575 424 573 c 128,-1,8
 408 571 408 571 387 571 c 2,9,-1
 319 571 l 1,10,-1
 224 95 l 2,11,12
 219 67 219 67 219 49 c 0,13,14
 219 24 219 24 231 4 c 1,15,16
 202 -20 202 -20 163 -20 c 0,17,18
 130 -20 130 -20 116.5 -3 c 128,-1,19
 103 14 103 14 103 45 c 0,20,21
 103 76 103 76 109 106 c 2,22,-1
 201 571 l 1,23,-1
 137 571 l 2,24,25
 83 571 83 571 58 559 c 1,26,27
 44 580 44 580 44 604 c 0,28,29
 44 622 44 622 53 633.5 c 128,-1,30
 62 645 62 645 77.5 650.5 c 128,-1,31
 93 656 93 656 109 658 c 128,-1,32
 125 660 125 660 146 660 c 2,33,-1
 396 660 l 2,0,1
192 837 m 1,34,-1
 296 785 l 1,35,-1
 426 837 l 1,36,-1
 453 798 l 1,37,-1
 290 692 l 1,38,-1
 284 692 l 1,39,-1
 152 799 l 1,40,-1
 192 837 l 1,34,-1
EndSplineSet
Validated: 8388609
Position2: "'cpsp' Capital Spacing lookup 3 subtable" dx=5 dy=0 dh=10 dv=0
EndChar

StartChar: Tcedilla
Encoding: 354 354 120
Width: 402
Flags: MW
HStem: -253 53<135 166 135 200> -111 47<139 236> 571 89<126 396 146 201 319 387 319 319> 652 20G
VStem: 103 116<42 56 42 56> 224 83<-171 -136>
LayerCount: 2
UndoRedoHistory
Layer: 0
Undoes
EndUndoes
Redoes
EndRedoes
EndUndoRedoHistory
UndoRedoHistory
Layer: 1
Undoes
EndUndoes
Redoes
EndRedoes
EndUndoRedoHistory
Fore
SplineSet
396 660 m 2,0,1
 450 660 450 660 475 672 c 1,2,3
 489 652 489 652 489 627 c 0,4,5
 489 609 489 609 480.5 597.5 c 128,-1,6
 472 586 472 586 456 580.5 c 128,-1,7
 440 575 440 575 424 573 c 128,-1,8
 408 571 408 571 387 571 c 2,9,-1
 319 571 l 1,10,-1
 224 95 l 2,11,12
 219 67 219 67 219 49 c 0,13,14
 219 24 219 24 231 4 c 1,15,16
 210 -14 210 -14 183 -18 c 1,17,-1
 169 -66 l 1,18,19
 189 -64 189 -64 209 -64 c 0,20,21
 253 -64 253 -64 280 -83 c 128,-1,22
 307 -102 307 -102 307 -140 c 0,23,24
 307 -189 307 -189 264 -221 c 128,-1,25
 221 -253 221 -253 157 -253 c 0,26,27
 118 -253 118 -253 94.5 -240.5 c 128,-1,28
 71 -228 71 -228 71 -205 c 0,29,30
 71 -183 71 -183 87 -172 c 1,31,32
 105 -200 105 -200 150 -200 c 0,33,34
 180 -200 180 -200 202 -189 c 128,-1,35
 224 -178 224 -178 224 -152 c 0,36,37
 224 -111 224 -111 145 -111 c 0,38,39
 134 -111 134 -111 108 -113 c 1,40,-1
 137 -16 l 1,41,42
 103 -6 103 -6 103 45 c 0,43,44
 103 76 103 76 109 106 c 2,45,-1
 201 571 l 1,46,-1
 137 571 l 2,47,48
 83 571 83 571 58 559 c 1,49,50
 44 580 44 580 44 604 c 0,51,52
 44 622 44 622 53 633.5 c 128,-1,53
 62 645 62 645 77.5 650.5 c 128,-1,54
 93 656 93 656 109 658 c 128,-1,55
 125 660 125 660 146 660 c 2,56,-1
 396 660 l 2,0,1
EndSplineSet
Validated: 8388609
Substitution2: "'locl' Localized Forms in Latin lookup 12 subtable" uni021A
Substitution2: "'locl' Localized Forms in Latin lookup 11 subtable" uni021A
Substitution2: "'aalt' Access All Alternates lookup 0 subtable" uni021A
Position2: "'cpsp' Capital Spacing lookup 3 subtable" dx=5 dy=0 dh=10 dv=0
EndChar

StartChar: uni021A
Encoding: 538 538 121
Width: 402
Flags: MW
HStem: 571 89<126 396 146 201 319 387 319 319> 652 20G
VStem: 103 116<42 56 42 56> 121 100<-123 -90>
LayerCount: 2
UndoRedoHistory
Layer: 0
Undoes
EndUndoes
Redoes
EndRedoes
EndUndoRedoHistory
UndoRedoHistory
Layer: 1
Undoes
EndUndoes
Redoes
EndRedoes
EndUndoRedoHistory
Fore
SplineSet
221 -105 m 0,0,1
 221 -152 221 -152 181 -194.5 c 128,-1,2
 141 -237 141 -237 95 -237 c 0,3,4
 77 -237 77 -237 67 -226 c 1,5,6
 85 -202 85 -202 94.5 -186 c 128,-1,7
 104 -170 104 -170 112.5 -145.5 c 128,-1,8
 121 -121 121 -121 121 -97 c 0,9,10
 121 -80 121 -80 114 -60 c 1,11,12
 136 -49 136 -49 166 -49 c 0,13,14
 190 -49 190 -49 205.5 -63 c 128,-1,15
 221 -77 221 -77 221 -105 c 0,0,1
396 660 m 2,16,17
 450 660 450 660 475 672 c 1,18,19
 489 652 489 652 489 627 c 0,20,21
 489 609 489 609 480.5 597.5 c 128,-1,22
 472 586 472 586 456 580.5 c 128,-1,23
 440 575 440 575 424 573 c 128,-1,24
 408 571 408 571 387 571 c 2,25,-1
 319 571 l 1,26,-1
 224 95 l 2,27,28
 219 67 219 67 219 49 c 0,29,30
 219 24 219 24 231 4 c 1,31,32
 202 -20 202 -20 163 -20 c 0,33,34
 130 -20 130 -20 116.5 -3 c 128,-1,35
 103 14 103 14 103 45 c 0,36,37
 103 76 103 76 109 106 c 2,38,-1
 201 571 l 1,39,-1
 137 571 l 2,40,41
 83 571 83 571 58 559 c 1,42,43
 44 580 44 580 44 604 c 0,44,45
 44 622 44 622 53 633.5 c 128,-1,46
 62 645 62 645 77.5 650.5 c 128,-1,47
 93 656 93 656 109 658 c 128,-1,48
 125 660 125 660 146 660 c 2,49,-1
 396 660 l 2,16,17
EndSplineSet
Validated: 8388609
Position2: "'cpsp' Capital Spacing lookup 3 subtable" dx=5 dy=0 dh=10 dv=0
EndChar

StartChar: Tdotbelow
Encoding: 7788 7788 122
Width: 402
Flags: MW
HStem: -180 126<136 175> 571 89<126 396 146 201 319 387 319 319> 652 20G
VStem: 81 149<-138 -97> 103 116<42 56 42 56>
LayerCount: 2
UndoRedoHistory
Layer: 0
Undoes
EndUndoes
Redoes
EndRedoes
EndUndoRedoHistory
UndoRedoHistory
Layer: 1
Undoes
EndUndoes
Redoes
EndRedoes
EndUndoRedoHistory
Fore
SplineSet
157 -54 m 0,0,1
 190 -54 190 -54 210 -70 c 128,-1,2
 230 -86 230 -86 230 -116 c 0,3,4
 230 -147 230 -147 208.5 -163.5 c 128,-1,5
 187 -180 187 -180 154 -180 c 0,6,7
 121 -180 121 -180 101 -164 c 128,-1,8
 81 -148 81 -148 81 -118 c 0,9,10
 81 -87 81 -87 102.5 -70.5 c 128,-1,11
 124 -54 124 -54 157 -54 c 0,0,1
396 660 m 2,12,13
 450 660 450 660 475 672 c 1,14,15
 489 652 489 652 489 627 c 0,16,17
 489 609 489 609 480.5 597.5 c 128,-1,18
 472 586 472 586 456 580.5 c 128,-1,19
 440 575 440 575 424 573 c 128,-1,20
 408 571 408 571 387 571 c 2,21,-1
 319 571 l 1,22,-1
 224 95 l 2,23,24
 219 67 219 67 219 49 c 0,25,26
 219 24 219 24 231 4 c 1,27,28
 202 -20 202 -20 163 -20 c 0,29,30
 130 -20 130 -20 116.5 -3 c 128,-1,31
 103 14 103 14 103 45 c 0,32,33
 103 76 103 76 109 106 c 2,34,-1
 201 571 l 1,35,-1
 137 571 l 2,36,37
 83 571 83 571 58 559 c 1,38,39
 44 580 44 580 44 604 c 0,40,41
 44 622 44 622 53 633.5 c 128,-1,42
 62 645 62 645 77.5 650.5 c 128,-1,43
 93 656 93 656 109 658 c 128,-1,44
 125 660 125 660 146 660 c 2,45,-1
 396 660 l 2,12,13
EndSplineSet
Validated: 8388609
Position2: "'cpsp' Capital Spacing lookup 3 subtable" dx=5 dy=0 dh=10 dv=0
EndChar

StartChar: U
Encoding: 85 85 123
Width: 569
Flags: MW
HStem: -20 76<221 298 221 305> 640 20G<135 253 253 253 465 570 570 570>
VStem: 42 119<116 155>
LayerCount: 2
UndoRedoHistory
Layer: 0
Undoes
EndUndoes
Redoes
EndRedoes
EndUndoRedoHistory
UndoRedoHistory
Layer: 1
Undoes
EndUndoes
Redoes
EndRedoes
EndUndoRedoHistory
Fore
SplineSet
495 270 m 2,0,1
 467 122 467 122 404.5 51 c 128,-1,2
 342 -20 342 -20 225 -20 c 0,3,4
 136 -20 136 -20 89 20.5 c 128,-1,5
 42 61 42 61 42 138 c 0,6,7
 42 179 42 179 56 252 c 2,8,-1
 135 660 l 1,9,-1
 253 660 l 1,10,-1
 174 241 l 2,11,12
 161 171 161 171 161 143 c 0,13,14
 161 101 161 101 184 78.5 c 128,-1,15
 207 56 207 56 249 56 c 0,16,17
 278 56 278 56 300.5 68 c 128,-1,18
 323 80 323 80 338 98 c 128,-1,19
 353 116 353 116 364.5 144.5 c 128,-1,20
 376 173 376 173 382.5 199.5 c 128,-1,21
 389 226 389 226 395 261 c 2,22,-1
 465 660 l 1,23,-1
 570 660 l 1,24,-1
 495 270 l 2,0,1
EndSplineSet
Validated: 1
Position2: "'cpsp' Capital Spacing lookup 3 subtable" dx=5 dy=0 dh=10 dv=0
EndChar

StartChar: Uacute
Encoding: 218 218 124
Width: 569
Flags: MW
HStem: -20 76<221 298 221 305> 640 20G<135 253 253 253 465 570 570 570>
VStem: 42 119<116 155>
LayerCount: 2
UndoRedoHistory
Layer: 0
Undoes
EndUndoes
Redoes
EndRedoes
EndUndoRedoHistory
UndoRedoHistory
Layer: 1
Undoes
EndUndoes
Redoes
EndRedoes
EndUndoRedoHistory
Fore
SplineSet
495 270 m 2,0,1
 467 122 467 122 404.5 51 c 128,-1,2
 342 -20 342 -20 225 -20 c 0,3,4
 136 -20 136 -20 89 20.5 c 128,-1,5
 42 61 42 61 42 138 c 0,6,7
 42 179 42 179 56 252 c 2,8,-1
 135 660 l 1,9,-1
 253 660 l 1,10,-1
 174 241 l 2,11,12
 161 171 161 171 161 143 c 0,13,14
 161 101 161 101 184 78.5 c 128,-1,15
 207 56 207 56 249 56 c 0,16,17
 278 56 278 56 300.5 68 c 128,-1,18
 323 80 323 80 338 98 c 128,-1,19
 353 116 353 116 364.5 144.5 c 128,-1,20
 376 173 376 173 382.5 199.5 c 128,-1,21
 389 226 389 226 395 261 c 2,22,-1
 465 660 l 1,23,-1
 570 660 l 1,24,-1
 495 270 l 2,0,1
309 756 m 1,25,-1
 543 845 l 1,26,27
 565 831 565 831 565 800 c 0,28,29
 565 780 565 780 556.5 765.5 c 128,-1,30
 548 751 548 751 535.5 743 c 128,-1,31
 523 735 523 735 504 729.5 c 128,-1,32
 485 724 485 724 469.5 722 c 128,-1,33
 454 720 454 720 432 719 c 2,34,-1
 317 713 l 1,35,-1
 309 756 l 1,25,-1
EndSplineSet
Validated: 1
Position2: "'cpsp' Capital Spacing lookup 3 subtable" dx=5 dy=0 dh=10 dv=0
EndChar

StartChar: Ubreve
Encoding: 364 364 125
Width: 569
Flags: MW
HStem: -20 76<221 298 221 305> 640 20G<135 253 253 253 465 570 570 570> 699 49<384 423 384 438>
VStem: 42 119<116 155> 264 86<787 807 787 809>
LayerCount: 2
UndoRedoHistory
Layer: 0
Undoes
EndUndoes
Redoes
EndRedoes
EndUndoRedoHistory
UndoRedoHistory
Layer: 1
Undoes
EndUndoes
Redoes
EndRedoes
EndUndoRedoHistory
Fore
SplineSet
495 270 m 2,0,1
 467 122 467 122 404.5 51 c 128,-1,2
 342 -20 342 -20 225 -20 c 0,3,4
 136 -20 136 -20 89 20.5 c 128,-1,5
 42 61 42 61 42 138 c 0,6,7
 42 179 42 179 56 252 c 2,8,-1
 135 660 l 1,9,-1
 253 660 l 1,10,-1
 174 241 l 2,11,12
 161 171 161 171 161 143 c 0,13,14
 161 101 161 101 184 78.5 c 128,-1,15
 207 56 207 56 249 56 c 0,16,17
 278 56 278 56 300.5 68 c 128,-1,18
 323 80 323 80 338 98 c 128,-1,19
 353 116 353 116 364.5 144.5 c 128,-1,20
 376 173 376 173 382.5 199.5 c 128,-1,21
 389 226 389 226 395 261 c 2,22,-1
 465 660 l 1,23,-1
 570 660 l 1,24,-1
 495 270 l 2,0,1
354 832 m 1,25,26
 350 813 350 813 350 803 c 0,27,28
 350 778 350 778 363 763 c 128,-1,29
 376 748 376 748 400 748 c 0,30,31
 432 748 432 748 456.5 774.5 c 128,-1,32
 481 801 481 801 487 832 c 1,33,-1
 567 832 l 1,34,35
 556 770 556 770 508.5 734.5 c 128,-1,36
 461 699 461 699 390 699 c 0,37,38
 328 699 328 699 296 726.5 c 128,-1,39
 264 754 264 754 264 804 c 0,40,41
 264 817 264 817 267 832 c 1,42,-1
 354 832 l 1,25,26
EndSplineSet
Validated: 1
Position2: "'cpsp' Capital Spacing lookup 3 subtable" dx=5 dy=0 dh=10 dv=0
EndChar

StartChar: Ucircumflex
Encoding: 219 219 126
Width: 569
Flags: MW
HStem: -20 76<221 298 221 305> 640 20G<135 253 253 253 465 570 570 570>
VStem: 42 119<116 155>
LayerCount: 2
UndoRedoHistory
Layer: 0
Undoes
EndUndoes
Redoes
EndRedoes
EndUndoRedoHistory
UndoRedoHistory
Layer: 1
Undoes
EndUndoes
Redoes
EndRedoes
EndUndoRedoHistory
Fore
SplineSet
495 270 m 2,0,1
 467 122 467 122 404.5 51 c 128,-1,2
 342 -20 342 -20 225 -20 c 0,3,4
 136 -20 136 -20 89 20.5 c 128,-1,5
 42 61 42 61 42 138 c 0,6,7
 42 179 42 179 56 252 c 2,8,-1
 135 660 l 1,9,-1
 253 660 l 1,10,-1
 174 241 l 2,11,12
 161 171 161 171 161 143 c 0,13,14
 161 101 161 101 184 78.5 c 128,-1,15
 207 56 207 56 249 56 c 0,16,17
 278 56 278 56 300.5 68 c 128,-1,18
 323 80 323 80 338 98 c 128,-1,19
 353 116 353 116 364.5 144.5 c 128,-1,20
 376 173 376 173 382.5 199.5 c 128,-1,21
 389 226 389 226 395 261 c 2,22,-1
 465 660 l 1,23,-1
 570 660 l 1,24,-1
 495 270 l 2,0,1
491 674 m 1,25,-1
 386 746 l 1,26,-1
 256 674 l 1,27,-1
 229 723 l 1,28,-1
 392 839 l 1,29,-1
 399 839 l 1,30,-1
 531 722 l 1,31,-1
 491 674 l 1,25,-1
EndSplineSet
Validated: 1
Position2: "'cpsp' Capital Spacing lookup 3 subtable" dx=5 dy=0 dh=10 dv=0
EndChar

StartChar: Udieresis
Encoding: 220 220 127
Width: 569
Flags: MW
HStem: -20 76<221 298 221 305> 640 20G<135 253 253 253 465 570 570 570> 727 126<270 309 479 518>
VStem: 42 119<116 155> 215 150<770 811> 424 150<770 811>
LayerCount: 2
UndoRedoHistory
Layer: 0
Undoes
EndUndoes
Redoes
EndRedoes
EndUndoRedoHistory
UndoRedoHistory
Layer: 1
Undoes
EndUndoes
Redoes
EndRedoes
EndUndoRedoHistory
Fore
SplineSet
495 270 m 2,0,1
 467 122 467 122 404.5 51 c 128,-1,2
 342 -20 342 -20 225 -20 c 0,3,4
 136 -20 136 -20 89 20.5 c 128,-1,5
 42 61 42 61 42 138 c 0,6,7
 42 179 42 179 56 252 c 2,8,-1
 135 660 l 1,9,-1
 253 660 l 1,10,-1
 174 241 l 2,11,12
 161 171 161 171 161 143 c 0,13,14
 161 101 161 101 184 78.5 c 128,-1,15
 207 56 207 56 249 56 c 0,16,17
 278 56 278 56 300.5 68 c 128,-1,18
 323 80 323 80 338 98 c 128,-1,19
 353 116 353 116 364.5 144.5 c 128,-1,20
 376 173 376 173 382.5 199.5 c 128,-1,21
 389 226 389 226 395 261 c 2,22,-1
 465 660 l 1,23,-1
 570 660 l 1,24,-1
 495 270 l 2,0,1
500 853 m 0,25,26
 533 853 533 853 553.5 837 c 128,-1,27
 574 821 574 821 574 791 c 0,28,29
 574 760 574 760 552 743.5 c 128,-1,30
 530 727 530 727 497 727 c 0,31,32
 464 727 464 727 444 743 c 128,-1,33
 424 759 424 759 424 789 c 0,34,35
 424 820 424 820 445.5 836.5 c 128,-1,36
 467 853 467 853 500 853 c 0,25,26
291 853 m 0,37,38
 324 853 324 853 344.5 837 c 128,-1,39
 365 821 365 821 365 791 c 0,40,41
 365 760 365 760 343 743.5 c 128,-1,42
 321 727 321 727 288 727 c 0,43,44
 255 727 255 727 235 743 c 128,-1,45
 215 759 215 759 215 789 c 0,46,47
 215 820 215 820 236.5 836.5 c 128,-1,48
 258 853 258 853 291 853 c 0,37,38
EndSplineSet
Validated: 1
Position2: "'cpsp' Capital Spacing lookup 3 subtable" dx=5 dy=0 dh=10 dv=0
EndChar

StartChar: Udotbelow
Encoding: 7908 7908 128
Width: 569
Flags: MW
HStem: -180 126<172 211> -20 76<221 298 221 305> 640 20G<135 253 253 253 465 570 570 570>
VStem: 42 119<116 155> 117 149<-138 -97>
LayerCount: 2
UndoRedoHistory
Layer: 0
Undoes
EndUndoes
Redoes
EndRedoes
EndUndoRedoHistory
UndoRedoHistory
Layer: 1
Undoes
EndUndoes
Redoes
EndRedoes
EndUndoRedoHistory
Fore
SplineSet
193 -54 m 0,0,1
 226 -54 226 -54 246 -70 c 128,-1,2
 266 -86 266 -86 266 -116 c 0,3,4
 266 -147 266 -147 244.5 -163.5 c 128,-1,5
 223 -180 223 -180 190 -180 c 0,6,7
 157 -180 157 -180 137 -164 c 128,-1,8
 117 -148 117 -148 117 -118 c 0,9,10
 117 -87 117 -87 138.5 -70.5 c 128,-1,11
 160 -54 160 -54 193 -54 c 0,0,1
495 270 m 2,12,13
 467 122 467 122 404.5 51 c 128,-1,14
 342 -20 342 -20 225 -20 c 0,15,16
 136 -20 136 -20 89 20.5 c 128,-1,17
 42 61 42 61 42 138 c 0,18,19
 42 179 42 179 56 252 c 2,20,-1
 135 660 l 1,21,-1
 253 660 l 1,22,-1
 174 241 l 2,23,24
 161 171 161 171 161 143 c 0,25,26
 161 101 161 101 184 78.5 c 128,-1,27
 207 56 207 56 249 56 c 0,28,29
 278 56 278 56 300.5 68 c 128,-1,30
 323 80 323 80 338 98 c 128,-1,31
 353 116 353 116 364.5 144.5 c 128,-1,32
 376 173 376 173 382.5 199.5 c 128,-1,33
 389 226 389 226 395 261 c 2,34,-1
 465 660 l 1,35,-1
 570 660 l 1,36,-1
 495 270 l 2,12,13
EndSplineSet
Validated: 8388609
Position2: "'cpsp' Capital Spacing lookup 3 subtable" dx=5 dy=0 dh=10 dv=0
EndChar

StartChar: Ugrave
Encoding: 217 217 129
Width: 569
Flags: MW
HStem: -20 76<221 298 221 305> 640 20G<135 253 253 253 465 570 570 570>
VStem: 42 119<116 155>
LayerCount: 2
UndoRedoHistory
Layer: 0
Undoes
EndUndoes
Redoes
EndRedoes
EndUndoRedoHistory
UndoRedoHistory
Layer: 1
Undoes
EndUndoes
Redoes
EndRedoes
EndUndoRedoHistory
Fore
SplineSet
495 270 m 2,0,1
 467 122 467 122 404.5 51 c 128,-1,2
 342 -20 342 -20 225 -20 c 0,3,4
 136 -20 136 -20 89 20.5 c 128,-1,5
 42 61 42 61 42 138 c 0,6,7
 42 179 42 179 56 252 c 2,8,-1
 135 660 l 1,9,-1
 253 660 l 1,10,-1
 174 241 l 2,11,12
 161 171 161 171 161 143 c 0,13,14
 161 101 161 101 184 78.5 c 128,-1,15
 207 56 207 56 249 56 c 0,16,17
 278 56 278 56 300.5 68 c 128,-1,18
 323 80 323 80 338 98 c 128,-1,19
 353 116 353 116 364.5 144.5 c 128,-1,20
 376 173 376 173 382.5 199.5 c 128,-1,21
 389 226 389 226 395 261 c 2,22,-1
 465 660 l 1,23,-1
 570 660 l 1,24,-1
 495 270 l 2,0,1
468 713 m 1,25,-1
 353 719 l 2,26,27
 332 720 332 720 316 722 c 128,-1,28
 300 724 300 724 281 729.5 c 128,-1,29
 262 735 262 735 249.5 743 c 128,-1,30
 237 751 237 751 228.5 765.5 c 128,-1,31
 220 780 220 780 220 800 c 0,32,33
 220 831 220 831 242 845 c 1,34,-1
 476 756 l 1,35,-1
 468 713 l 1,25,-1
EndSplineSet
Validated: 1
Position2: "'cpsp' Capital Spacing lookup 3 subtable" dx=5 dy=0 dh=10 dv=0
EndChar

StartChar: Uhungarumlaut
Encoding: 368 368 130
Width: 569
Flags: MW
HStem: -20 76<221 298 221 305> 640 20G<135 253 253 253 465 570 570 570>
VStem: 42 119<116 155>
LayerCount: 2
UndoRedoHistory
Layer: 0
Undoes
EndUndoes
Redoes
EndRedoes
EndUndoRedoHistory
UndoRedoHistory
Layer: 1
Undoes
EndUndoes
Redoes
EndRedoes
EndUndoRedoHistory
Fore
SplineSet
495 270 m 2,0,1
 467 122 467 122 404.5 51 c 128,-1,2
 342 -20 342 -20 225 -20 c 0,3,4
 136 -20 136 -20 89 20.5 c 128,-1,5
 42 61 42 61 42 138 c 0,6,7
 42 179 42 179 56 252 c 2,8,-1
 135 660 l 1,9,-1
 253 660 l 1,10,-1
 174 241 l 2,11,12
 161 171 161 171 161 143 c 0,13,14
 161 101 161 101 184 78.5 c 128,-1,15
 207 56 207 56 249 56 c 0,16,17
 278 56 278 56 300.5 68 c 128,-1,18
 323 80 323 80 338 98 c 128,-1,19
 353 116 353 116 364.5 144.5 c 128,-1,20
 376 173 376 173 382.5 199.5 c 128,-1,21
 389 226 389 226 395 261 c 2,22,-1
 465 660 l 1,23,-1
 570 660 l 1,24,-1
 495 270 l 2,0,1
598 847 m 1,25,26
 622 830 622 830 622 799 c 0,27,28
 622 768 622 768 602.5 750 c 128,-1,29
 583 732 583 732 540 723 c 2,30,-1
 462 707 l 1,31,-1
 441 740 l 1,32,-1
 598 847 l 1,25,26
415 847 m 1,33,34
 438 829 438 829 438 798 c 0,35,36
 438 768 438 768 418 750 c 128,-1,37
 398 732 398 732 355 723 c 2,38,-1
 279 707 l 1,39,-1
 257 740 l 1,40,-1
 415 847 l 1,33,34
EndSplineSet
Validated: 1
Position2: "'cpsp' Capital Spacing lookup 3 subtable" dx=5 dy=0 dh=10 dv=0
EndChar

StartChar: Umacron
Encoding: 362 362 131
Width: 569
Flags: MW
HStem: -20 76<221 298 221 305> 640 20G<135 253 253 253 465 570 570 570> 734 82<313 465 254 530>
VStem: 42 119<116 155>
LayerCount: 2
UndoRedoHistory
Layer: 0
Undoes
EndUndoes
Redoes
EndRedoes
EndUndoRedoHistory
UndoRedoHistory
Layer: 1
Undoes
EndUndoes
Redoes
EndRedoes
EndUndoRedoHistory
Fore
SplineSet
495 270 m 2,0,1
 467 122 467 122 404.5 51 c 128,-1,2
 342 -20 342 -20 225 -20 c 0,3,4
 136 -20 136 -20 89 20.5 c 128,-1,5
 42 61 42 61 42 138 c 0,6,7
 42 179 42 179 56 252 c 2,8,-1
 135 660 l 1,9,-1
 253 660 l 1,10,-1
 174 241 l 2,11,12
 161 171 161 171 161 143 c 0,13,14
 161 101 161 101 184 78.5 c 128,-1,15
 207 56 207 56 249 56 c 0,16,17
 278 56 278 56 300.5 68 c 128,-1,18
 323 80 323 80 338 98 c 128,-1,19
 353 116 353 116 364.5 144.5 c 128,-1,20
 376 173 376 173 382.5 199.5 c 128,-1,21
 389 226 389 226 395 261 c 2,22,-1
 465 660 l 1,23,-1
 570 660 l 1,24,-1
 495 270 l 2,0,1
530 816 m 1,25,26
 533 804 533 804 533 792 c 0,27,28
 533 766 533 766 515.5 750 c 128,-1,29
 498 734 498 734 465 734 c 2,30,-1
 254 734 l 1,31,32
 252 742 252 742 252 758 c 0,33,34
 252 785 252 785 269 800.5 c 128,-1,35
 286 816 286 816 313 816 c 2,36,-1
 530 816 l 1,25,26
EndSplineSet
Validated: 1
Position2: "'cpsp' Capital Spacing lookup 3 subtable" dx=5 dy=0 dh=10 dv=0
EndChar

StartChar: Uogonek
Encoding: 370 370 132
Width: 569
Flags: MW
HStem: -258 62<296 326> -20 76<221 230> 640 20G<135 253 253 253 465 570 570 570>
VStem: 42 119<116 155> 186 73<-157 -123>
LayerCount: 2
UndoRedoHistory
Layer: 0
Undoes
EndUndoes
Redoes
EndRedoes
EndUndoRedoHistory
UndoRedoHistory
Layer: 1
Undoes
EndUndoes
Redoes
EndRedoes
EndUndoRedoHistory
Fore
SplineSet
570 660 m 1,0,-1
 495 270 l 2,1,2
 476 170 476 170 442.5 106 c 128,-1,3
 409 42 409 42 355 10 c 0,4,5
 312 -15 312 -15 285.5 -55.5 c 128,-1,6
 259 -96 259 -96 259 -137 c 0,7,8
 259 -168 259 -168 272.5 -182 c 128,-1,9
 286 -196 286 -196 318 -196 c 0,10,11
 354 -196 354 -196 370 -171 c 1,12,13
 386 -184 386 -184 386 -200 c 0,14,15
 386 -224 386 -224 362 -241 c 128,-1,16
 338 -258 338 -258 301 -258 c 0,17,18
 249 -258 249 -258 217.5 -229.5 c 128,-1,19
 186 -201 186 -201 186 -150 c 0,20,21
 186 -73 186 -73 253 -19 c 1,22,23
 244 -20 244 -20 225 -20 c 0,24,25
 136 -20 136 -20 89 20.5 c 128,-1,26
 42 61 42 61 42 138 c 0,27,28
 42 179 42 179 56 252 c 2,29,-1
 135 660 l 1,30,-1
 253 660 l 1,31,-1
 174 241 l 2,32,33
 161 171 161 171 161 143 c 0,34,35
 161 101 161 101 184 78.5 c 128,-1,36
 207 56 207 56 249 56 c 0,37,38
 278 56 278 56 300.5 68 c 128,-1,39
 323 80 323 80 338 98 c 128,-1,40
 353 116 353 116 364.5 144.5 c 128,-1,41
 376 173 376 173 382.5 199.5 c 128,-1,42
 389 226 389 226 395 261 c 2,43,-1
 465 660 l 1,44,-1
 570 660 l 1,0,-1
EndSplineSet
Validated: 1
Position2: "'cpsp' Capital Spacing lookup 3 subtable" dx=5 dy=0 dh=10 dv=0
EndChar

StartChar: Uring
Encoding: 366 366 133
Width: 569
Flags: MW
HStem: -20 76<221 298 221 305> 640 20G<135 253 253 253 465 570 570 570> 690 32<377 402 377 413> 820 35<391 416>
VStem: 42 119<116 155> 297 58<747 775 747 789> 442 60<767 795>
LayerCount: 2
UndoRedoHistory
Layer: 0
Undoes
EndUndoes
Redoes
EndRedoes
EndUndoRedoHistory
UndoRedoHistory
Layer: 1
Undoes
EndUndoes
Redoes
EndRedoes
EndUndoRedoHistory
Fore
SplineSet
495 270 m 2,0,1
 467 122 467 122 404.5 51 c 128,-1,2
 342 -20 342 -20 225 -20 c 0,3,4
 136 -20 136 -20 89 20.5 c 128,-1,5
 42 61 42 61 42 138 c 0,6,7
 42 179 42 179 56 252 c 2,8,-1
 135 660 l 1,9,-1
 253 660 l 1,10,-1
 174 241 l 2,11,12
 161 171 161 171 161 143 c 0,13,14
 161 101 161 101 184 78.5 c 128,-1,15
 207 56 207 56 249 56 c 0,16,17
 278 56 278 56 300.5 68 c 128,-1,18
 323 80 323 80 338 98 c 128,-1,19
 353 116 353 116 364.5 144.5 c 128,-1,20
 376 173 376 173 382.5 199.5 c 128,-1,21
 389 226 389 226 395 261 c 2,22,-1
 465 660 l 1,23,-1
 570 660 l 1,24,-1
 495 270 l 2,0,1
442 784 m 0,25,26
 442 801 442 801 432 810.5 c 128,-1,27
 422 820 422 820 403 820 c 128,-1,28
 384 820 384 820 369.5 801.5 c 128,-1,29
 355 783 355 783 355 757 c 0,30,31
 355 722 355 722 390 722 c 0,32,33
 410 722 410 722 426 740.5 c 128,-1,34
 442 759 442 759 442 784 c 0,25,26
502 787 m 0,35,36
 502 744 502 744 466 717 c 128,-1,37
 430 690 430 690 384 690 c 0,38,39
 343 690 343 690 320 707.5 c 128,-1,40
 297 725 297 725 297 758 c 0,41,42
 297 801 297 801 332 828 c 128,-1,43
 367 855 367 855 413 855 c 0,44,45
 454 855 454 855 478 837 c 128,-1,46
 502 819 502 819 502 787 c 0,35,36
EndSplineSet
Validated: 1
Position2: "'cpsp' Capital Spacing lookup 3 subtable" dx=5 dy=0 dh=10 dv=0
EndChar

